<?xml version="1.0" encoding="UTF-8"?>
<svg xmlns="http://www.w3.org/2000/svg" xmlns:xlink="http://www.w3.org/1999/xlink" width="150px" height="150px" viewBox="0 0 150 150" version="1.1">
<g id="surface1">
<path style=" stroke:none;fill-rule:nonzero;fill:rgb(0%,0%,0%);fill-opacity:1;" d="M 2.898438 3.019531 C 2.824219 3.304688 2.75 4.214844 2.75 5.0625 C 2.75 6.164062 2.851562 6.609375 3.101562 6.609375 C 3.300781 6.609375 4.148438 7.488281 5.023438 8.554688 L 6.601562 10.539062 L 5.425781 10.632812 C 4.300781 10.726562 4.25 10.757812 4.25 11.703125 C 4.25 12.804688 5.226562 14.15625 6.023438 14.15625 C 6.273438 14.15625 6.5 14.375 6.5 14.628906 C 6.5 14.882812 6.675781 15.101562 6.875 15.101562 C 7.074219 15.101562 7.25 15.226562 7.25 15.351562 C 7.25 15.507812 7.699219 15.855469 8.25 16.171875 C 8.800781 16.484375 9.25 16.925781 9.25 17.179688 C 9.25 17.585938 9.699219 17.773438 10.449219 17.648438 C 10.601562 17.617188 10.75 17.804688 10.75 18.089844 C 10.75 18.34375 10.925781 18.5625 11.125 18.5625 C 11.351562 18.5625 11.574219 18.78125 11.648438 19.03125 C 11.75 19.285156 12.074219 19.507812 12.398438 19.507812 C 12.726562 19.507812 13 19.632812 13 19.789062 C 13 20.320312 14.824219 22.367188 15.148438 22.210938 C 15.324219 22.117188 15.675781 22.273438 15.898438 22.585938 C 16.148438 22.871094 16.601562 23.0625 16.925781 23.03125 C 17.273438 22.964844 17.550781 23.125 17.648438 23.40625 C 17.75 23.71875 18.101562 23.910156 18.523438 23.910156 C 18.949219 23.910156 19.324219 24.097656 19.398438 24.382812 C 19.523438 24.726562 19.925781 24.851562 20.875 24.851562 C 22.351562 24.851562 23.074219 25.105469 22.851562 25.515625 C 22.773438 25.671875 23.300781 25.796875 23.976562 25.796875 C 24.875 25.796875 25.25 25.921875 25.25 26.238281 C 25.25 26.523438 25.449219 26.617188 25.898438 26.488281 C 26.523438 26.332031 26.550781 26.394531 26.398438 27.242188 C 26.300781 27.75 26.050781 28.28125 25.851562 28.40625 C 25.226562 28.847656 25.476562 29.726562 26.625 30.988281 C 27.25 31.679688 27.75 32.5 27.75 32.8125 C 27.75 33.125 28.023438 33.695312 28.375 34.101562 C 28.726562 34.511719 29 35.109375 29 35.453125 C 29 35.769531 29.324219 36.367188 29.75 36.742188 C 30.226562 37.21875 30.5 37.71875 30.5 38.222656 C 30.5 38.664062 30.625 39.007812 30.75 39.007812 C 31.175781 39.007812 32 40.234375 32 40.867188 C 32 41.179688 32.273438 41.714844 32.625 42.03125 C 32.976562 42.34375 33.25 42.878906 33.25 43.195312 C 33.25 43.507812 33.75 44.390625 34.375 45.175781 C 35 45.929688 35.5 46.75 35.5 47.03125 C 35.5 47.28125 35.949219 48.039062 36.5 48.730469 C 37.050781 49.390625 37.5 50.179688 37.5 50.492188 C 37.5 50.804688 38 51.59375 38.625 52.285156 C 39.25 52.976562 39.75 53.734375 39.75 53.984375 C 39.75 54.234375 39.925781 54.425781 40.125 54.425781 C 40.324219 54.425781 40.5 54.550781 40.5 54.742188 C 40.5 54.898438 40.675781 55.054688 40.875 55.054688 C 41.101562 55.054688 41.25 55.335938 41.25 55.84375 C 41.25 56.28125 41.398438 56.722656 41.601562 56.816406 C 41.800781 56.910156 41.875 57.289062 41.800781 57.757812 C 41.75 58.171875 41.800781 58.515625 41.898438 58.515625 C 42.449219 58.515625 44 60.71875 44 61.472656 C 44 61.945312 44.101562 62.289062 44.25 62.289062 C 44.648438 62.289062 46.148438 64.367188 46.050781 64.742188 C 46 64.964844 46.476562 65.75 47.101562 66.539062 C 47.726562 67.292969 48.25 68.140625 48.25 68.425781 C 48.25 68.675781 48.726562 69.492188 49.324219 70.1875 C 49.898438 70.910156 50.351562 71.726562 50.300781 72.011719 C 50.273438 72.296875 50.574219 72.859375 51 73.238281 C 51.523438 73.742188 51.75 74.210938 51.75 74.84375 C 51.75 75.34375 51.898438 75.820312 52.125 75.945312 C 52.351562 76.039062 52.5 76.507812 52.5 77.046875 C 52.5 77.546875 52.648438 78.019531 52.875 78.148438 C 53.074219 78.242188 53.25 78.523438 53.25 78.773438 C 53.25 78.996094 53.601562 79.65625 54 80.222656 C 54.425781 80.789062 54.75 81.417969 54.726562 81.609375 C 54.648438 82.453125 54.773438 82.738281 55.324219 82.738281 C 55.625 82.773438 56.148438 83.179688 56.5 83.683594 C 56.824219 84.21875 57.25 84.625 57.425781 84.625 C 57.625 84.625 57.824219 84.816406 57.898438 85.066406 C 57.976562 85.320312 58.226562 85.445312 58.5 85.351562 C 58.824219 85.226562 59.074219 85.476562 59.351562 86.136719 C 59.574219 86.671875 59.976562 87.175781 60.25 87.300781 C 60.523438 87.394531 60.75 87.648438 60.75 87.804688 C 60.75 87.960938 60.925781 88.085938 61.125 88.085938 C 61.324219 88.085938 62.449219 89.28125 63.601562 90.761719 C 64.75 92.242188 65.875 93.4375 66.101562 93.4375 C 66.324219 93.4375 66.949219 94.0625 67.523438 94.851562 C 68.101562 95.636719 68.699219 96.234375 68.875 96.140625 C 69.023438 96.078125 69.675781 96.707031 70.324219 97.523438 C 71.273438 98.75 71.5 99.257812 71.5 100.136719 C 71.5 100.828125 71.648438 101.300781 71.875 101.425781 C 72.148438 101.554688 72.25 102.117188 72.25 103.816406 C 72.25 105.421875 72.324219 105.988281 72.574219 105.925781 C 72.800781 105.890625 72.898438 106.742188 72.949219 109.226562 C 73 111.964844 73.101562 112.625 73.375 112.625 C 73.675781 112.625 73.75 113.097656 73.75 114.859375 C 73.75 116.9375 73.800781 117.125 74.476562 117.847656 C 75.398438 118.824219 75.375 119.765625 74.449219 120.804688 C 74.074219 121.214844 73.75 121.8125 73.75 122.0625 C 73.75 122.347656 73.425781 122.914062 73 123.320312 C 72.449219 123.921875 72.273438 124.390625 72.25 125.242188 C 72.25 125.964844 72.101562 126.46875 71.875 126.59375 C 70.976562 127.003906 71.800781 128.953125 72.800781 128.734375 C 73.476562 128.578125 73.476562 131.0625 72.773438 131.34375 C 71.976562 131.65625 71.625 132.351562 72 132.917969 C 72.25 133.296875 72.199219 133.640625 71.75 134.710938 C 71.101562 136.3125 70.25 137.507812 69.976562 137.289062 C 69.601562 137.007812 69.726562 135.90625 70.125 135.71875 C 70.324219 135.59375 70.5 135.179688 70.5 134.742188 C 70.5 134.015625 70.898438 132.757812 71.25 132.445312 C 71.324219 132.351562 71.625 131.691406 71.925781 130.96875 L 72.425781 129.613281 L 71.824219 129.613281 C 70.949219 129.613281 70.25 130.179688 70.25 130.875 C 70.25 131.53125 69.425781 132.757812 69 132.757812 C 68.875 132.757812 68.75 133.105469 68.75 133.546875 C 68.75 133.984375 68.574219 134.429688 68.375 134.523438 C 68.175781 134.648438 68 135.023438 68 135.433594 C 68 135.84375 67.824219 136.21875 67.625 136.34375 C 67.425781 136.441406 67.25 136.820312 67.25 137.195312 C 67.25 137.574219 66.976562 138.203125 66.625 138.609375 C 66.273438 139.023438 66 139.617188 66 139.933594 C 66 140.28125 65.824219 140.625 65.625 140.75 C 65.375 140.84375 65.25 141.347656 65.25 142.195312 C 65.25 143.109375 65.148438 143.457031 64.875 143.457031 C 64.601562 143.457031 64.5 143.867188 64.5 145.15625 C 64.5 146.382812 64.398438 146.882812 64.125 147.042969 C 63.875 147.167969 63.75 147.671875 63.75 148.648438 L 63.75 150.0625 L 78.175781 150.0625 L 78.574219 147.136719 C 79.101562 143.550781 79.101562 143.015625 78.625 142.511719 C 78.101562 141.976562 78.148438 141.222656 78.726562 141.03125 C 79.023438 140.9375 79.148438 140.6875 79.074219 140.34375 C 79.023438 140.027344 79.148438 139.617188 79.351562 139.398438 C 79.574219 139.148438 79.75 138.609375 79.75 138.203125 C 79.75 137.574219 79.648438 137.445312 79.324219 137.574219 C 79.074219 137.699219 78.375 137.921875 77.75 138.109375 C 77.125 138.328125 76.273438 138.609375 75.851562 138.769531 C 75.425781 138.925781 74.648438 139.054688 74.148438 139.054688 C 73.324219 139.054688 73.226562 138.988281 73.5 138.578125 C 73.675781 138.328125 73.976562 138.109375 74.175781 138.109375 C 74.425781 138.109375 74.449219 137.953125 74.300781 137.605469 C 73.949219 136.851562 74.25 135.65625 74.824219 135.464844 C 75.25 135.339844 75.273438 135.246094 75.023438 134.835938 C 74.800781 134.523438 74.75 134.050781 74.898438 133.484375 C 75 132.980469 75.050781 132.445312 75.023438 132.226562 C 75 132.039062 75.226562 131.785156 75.5 131.65625 C 75.773438 131.53125 76.300781 131.125 76.625 130.746094 C 77.125 130.148438 77.226562 129.804688 77.101562 129.078125 C 76.925781 127.976562 77.273438 127.539062 77.949219 128.007812 C 78.300781 128.230469 78.398438 128.578125 78.300781 129.296875 C 78.175781 130.460938 78.601562 131.1875 79.476562 131.1875 C 79.824219 131.1875 80.476562 131.46875 80.898438 131.785156 C 81.5 132.257812 81.726562 132.664062 81.800781 133.609375 C 81.898438 134.367188 81.800781 134.992188 81.601562 135.308594 C 81.398438 135.5625 81.25 136.0625 81.25 136.410156 C 81.25 136.757812 81.074219 137.320312 80.875 137.667969 C 80.675781 137.984375 80.5 138.609375 80.5 139.054688 C 80.5 139.492188 80.273438 140.28125 80.023438 140.84375 C 79.648438 141.601562 79.574219 142.039062 79.75 142.734375 C 79.898438 143.203125 80.125 145.0625 80.273438 146.820312 L 80.550781 150.0625 L 93.976562 150.0625 L 94.050781 149.210938 C 94.101562 148.679688 94.300781 148.300781 94.574219 148.238281 C 94.898438 148.144531 95 148.332031 95 149.085938 C 95 149.96875 95.074219 150.0625 95.75 150.0625 L 96.5 150.0625 L 96.5 147.136719 C 96.5 145.5625 96.574219 143.488281 96.675781 142.578125 C 96.824219 140.96875 96.851562 140.90625 97.449219 141.097656 C 97.773438 141.191406 98.5 141.726562 99.023438 142.261719 C 99.898438 143.140625 100.101562 143.203125 101.175781 143.015625 C 101.851562 142.921875 102.449219 142.609375 102.574219 142.324219 C 102.75 141.945312 103.023438 141.882812 103.648438 142.039062 C 104.625 142.261719 106.648438 141.285156 106.898438 140.5 C 107.199219 139.492188 108.773438 139.679688 109.300781 140.78125 C 109.398438 141 110.101562 141.570312 110.875 142.007812 C 111.875 142.640625 112.449219 142.828125 113 142.671875 C 113.398438 142.546875 114.125 142.609375 114.550781 142.765625 C 115 142.921875 116.023438 143.265625 116.851562 143.488281 C 117.648438 143.710938 118.351562 144.085938 118.425781 144.304688 C 118.5 144.523438 118.449219 145.65625 118.324219 146.820312 C 117.949219 150.0625 117.949219 150.0625 120.398438 150.0625 C 121.699219 150.0625 122.5 149.9375 122.5 149.75 C 122.5 149.558594 122.023438 148.742188 121.425781 147.921875 C 120.226562 146.257812 119.375 144.210938 119.773438 143.929688 C 120 143.742188 123 145.910156 124.648438 147.453125 C 125.074219 147.828125 125.773438 148.269531 126.199219 148.363281 C 126.898438 148.554688 127 148.492188 127 147.890625 C 127 147.546875 126.925781 147.265625 126.824219 147.265625 C 126.023438 147.421875 125.949219 147.199219 126.125 145.1875 C 126.300781 143.234375 126.273438 143.140625 125.773438 143.140625 C 125.425781 143.140625 125.25 142.953125 125.25 142.546875 C 125.25 141.695312 125.625 141.476562 126.023438 142.070312 C 126.273438 142.449219 126.625 142.546875 127.550781 142.386719 C 128.726562 142.164062 128.898438 142.324219 128.773438 143.265625 C 128.75 143.425781 129.300781 143.457031 130.023438 143.390625 C 131.125 143.234375 131.324219 143.296875 131.425781 143.804688 C 131.550781 144.335938 131.824219 144.398438 133.875 144.398438 C 136 144.398438 136.199219 144.335938 136.324219 143.742188 C 136.449219 143.171875 136.574219 143.109375 137.648438 143.328125 C 138.5 143.488281 138.773438 143.457031 138.648438 143.171875 C 138.550781 142.984375 138.648438 142.734375 138.898438 142.609375 C 139.601562 142.292969 141.050781 140.28125 140.898438 139.835938 C 140.726562 139.210938 139.574219 138.328125 139.25 138.578125 C 139.101562 138.703125 139.023438 138.988281 139.101562 139.210938 C 139.148438 139.429688 139.074219 139.867188 138.898438 140.183594 C 138.648438 140.59375 138.375 140.6875 137.625 140.53125 C 137.023438 140.40625 136.449219 140.5 136.023438 140.78125 C 135.476562 141.128906 134.949219 141.160156 133.476562 140.90625 C 132.449219 140.75 131.226562 140.5625 130.726562 140.5 C 130.226562 140.4375 129.425781 140.152344 128.976562 139.867188 C 128.5 139.617188 127.273438 139.023438 126.25 138.609375 C 123.773438 137.574219 122.800781 137.101562 121.75 136.378906 C 120.875 135.78125 119.25 134.960938 117.375 134.207031 L 116.398438 133.796875 L 116.425781 128.796875 C 116.5 120.367188 115.800781 115.929688 114.273438 115.300781 C 113.226562 114.890625 111.976562 115.046875 111.300781 115.679688 C 110.773438 116.148438 110.476562 116.242188 110.175781 116.023438 C 109.875 115.835938 109.273438 115.898438 108.300781 116.242188 C 107.523438 116.527344 106.601562 116.84375 106.25 116.9375 C 105.898438 117.03125 105.425781 117.3125 105.199219 117.59375 C 104.949219 117.847656 104.574219 117.976562 104.324219 117.816406 C 103.925781 117.628906 103.949219 117.5625 104.574219 117.15625 C 104.949219 116.90625 105.25 116.589844 105.25 116.429688 C 105.25 116.273438 105.5 116.054688 105.824219 115.929688 C 106.25 115.773438 106.273438 115.679688 106 115.550781 C 105.800781 115.457031 105.523438 115.171875 105.425781 114.953125 C 105.199219 114.453125 104 114.355469 104 114.828125 C 104 115.394531 102.949219 115.140625 102.148438 114.421875 C 100.976562 113.320312 100.550781 113.191406 100.25 113.882812 C 99.949219 114.578125 99.375 114.703125 99.175781 114.136719 C 99.125 113.914062 99.273438 112.875 99.550781 111.839844 C 100.101562 109.667969 100.648438 102.84375 100.398438 101.171875 C 100.101562 99.128906 99.5 100.136719 99.5 102.75 C 99.5 103.4375 99.351562 104.632812 99.148438 105.421875 C 98.550781 107.8125 98 111.242188 98 112.5625 C 98 113.289062 97.898438 113.945312 97.75 114.039062 C 97.625 114.136719 97.5 114.578125 97.5 114.984375 C 97.5 115.773438 96.675781 116.714844 95.976562 116.714844 C 95.726562 116.714844 95.226562 117.125 94.824219 117.59375 C 94 118.664062 93.425781 118.601562 93.648438 117.46875 C 93.75 117.0625 93.675781 116.496094 93.5 116.242188 C 93.101562 115.648438 92.976562 112.90625 93.324219 112.34375 C 93.523438 112.027344 93.523438 111.839844 93.226562 111.554688 C 92.648438 111.023438 92.125 109.796875 91.648438 108 C 91.425781 107.121094 91.074219 106.304688 90.925781 106.210938 C 90.699219 106.050781 90.699219 105.988281 90.949219 105.828125 C 91.449219 105.546875 91.324219 104.132812 90.773438 104.132812 C 90.199219 104.132812 89.699219 103.40625 89.800781 102.683594 C 89.851562 102.335938 89.550781 101.929688 88.898438 101.523438 C 87.875 100.859375 86.5 98.6875 86.199219 97.273438 C 85.949219 96.140625 86.074219 96.109375 86.949219 97.054688 C 87.351562 97.492188 87.875 97.839844 88.074219 97.839844 C 88.574219 97.839844 89.050781 98.625 88.949219 99.320312 C 88.898438 99.726562 89.050781 99.914062 89.550781 99.976562 C 89.949219 100.039062 90.300781 100.324219 90.375 100.703125 C 90.5 101.203125 90.675781 101.269531 91.523438 101.109375 C 92.273438 100.953125 92.625 101.046875 93 101.457031 C 93.375 101.898438 93.574219 101.960938 93.800781 101.679688 C 94 101.425781 93.976562 101.269531 93.648438 101.109375 C 92.925781 100.765625 92.476562 99.257812 92.648438 97.808594 C 92.851562 96.328125 92.425781 95.636719 91.324219 95.636719 C 90.976562 95.636719 90.75 95.449219 90.75 95.132812 C 90.75 94.222656 89.398438 91.546875 88.949219 91.546875 C 88.699219 91.546875 88.5 91.390625 88.5 91.234375 C 88.5 91.046875 88.699219 90.917969 88.949219 90.984375 C 89.226562 91.046875 89.398438 90.855469 89.449219 90.351562 C 89.550781 89.566406 89.050781 89.4375 88.273438 90.039062 C 87.898438 90.320312 87.726562 90.289062 87.398438 89.914062 C 87.175781 89.628906 86.875 89.34375 86.699219 89.25 C 86.425781 89.125 86.425781 89.03125 86.699219 88.6875 C 86.949219 88.339844 87.101562 88.339844 87.523438 88.65625 C 88.125 89.125 88.375 88.96875 88.175781 88.242188 C 88.074219 87.929688 87.675781 87.773438 86.976562 87.773438 C 86.273438 87.773438 86 87.648438 86.050781 87.394531 C 86.175781 86.953125 89 86.671875 89.226562 87.046875 C 89.300781 87.207031 89.75 87.648438 90.226562 88.054688 C 90.898438 88.65625 91.148438 88.71875 91.648438 88.433594 C 92.699219 87.835938 92.273438 86.828125 90.976562 86.828125 C 90.699219 86.828125 89.949219 86.546875 89.324219 86.167969 C 88.324219 85.601562 87.898438 85.539062 86.425781 85.726562 C 84.699219 85.914062 84.675781 85.914062 83.949219 84.910156 C 83.273438 84 83.199219 83.714844 83.300781 82.359375 C 83.425781 80.945312 83.375 80.789062 82.726562 80.191406 C 81.875 79.4375 81.773438 78.648438 82.5 78.429688 C 82.773438 78.335938 83 78.148438 83 77.988281 C 83 77.421875 82.398438 76.132812 82.125 76.132812 C 81.800781 76.132812 81.175781 74.117188 81.148438 73.015625 C 81.125 71.757812 80.625 71.949219 80.226562 73.363281 C 79.726562 75.0625 79.25 75.28125 79.25 73.835938 C 79.25 73.207031 79.375 72.671875 79.523438 72.609375 C 79.675781 72.546875 79.75 72.011719 79.699219 71.414062 L 79.625 70.3125 L 79.050781 71.695312 C 78.75 72.484375 78.5 73.363281 78.5 73.679688 C 78.5 74.625 77.550781 76.699219 76.875 77.265625 C 76.523438 77.546875 76.25 78.050781 76.25 78.367188 C 76.25 78.710938 76.148438 78.964844 76 78.964844 C 75.675781 78.964844 75.675781 77.800781 76 77.640625 C 76.148438 77.578125 76.148438 77.171875 76 76.445312 C 75.875 75.851562 75.726562 73.710938 75.648438 71.726562 C 75.550781 68.675781 75.476562 68.046875 75.074219 67.734375 C 74.648438 67.355469 74.625 67.546875 74.625 71.382812 C 74.601562 74.085938 74.5 75.597656 74.300781 75.914062 C 74.125 76.164062 74.023438 76.636719 74.023438 76.953125 C 74.148438 78.554688 73.648438 79.34375 73.351562 78.085938 C 73.273438 77.800781 73 77.046875 72.726562 76.382812 C 72.425781 75.691406 72.175781 74.210938 72.050781 72.484375 C 71.949219 70.753906 71.75 69.683594 71.574219 69.589844 C 71.351562 69.523438 71.25 69.839844 71.25 70.53125 C 71.25 71.132812 71.074219 71.882812 70.875 72.234375 C 70.550781 72.734375 70.476562 72.765625 70.25 72.359375 C 70.125 72.105469 70 71.164062 70 70.3125 C 70 68.675781 68.976562 64.335938 68.601562 64.335938 C 68.175781 64.335938 67.949219 69.871094 68.25 72.671875 C 68.648438 76.289062 68.675781 76.824219 68.351562 76.984375 C 68.175781 77.046875 67.824219 76.164062 67.5 74.90625 C 67 73.015625 66.949219 72.515625 67.199219 71.539062 C 67.476562 70.34375 67.273438 69.460938 66.5 68.710938 C 66.050781 68.265625 65.523438 65.46875 65.5 63.484375 C 65.5 61.851562 65.351562 61.597656 64.523438 61.882812 C 64.148438 62.007812 64.023438 62.226562 64.125 62.605469 C 64.273438 63.234375 63.898438 63.703125 63.5 63.390625 C 63.351562 63.265625 63.324219 62.984375 63.449219 62.699219 C 63.726562 62.132812 63.125 60.402344 62.675781 60.402344 C 62.5 60.402344 62.101562 59.679688 61.75 58.765625 C 60.699219 56.03125 59.550781 55.9375 59.898438 58.578125 C 59.976562 59.238281 59.949219 59.773438 59.824219 59.773438 C 59.699219 59.773438 58.75 58.734375 57.726562 57.476562 C 56.699219 56.25 55.375 54.835938 54.824219 54.328125 C 54.125 53.765625 53.726562 53.164062 53.625 52.507812 C 53.523438 51.90625 53.226562 51.4375 52.875 51.28125 C 52.550781 51.121094 52.226562 50.710938 52.125 50.335938 C 52.023438 49.960938 51.523438 49.453125 50.976562 49.203125 C 49.800781 48.605469 49.675781 47.820312 50.75 47.820312 C 51.375 47.820312 51.5 47.695312 51.5 47.09375 C 51.5 46.71875 51.199219 46.023438 50.800781 45.554688 C 50.425781 45.113281 49.726562 44.203125 49.25 43.570312 C 48.773438 42.945312 48.074219 42.25 47.726562 42 C 47.351562 41.746094 47 41.335938 46.925781 41.054688 C 46.824219 40.804688 46.625 40.585938 46.425781 40.585938 C 45.949219 40.585938 45.101562 39.324219 44.925781 38.382812 C 44.824219 37.941406 44.101562 36.710938 43.273438 35.644531 C 42.25 34.320312 41.800781 33.503906 41.925781 33.1875 C 42.023438 32.84375 41.898438 32.625 41.574219 32.53125 C 41.324219 32.4375 40.976562 32.089844 40.824219 31.773438 C 40.523438 31.175781 40.523438 31.082031 41.375 27.78125 L 41.800781 26.140625 L 40.523438 24.507812 C 39.550781 23.28125 39.148438 22.964844 38.949219 23.21875 C 38.75 23.46875 38.75 23.878906 38.949219 24.789062 C 39.125 25.484375 39.25 27.367188 39.25 28.976562 L 39.25 31.929688 L 38.375 32.6875 C 37.550781 33.378906 37.351562 33.410156 34.5 33.285156 C 32.851562 33.21875 31.425781 33.03125 31.324219 32.90625 C 31.226562 32.78125 31.324219 32.5 31.550781 32.277344 C 31.976562 31.898438 31.976562 31.835938 31.476562 31.273438 C 31.199219 30.957031 30.773438 30.296875 30.550781 29.824219 C 30.074219 28.816406 29.875 28.753906 28.800781 29.445312 C 28 29.949219 27 29.792969 27 29.195312 C 27 29.039062 27.148438 28.945312 27.351562 29.039062 C 27.550781 29.132812 28 28.945312 28.324219 28.597656 C 28.675781 28.28125 29.074219 28 29.199219 28 C 29.351562 28 29.523438 27.71875 29.625 27.402344 C 29.699219 27.054688 30.023438 26.710938 30.324219 26.648438 C 30.773438 26.523438 30.75 26.488281 30.199219 26.457031 C 29.351562 26.425781 29.273438 25.734375 30.050781 25.105469 C 30.550781 24.695312 30.574219 24.539062 30.324219 23.8125 C 29.949219 22.839844 30.25 22.460938 31.300781 22.617188 C 32.148438 22.714844 32.175781 22.304688 31.5 21.046875 C 31.023438 20.226562 30.875 20.164062 29.898438 20.320312 C 29.226562 20.449219 28.75 20.386719 28.648438 20.164062 C 28.550781 19.976562 28.273438 19.820312 28.023438 19.820312 C 27.699219 19.820312 27.375 19.253906 26.925781 17.929688 C 25.875 14.882812 23.648438 13.621094 22.023438 15.132812 C 20.925781 16.140625 19.226562 16.296875 18.273438 15.445312 C 17.300781 14.566406 17.300781 14.25 18.324219 13.179688 C 18.75 12.710938 19.074219 12.269531 19 12.207031 C 18.925781 12.140625 18.199219 11.546875 17.375 10.851562 C 16.550781 10.164062 15.375 9.03125 14.726562 8.335938 C 13.523438 7.015625 13 6.609375 10.125 4.6875 C 9.175781 4.058594 8.351562 3.304688 8.300781 3.019531 C 8.175781 2.328125 5.75 2.296875 5.75 2.988281 C 5.75 3.242188 5.875 3.460938 6 3.460938 C 6.148438 3.460938 6.25 3.742188 6.25 4.089844 C 6.25 4.5 6.074219 4.71875 5.75 4.71875 C 5 4.71875 4 3.804688 4 3.117188 C 4 2.390625 3.125 2.296875 2.898438 3.019531 Z M 114.125 120.835938 C 114.023438 121.339844 113.851562 121.6875 113.75 121.59375 C 113.625 121.5 113.675781 121.8125 113.875 122.28125 C 114.074219 122.757812 114.25 123.511719 114.25 123.921875 C 114.25 124.675781 114.25 124.675781 113.800781 124.078125 C 113.175781 123.195312 112.5 121.8125 112.5 121.402344 C 112.5 121.183594 112.699219 120.835938 112.949219 120.617188 C 113.273438 120.304688 113.300781 120.144531 113.074219 119.859375 C 112.699219 119.359375 111.050781 120.898438 110.949219 121.84375 C 110.851562 122.820312 109.773438 122.976562 109.574219 122.09375 C 109.425781 121.339844 108.75 121.183594 108.75 121.90625 C 108.75 122.15625 108.574219 122.378906 108.351562 122.378906 C 107.726562 122.378906 108.050781 121.339844 108.800781 120.867188 C 109.199219 120.648438 109.601562 120.019531 109.773438 119.390625 C 109.976562 118.695312 110.273438 118.289062 110.550781 118.289062 C 111.101562 118.289062 111.125 118.695312 110.625 119.359375 C 110.425781 119.609375 110.25 119.953125 110.25 120.144531 C 110.25 120.742188 110.800781 120.523438 111.300781 119.703125 C 111.574219 119.265625 111.898438 118.917969 112.023438 118.917969 C 112.148438 118.917969 112.523438 118.632812 112.824219 118.289062 L 113.351562 117.628906 L 113.824219 118.789062 C 114.125 119.546875 114.226562 120.207031 114.125 120.835938 Z M 111 123.382812 C 111 123.574219 110.726562 124.046875 110.375 124.453125 C 109.601562 125.367188 109.523438 125.996094 110.273438 125.523438 C 110.550781 125.304688 111 124.894531 111.273438 124.546875 C 111.824219 123.859375 112.5 124.078125 112.5 124.925781 C 112.5 125.273438 112.75 125.996094 113.074219 126.5 L 113.625 127.476562 L 113.101562 128.007812 C 112.824219 128.292969 112.5 128.921875 112.425781 129.363281 C 112.324219 129.835938 112.023438 130.367188 111.75 130.558594 C 111.476562 130.746094 111.25 131.09375 111.25 131.34375 C 111.25 131.910156 110.273438 131.972656 110.226562 131.40625 C 110.199219 131.21875 110.175781 130.621094 110.148438 130.085938 C 110.125 128.859375 109.25 128.515625 109.25 129.742188 C 109.25 130.746094 108.800781 130.777344 107.898438 129.898438 C 107.125 129.109375 107.074219 128.640625 107.75 128.101562 C 108.25 127.726562 108.449219 126.78125 108.023438 126.78125 C 107.898438 126.78125 107.675781 127.003906 107.5 127.253906 C 107.324219 127.507812 106.925781 127.726562 106.601562 127.726562 C 105.699219 127.726562 105.824219 126.65625 106.824219 125.871094 C 107.273438 125.523438 107.949219 124.769531 108.324219 124.171875 C 108.898438 123.257812 109.175781 123.070312 110 123.070312 C 110.550781 123.039062 111 123.195312 111 123.382812 Z M 111 123.382812 "/>
<path style=" stroke:none;fill-rule:nonzero;fill:rgb(0%,0%,0%);fill-opacity:1;" d="M 93 7.390625 C 93 7.707031 92.726562 7.867188 92.125 7.867188 C 91.398438 7.867188 91.25 7.992188 91.25 8.523438 C 91.25 9.125 91.148438 9.15625 90.398438 9 C 89.699219 8.839844 89.550781 8.902344 89.425781 9.40625 C 89.351562 9.847656 89.148438 9.972656 88.800781 9.847656 C 88.425781 9.75 87.949219 10.164062 86.925781 11.453125 C 86.125 12.492188 85.324219 13.210938 85.023438 13.210938 C 84.523438 13.210938 84.398438 13.464844 84.476562 14.46875 C 84.523438 15.007812 83.625 16.359375 83.25 16.359375 C 83.101562 16.359375 83 16.578125 83 16.828125 C 83 17.113281 82.824219 17.398438 82.601562 17.523438 C 82.300781 17.648438 82.25 17.960938 82.351562 18.625 C 82.476562 19.378906 82.398438 19.601562 82 19.726562 C 81.523438 19.882812 81.5 20.164062 81.5 24.382812 C 81.5 28.4375 81.550781 28.882812 81.949219 29.007812 C 82.324219 29.132812 82.375 29.414062 82.300781 30.328125 C 82.226562 31.210938 82.273438 31.460938 82.601562 31.460938 C 82.898438 31.460938 83 31.742188 83 32.53125 C 83 33.1875 83.148438 33.664062 83.398438 33.789062 C 83.601562 33.882812 83.699219 34.132812 83.625 34.320312 C 83.523438 34.511719 83.800781 35.078125 84.226562 35.613281 C 84.648438 36.148438 85 36.902344 85 37.3125 C 85 37.71875 85.125 38.066406 85.25 38.066406 C 85.726562 38.066406 86.5 39.324219 86.5 40.109375 C 86.5 40.617188 86.648438 40.898438 86.875 40.898438 C 87.175781 40.898438 87.25 41.429688 87.25 43.886719 C 87.25 46.152344 87.324219 46.9375 87.601562 47.0625 C 87.851562 47.1875 87.898438 47.632812 87.800781 48.605469 C 87.648438 50.273438 87.898438 51.59375 88.351562 51.59375 C 88.601562 51.59375 88.648438 52.003906 88.550781 53.164062 C 88.449219 54.425781 88.523438 54.773438 88.851562 54.929688 C 89.074219 55.023438 89.25 55.460938 89.25 55.875 C 89.25 56.3125 89.425781 56.722656 89.625 56.816406 C 89.824219 56.941406 90 57.289062 90 57.632812 C 90 57.949219 90.375 58.671875 90.824219 59.207031 C 91.324219 59.804688 91.523438 60.214844 91.324219 60.308594 C 91.148438 60.402344 91 60.65625 91 60.875 C 91 61.09375 90.773438 61.34375 90.5 61.441406 C 90.101562 61.566406 90 61.882812 90 62.890625 C 90 63.832031 89.898438 64.179688 89.625 64.179688 C 89.425781 64.179688 89.25 64.460938 89.25 64.804688 C 89.25 65.152344 89.148438 65.4375 89.023438 65.4375 C 88.898438 65.4375 88.75 65.75 88.699219 66.128906 C 88.625 66.757812 88.5 66.820312 87.199219 66.726562 C 86.023438 66.664062 85.75 66.726562 85.75 67.132812 C 85.75 67.417969 85.601562 67.640625 85.398438 67.640625 C 85.023438 67.640625 84.75 68.296875 84.75 69.210938 C 84.75 69.554688 84.523438 69.96875 84.25 70.15625 C 83.976562 70.34375 83.75 70.6875 83.75 70.972656 C 83.75 71.476562 84.925781 74.558594 85.125 74.558594 C 85.324219 74.558594 86.023438 72.265625 86.300781 70.65625 C 86.476562 69.589844 86.699219 69.085938 87.023438 68.992188 C 87.273438 68.898438 87.5 68.710938 87.5 68.582031 C 87.5 68.425781 88.226562 68.234375 89.101562 68.109375 C 90.273438 67.953125 90.898438 68.015625 91.523438 68.359375 C 92 68.613281 92.675781 68.929688 93.050781 69.023438 C 93.476562 69.148438 93.75 69.460938 93.800781 69.90625 C 93.898438 70.785156 94.5 71.035156 94.5 70.1875 C 94.5 69.808594 94.398438 69.523438 94.300781 69.523438 C 94.175781 69.523438 94.050781 68.929688 94.050781 68.171875 C 94.023438 67.449219 94 66.570312 93.976562 66.222656 C 93.949219 65.875 94 65.375 94.101562 65.089844 C 94.226562 64.742188 94.125 64.398438 93.875 64.148438 C 92.601562 62.824219 91.5 61.34375 91.5 60.90625 C 91.5 60.214844 92.175781 60.277344 92.925781 61 C 93.851562 61.945312 96.074219 62.667969 96.800781 62.320312 C 97.125 62.132812 98.023438 61.851562 98.800781 61.660156 C 99.574219 61.472656 100.351562 61.125 100.5 60.875 C 100.949219 60.179688 100.550781 59.207031 99.601562 58.765625 C 99.148438 58.578125 98.75 58.265625 98.75 58.105469 C 98.75 57.980469 99.101562 57.476562 99.5 57.039062 C 100.5 55.96875 100.449219 55.683594 99.199219 55.683594 C 98.148438 55.683594 96.199219 54.804688 95.898438 54.171875 C 95.824219 54.015625 95.476562 53.953125 95.125 54.046875 C 94.574219 54.171875 94.5 54.078125 94.5 53.230469 C 94.5 52.695312 94.675781 52.128906 94.875 52.003906 C 95.074219 51.84375 95.476562 51.1875 95.75 50.492188 C 96.300781 49.171875 96.050781 48.289062 95.226562 48.605469 C 94.675781 48.828125 94.300781 48.164062 94.773438 47.789062 C 94.976562 47.632812 95.648438 47.503906 96.300781 47.503906 C 97.648438 47.503906 98.101562 47.03125 97 46.75 C 96.324219 46.59375 95.898438 45.617188 96.5 45.617188 C 96.824219 45.617188 97.300781 43.195312 97.125 42.4375 C 96.925781 41.683594 96.449219 41.367188 94.351562 40.550781 C 93.351562 40.140625 92.75 39.765625 92.824219 39.546875 C 92.875 39.324219 93.125 38.351562 93.351562 37.375 C 93.625 36.210938 93.925781 35.515625 94.226562 35.390625 C 94.5 35.296875 95.5 35.675781 96.625 36.335938 C 98.449219 37.375 98.601562 37.40625 99.023438 36.933594 C 99.273438 36.648438 99.425781 36.273438 99.351562 36.117188 C 99.023438 35.453125 99.5 34.351562 100.226562 34.195312 C 100.625 34.070312 100.976562 33.757812 101.050781 33.410156 C 101.175781 32.84375 101.300781 32.84375 104.023438 33.21875 C 105.601562 33.441406 107.023438 33.632812 107.175781 33.632812 C 107.351562 33.664062 107.574219 34.039062 107.648438 34.511719 C 107.875 35.707031 108.226562 36.179688 108.851562 36.179688 C 109.125 36.179688 109.726562 36.460938 110.125 36.808594 C 110.824219 37.375 111.75 37.65625 111.75 37.28125 C 111.75 37.1875 111.601562 36.839844 111.449219 36.492188 C 111.226562 36.023438 111.199219 35.800781 111.425781 35.515625 C 111.800781 35.046875 112.25 35.421875 112.25 36.273438 C 112.273438 37.125 112.875 38.191406 113.199219 37.941406 C 113.351562 37.84375 113.398438 37.5 113.324219 37.1875 C 113.199219 36.554688 114.324219 35.359375 114.726562 35.675781 C 114.824219 35.769531 114.875 35.515625 114.824219 35.109375 C 114.726562 34.574219 114.851562 34.320312 115.25 34.195312 C 115.726562 34.039062 115.75 33.945312 115.476562 33.285156 C 115.300781 32.90625 114.898438 32.308594 114.574219 31.992188 C 114 31.429688 113.25 30.011719 113.675781 30.265625 C 113.773438 30.328125 114.175781 30.578125 114.550781 30.796875 C 114.898438 31.050781 115.273438 31.492188 115.324219 31.804688 C 115.398438 32.152344 115.625 32.40625 115.851562 32.40625 C 116.226562 32.40625 116.25 31.867188 116.199219 27.78125 L 116.125 23.15625 L 115.5 22.964844 C 114.925781 22.777344 114.898438 22.746094 115.324219 22.460938 C 115.625 22.242188 115.773438 21.867188 115.699219 21.359375 C 115.648438 20.765625 115.375 20.511719 114.449219 20.164062 C 113.773438 19.914062 113.25 19.539062 113.25 19.347656 C 113.25 19.15625 113.125 18.84375 112.949219 18.625 C 112.726562 18.34375 112.550781 18.375 112.226562 18.75 C 111.851562 19.191406 111.800781 19.15625 111.648438 18.40625 C 111.523438 17.742188 111.351562 17.617188 110.625 17.617188 C 110 17.617188 109.75 17.742188 109.75 18.121094 C 109.75 18.40625 109.601562 18.5625 109.449219 18.46875 C 109.148438 18.34375 108.75 18.183594 106.398438 17.273438 C 105.898438 17.082031 105.550781 17.113281 105.324219 17.367188 C 105.074219 17.617188 104.75 17.617188 104.050781 17.367188 C 102.175781 16.640625 101.199219 16.390625 100.851562 16.578125 C 100.101562 16.925781 100.773438 17.929688 101.773438 17.929688 C 102.148438 17.929688 102.574219 18.152344 102.75 18.40625 C 102.925781 18.65625 103.273438 18.875 103.550781 18.875 C 103.824219 18.875 104.550781 19.285156 105.175781 19.820312 C 105.773438 20.320312 106.324219 20.765625 106.398438 20.765625 C 106.851562 20.765625 109.675781 24.476562 110.074219 25.546875 C 110.226562 26.046875 110.449219 26.425781 110.523438 26.425781 C 110.625 26.425781 110.773438 27.242188 110.875 28.21875 C 110.976562 29.257812 111.375 30.828125 111.800781 31.867188 C 112.375 33.253906 112.5 33.789062 112.273438 34.070312 C 111.851562 34.605469 111.199219 33.976562 110.949219 32.78125 C 110.726562 31.742188 110.523438 31.554688 110.101562 32.089844 C 109.925781 32.308594 109.574219 32.121094 109.023438 31.523438 C 106.824219 29.257812 105.976562 28.46875 105.25 28.125 C 105.050781 28.03125 104.5 27.75 104.050781 27.496094 C 103.601562 27.242188 103.074219 27.054688 102.851562 27.054688 C 102.648438 27.054688 102.199219 26.804688 101.851562 26.523438 C 101.300781 26.078125 100.5 25.984375 96.851562 26.015625 C 93.875 26.015625 92.375 26.140625 92.199219 26.363281 C 91.851562 26.804688 90.5 26.867188 90.5 26.457031 C 90.5 26.300781 90.75 26.078125 91.074219 25.953125 C 91.601562 25.734375 91.601562 25.734375 91.125 25.578125 C 90.875 25.484375 90.601562 25.578125 90.550781 25.765625 C 90.449219 26.140625 89.449219 26.238281 89.175781 25.921875 C 88.175781 24.664062 93.550781 22.648438 97.976562 22.648438 C 101.125 22.648438 103.199219 23.34375 106.699219 25.515625 C 109.851562 27.464844 110.375 27.304688 108.75 24.851562 C 107.175781 22.492188 105.273438 21.015625 101.773438 19.347656 C 100.300781 18.65625 94.625 18.625 93.449219 19.316406 C 93 19.570312 92.226562 19.914062 91.75 20.070312 C 91.273438 20.257812 90.675781 20.480469 90.449219 20.605469 C 90.175781 20.734375 90 20.703125 90 20.480469 C 90 20.289062 90.175781 20.132812 90.375 20.132812 C 90.601562 20.132812 90.824219 19.914062 90.898438 19.664062 C 91 19.410156 91.175781 19.191406 91.351562 19.191406 C 91.5 19.191406 91.925781 19 92.273438 18.75 C 92.625 18.53125 93.324219 18.246094 93.824219 18.121094 C 94.5 17.960938 94.75 17.742188 94.75 17.335938 C 94.75 16.796875 94.949219 16.765625 96.976562 16.925781 C 98.476562 17.019531 99.226562 16.957031 99.351562 16.703125 C 99.476562 16.484375 99.300781 16.359375 98.898438 16.359375 C 98.550781 16.359375 98.226562 16.234375 98.148438 16.078125 C 98.074219 15.949219 97.5 15.855469 96.898438 15.917969 C 95.976562 16.015625 95.699219 15.886719 95.398438 15.382812 C 95.199219 15.007812 94.925781 14.820312 94.75 14.945312 C 94.25 15.320312 93.75 14.46875 93.925781 13.496094 C 94 12.960938 93.925781 12.207031 93.75 11.765625 C 93.449219 11.105469 93.476562 10.914062 93.949219 10.289062 C 94.25 9.878906 94.5 9.3125 94.5 9.03125 C 94.5 8.746094 94.726562 8.367188 95 8.179688 C 95.976562 7.519531 95.601562 6.921875 94.25 6.921875 C 93.300781 6.921875 93 7.046875 93 7.390625 Z M 93 7.390625 "/>
<path style=" stroke:none;fill-rule:nonzero;fill:rgb(0%,0%,0%);fill-opacity:1;" d="M 98.324219 67.890625 C 97.875 69.054688 97.5 70.15625 97.5 70.34375 C 97.5 70.65625 100.375 76.289062 101.050781 77.296875 C 101.648438 78.210938 101.699219 77.234375 101.125 75.597656 C 100.773438 74.65625 100.5 73.269531 100.5 72.578125 C 100.5 71.539062 100.351562 71.164062 99.699219 70.46875 C 98.800781 69.523438 98.824219 68.359375 99.75 68.742188 C 100.023438 68.867188 100.25 68.804688 100.25 68.613281 C 100.25 68.425781 100.148438 68.265625 100.023438 68.265625 C 99.898438 68.265625 99.726562 67.703125 99.625 67.007812 C 99.523438 66.316406 99.375 65.75 99.300781 65.75 C 99.199219 65.75 98.75 66.695312 98.324219 67.890625 Z M 98.324219 67.890625 "/>
<path style=" stroke:none;fill-rule:nonzero;fill:rgb(0%,0%,0%);fill-opacity:1;" d="M 89.5 74.9375 C 89.148438 75.125 88.148438 75.28125 87.25 75.3125 C 86.351562 75.3125 85.648438 75.472656 85.648438 75.597656 C 85.726562 76.132812 88.148438 80.347656 89 81.449219 C 89.476562 82.078125 90.398438 83.117188 91.050781 83.777344 C 91.699219 84.4375 92.476562 85.476562 92.75 86.042969 C 93.050781 86.640625 94.101562 88.179688 95.125 89.46875 C 96.125 90.730469 97.601562 93.058594 98.398438 94.570312 C 100.101562 97.808594 100.5 98.46875 100.875 98.46875 C 101.023438 98.46875 101.601562 99.003906 102.148438 99.695312 C 102.699219 100.359375 103.574219 101.140625 104.101562 101.457031 L 105.023438 102.023438 L 105.898438 100.953125 C 106.375 100.390625 106.75 99.695312 106.75 99.414062 C 106.75 99.128906 105.875 97.808594 104.824219 96.453125 L 102.875 94 L 103.949219 94.191406 C 105.199219 94.410156 105.351562 93.9375 104.351562 92.835938 L 103.726562 92.148438 L 104.773438 90.007812 L 104.25 89.660156 C 103.800781 89.375 103.75 89.125 103.898438 88.304688 C 103.976562 87.773438 104.351562 86.765625 104.675781 86.105469 C 105.75 83.96875 105.675781 81.796875 104.574219 82.234375 C 104.175781 82.390625 104.050781 82.804688 103.925781 84.09375 C 103.800781 85.570312 103.175781 87.492188 102.449219 88.621094 C 102.273438 88.90625 101.726562 88.589844 100.398438 87.425781 C 99.398438 86.578125 98.5 85.882812 98.425781 85.882812 C 98.324219 85.882812 97.398438 85.097656 96.351562 84.125 C 95.324219 83.148438 94 82.109375 93.425781 81.765625 C 92.851562 81.417969 92.199219 81.007812 92 80.851562 C 91.273438 80.316406 89.925781 79.59375 89.601562 79.59375 C 89.425781 79.59375 89.148438 79.3125 88.976562 78.929688 C 88.75 78.367188 88.824219 78.117188 89.601562 77.109375 C 90.875 75.472656 90.800781 74.277344 89.5 74.9375 Z M 89.5 74.9375 "/>
<path style=" stroke:none;fill-rule:nonzero;fill:rgb(0%,0%,0%);fill-opacity:1;" d="M 110.75 86.421875 C 109.523438 86.921875 109.175781 87.109375 107.5 88.085938 C 104.726562 89.753906 104.625 89.914062 105.625 90.730469 C 106.101562 91.140625 106.25 91.515625 106.25 92.429688 C 106.25 93.59375 106.273438 93.625 107 93.5 C 108.300781 93.246094 108.425781 92.617188 107.398438 91.421875 C 106.324219 90.132812 106.273438 89.660156 107.148438 89.660156 C 107.5 89.660156 108.773438 89.03125 109.949219 88.273438 C 111.148438 87.523438 112.375 86.796875 112.699219 86.671875 C 113 86.578125 113.199219 86.328125 113.125 86.167969 C 112.925781 85.789062 112.101562 85.851562 110.75 86.421875 Z M 110.75 86.421875 "/>
<path style=" stroke:none;fill-rule:nonzero;fill:rgb(0%,0%,0%);fill-opacity:1;" d="M 115.898438 90.226562 C 115.800781 90.539062 115.851562 91.484375 116 92.367188 C 116.148438 93.214844 116.324219 94.378906 116.425781 94.976562 L 116.574219 96.046875 L 118.300781 95.828125 C 119.699219 95.671875 120.050781 95.734375 120.148438 96.109375 C 120.25 96.359375 120.449219 96.582031 120.625 96.582031 C 120.824219 96.582031 121.125 96.769531 121.300781 96.992188 C 122.25 98.125 123.101562 98.53125 124.175781 98.375 C 126.375 98.0625 127.800781 99.257812 127.375 100.984375 C 127.300781 101.300781 127.125 104.164062 126.976562 107.339844 C 126.851562 110.484375 126.675781 113.757812 126.601562 114.546875 L 126.449219 116.023438 L 127.925781 116.398438 C 128.726562 116.589844 130.398438 116.875 131.625 117 C 132.875 117.125 134.125 117.375 134.425781 117.59375 C 134.726562 117.816406 135.199219 117.976562 135.5 117.976562 C 135.800781 117.976562 136.375 118.382812 136.75 118.917969 C 137.125 119.421875 137.550781 119.859375 137.699219 119.859375 C 137.824219 119.859375 138.273438 120.082031 138.648438 120.335938 C 139.074219 120.617188 139.648438 120.742188 140.074219 120.617188 C 141.023438 120.367188 141.800781 121.085938 142.351562 122.726562 C 142.601562 123.476562 142.949219 124.515625 143.148438 124.992188 C 143.351562 125.492188 143.5 126.027344 143.5 126.1875 C 143.5 126.84375 145.351562 129.296875 145.601562 128.984375 C 145.925781 128.578125 146 125.742188 145.699219 125.492188 C 145.550781 125.367188 145.425781 124.925781 145.425781 124.515625 C 145.398438 124.046875 145.226562 123.730469 145 123.761719 C 144.75 123.796875 144.648438 123.542969 144.675781 123.070312 C 144.726562 122.566406 144.601562 122.378906 144.273438 122.378906 C 144.023438 122.378906 143.398438 121.75 142.851562 120.960938 C 142.324219 120.175781 141.699219 119.546875 141.425781 119.546875 C 141.175781 119.546875 141.050781 119.390625 141.125 119.234375 C 141.351562 118.757812 141.976562 118.855469 142.398438 119.390625 C 142.625 119.640625 143 119.859375 143.273438 119.859375 C 143.523438 119.859375 143.75 119.988281 143.75 120.175781 C 143.75 120.335938 143.976562 120.492188 144.25 120.492188 C 144.523438 120.492188 144.75 120.335938 144.75 120.175781 C 144.75 119.988281 144.523438 119.859375 144.25 119.859375 C 144 119.859375 143.675781 119.671875 143.574219 119.453125 C 143.375 119.074219 142.925781 118.695312 141.625 117.785156 C 139.773438 116.496094 137.050781 113.289062 136.324219 111.554688 C 135.5 109.605469 136.074219 106.019531 137.273438 105.546875 C 137.523438 105.421875 137.75 105.171875 137.75 104.980469 C 137.75 104.539062 137.273438 104.132812 135.023438 102.652344 C 133.574219 101.710938 133.25 101.617188 131.226562 101.617188 C 129.050781 101.617188 129 101.585938 129.050781 100.890625 C 129.125 99.882812 128.074219 97.871094 127.300781 97.492188 C 126.976562 97.335938 126.324219 97.273438 125.875 97.398438 C 125.273438 97.523438 124.726562 97.367188 123.773438 96.738281 C 123.074219 96.296875 122.398438 95.984375 122.300781 96.078125 C 122.199219 96.140625 121.726562 95.953125 121.25 95.605469 C 120.773438 95.289062 120.175781 94.945312 119.949219 94.820312 C 119.699219 94.726562 119.5 94.507812 119.5 94.347656 C 119.5 94.191406 118.898438 93.5 118.148438 92.804688 C 117.226562 91.925781 116.773438 91.234375 116.648438 90.601562 C 116.5 89.535156 116.101562 89.375 115.898438 90.226562 Z M 115.898438 90.226562 "/>
<path style=" stroke:none;fill-rule:nonzero;fill:rgb(0%,0%,0%);fill-opacity:1;" d="M 106.773438 101.488281 C 105.824219 102.496094 105.800781 103.4375 106.699219 104.507812 C 107.824219 105.890625 108.5 105.925781 109.5 104.601562 L 110.375 103.46875 L 109.199219 102.054688 C 108.550781 101.300781 107.925781 100.671875 107.773438 100.671875 C 107.648438 100.671875 107.199219 101.046875 106.773438 101.488281 Z M 106.773438 101.488281 "/>
<path style=" stroke:none;fill-rule:nonzero;fill:rgb(0%,0%,0%);fill-opacity:1;" d="M 104.175781 104.070312 C 103.675781 104.761719 103.625 105.390625 104.074219 105.390625 C 104.375 105.390625 106.25 106.960938 106.949219 107.8125 C 107.125 108.03125 107.5 108.21875 107.773438 108.21875 C 108.75 108.21875 113.074219 112.40625 113.398438 113.632812 C 113.601562 114.484375 114.398438 114.578125 116.851562 114.039062 C 118.074219 113.789062 119.101562 113.570312 119.148438 113.570312 C 119.199219 113.570312 119.25 113.382812 119.25 113.160156 C 119.25 112.90625 118.976562 112.5625 118.625 112.375 C 118.273438 112.1875 118 111.871094 118 111.710938 C 118 111.554688 117.5 111.117188 116.898438 110.738281 C 116.273438 110.390625 114.800781 108.882812 113.574219 107.4375 C 112.375 105.957031 111.273438 104.761719 111.175781 104.761719 C 111.074219 104.761719 110.726562 105.078125 110.425781 105.484375 C 110.101562 105.859375 109.550781 106.429688 109.175781 106.742188 C 108.375 107.40625 108.273438 107.339844 106.25 104.980469 C 105.550781 104.164062 104.875 103.5 104.773438 103.5 C 104.675781 103.5 104.398438 103.753906 104.175781 104.070312 Z M 104.175781 104.070312 "/>
<path style=" stroke:none;fill-rule:nonzero;fill:rgb(0%,0%,0%);fill-opacity:1;" d="M 92.75 105.546875 C 92.75 105.796875 92.976562 106.144531 93.25 106.335938 C 93.601562 106.554688 93.75 106.992188 93.75 107.6875 C 93.75 108.851562 94.601562 111.367188 95 111.367188 C 95.125 111.367188 95.25 111.585938 95.25 111.839844 C 95.25 112.09375 95.074219 112.3125 94.875 112.3125 C 94.351562 112.3125 94.101562 113.257812 94.523438 113.601562 C 95 113.976562 95.148438 113.945312 95.601562 113.382812 C 95.949219 112.972656 96 112.972656 96 113.351562 C 96 113.820312 96.5 114.199219 97.074219 114.199219 C 97.300781 114.199219 97.351562 113.414062 97.273438 111.492188 C 97.226562 109.289062 97.074219 108.570312 96.625 107.71875 C 96.300781 107.121094 96 106.492188 95.949219 106.335938 C 95.875 106.019531 95.074219 105.671875 94.074219 105.578125 C 93.75 105.515625 93.425781 105.390625 93.324219 105.296875 C 93.050781 104.917969 92.75 105.046875 92.75 105.546875 Z M 92.75 105.546875 "/>
<path style=" stroke:none;fill-rule:nonzero;fill:rgb(0%,0%,0%);fill-opacity:1;" d="M 102.824219 143.644531 C 102.75 143.929688 102.851562 144.554688 103.101562 145.03125 C 103.324219 145.53125 103.425781 146.132812 103.351562 146.414062 C 103.25 146.726562 103.375 146.980469 103.648438 147.136719 C 104.25 147.390625 105.5 149.117188 105.5 149.65625 C 105.5 149.9375 105.898438 150.0625 106.875 150.0625 C 108.175781 150.0625 108.25 150.03125 108.25 149.277344 C 108.25 148.742188 108.050781 148.363281 107.625 148.113281 C 107.273438 147.921875 107 147.515625 107 147.199219 C 107 146.882812 106.699219 146.226562 106.351562 145.6875 C 105.824219 144.90625 105.523438 144.714844 104.726562 144.714844 C 104.023438 144.714844 103.75 144.589844 103.75 144.242188 C 103.75 143.804688 104.023438 143.644531 104.699219 143.742188 C 104.851562 143.773438 105 143.644531 105 143.457031 C 105 142.921875 103 143.078125 102.824219 143.644531 Z M 102.824219 143.644531 "/>
</g>
</svg>
