<?xml version="1.0" encoding="UTF-8"?>
<svg xmlns="http://www.w3.org/2000/svg" xmlns:xlink="http://www.w3.org/1999/xlink" width="6px" height="5px" viewBox="0 0 6 5" version="1.1">
<g id="surface1">
<path style=" stroke:none;fill-rule:nonzero;fill:rgb(0%,0%,0%);fill-opacity:1;" d="M 0.117188 0.101562 C 0.113281 0.109375 0.109375 0.140625 0.109375 0.167969 C 0.109375 0.207031 0.113281 0.21875 0.125 0.21875 C 0.132812 0.21875 0.164062 0.25 0.199219 0.285156 L 0.265625 0.351562 L 0.21875 0.355469 C 0.171875 0.359375 0.171875 0.359375 0.171875 0.390625 C 0.171875 0.425781 0.210938 0.472656 0.242188 0.472656 C 0.25 0.472656 0.261719 0.480469 0.261719 0.488281 C 0.261719 0.496094 0.265625 0.503906 0.273438 0.503906 C 0.28125 0.503906 0.289062 0.507812 0.289062 0.511719 C 0.289062 0.515625 0.308594 0.527344 0.328125 0.539062 C 0.351562 0.550781 0.371094 0.5625 0.371094 0.574219 C 0.371094 0.585938 0.386719 0.59375 0.417969 0.589844 C 0.425781 0.585938 0.429688 0.59375 0.429688 0.601562 C 0.429688 0.613281 0.4375 0.617188 0.445312 0.617188 C 0.453125 0.617188 0.464844 0.625 0.464844 0.632812 C 0.46875 0.644531 0.484375 0.648438 0.496094 0.648438 C 0.507812 0.648438 0.519531 0.65625 0.519531 0.660156 C 0.519531 0.675781 0.59375 0.746094 0.605469 0.742188 C 0.613281 0.738281 0.628906 0.742188 0.636719 0.753906 C 0.644531 0.761719 0.664062 0.769531 0.675781 0.769531 C 0.691406 0.765625 0.703125 0.769531 0.707031 0.78125 C 0.710938 0.789062 0.722656 0.796875 0.742188 0.796875 C 0.757812 0.796875 0.773438 0.804688 0.777344 0.8125 C 0.78125 0.824219 0.796875 0.828125 0.835938 0.828125 C 0.894531 0.828125 0.921875 0.835938 0.914062 0.851562 C 0.910156 0.855469 0.933594 0.859375 0.960938 0.859375 C 0.996094 0.859375 1.011719 0.863281 1.011719 0.875 C 1.011719 0.882812 1.019531 0.886719 1.035156 0.882812 C 1.0625 0.878906 1.0625 0.878906 1.054688 0.90625 C 1.050781 0.925781 1.042969 0.941406 1.035156 0.945312 C 1.007812 0.960938 1.019531 0.992188 1.066406 1.03125 C 1.089844 1.054688 1.109375 1.082031 1.109375 1.09375 C 1.109375 1.105469 1.121094 1.125 1.136719 1.136719 C 1.148438 1.148438 1.160156 1.171875 1.160156 1.183594 C 1.160156 1.191406 1.171875 1.210938 1.191406 1.226562 C 1.210938 1.242188 1.21875 1.257812 1.21875 1.273438 C 1.21875 1.289062 1.226562 1.300781 1.230469 1.300781 C 1.246094 1.300781 1.28125 1.339844 1.28125 1.363281 C 1.28125 1.371094 1.289062 1.390625 1.304688 1.402344 C 1.320312 1.410156 1.328125 1.429688 1.328125 1.441406 C 1.328125 1.449219 1.351562 1.480469 1.375 1.507812 C 1.398438 1.53125 1.421875 1.558594 1.421875 1.566406 C 1.421875 1.574219 1.4375 1.601562 1.460938 1.625 C 1.480469 1.644531 1.5 1.671875 1.5 1.683594 C 1.5 1.695312 1.519531 1.71875 1.546875 1.742188 C 1.570312 1.765625 1.589844 1.792969 1.589844 1.800781 C 1.589844 1.808594 1.597656 1.8125 1.605469 1.8125 C 1.613281 1.8125 1.621094 1.820312 1.621094 1.824219 C 1.621094 1.828125 1.628906 1.835938 1.636719 1.835938 C 1.644531 1.835938 1.648438 1.84375 1.648438 1.863281 C 1.648438 1.875 1.65625 1.890625 1.664062 1.894531 C 1.671875 1.898438 1.675781 1.910156 1.671875 1.925781 C 1.671875 1.9375 1.671875 1.949219 1.675781 1.949219 C 1.699219 1.949219 1.761719 2.023438 1.761719 2.050781 C 1.761719 2.066406 1.765625 2.078125 1.769531 2.078125 C 1.785156 2.078125 1.847656 2.144531 1.84375 2.15625 C 1.839844 2.164062 1.859375 2.191406 1.882812 2.21875 C 1.910156 2.242188 1.929688 2.269531 1.929688 2.28125 C 1.929688 2.289062 1.949219 2.316406 1.972656 2.339844 C 1.996094 2.363281 2.015625 2.390625 2.011719 2.398438 C 2.011719 2.410156 2.023438 2.429688 2.039062 2.441406 C 2.0625 2.457031 2.070312 2.472656 2.070312 2.496094 C 2.070312 2.511719 2.074219 2.527344 2.085938 2.53125 C 2.09375 2.535156 2.101562 2.550781 2.101562 2.566406 C 2.101562 2.585938 2.105469 2.601562 2.113281 2.605469 C 2.121094 2.609375 2.128906 2.617188 2.128906 2.625 C 2.128906 2.632812 2.144531 2.65625 2.160156 2.675781 C 2.175781 2.691406 2.191406 2.714844 2.1875 2.71875 C 2.1875 2.75 2.191406 2.757812 2.214844 2.757812 C 2.226562 2.757812 2.246094 2.773438 2.261719 2.789062 C 2.273438 2.808594 2.289062 2.820312 2.296875 2.820312 C 2.304688 2.820312 2.3125 2.828125 2.316406 2.835938 C 2.320312 2.84375 2.328125 2.847656 2.339844 2.84375 C 2.351562 2.839844 2.363281 2.847656 2.375 2.871094 C 2.382812 2.890625 2.398438 2.90625 2.410156 2.910156 C 2.421875 2.914062 2.429688 2.921875 2.429688 2.925781 C 2.429688 2.933594 2.4375 2.9375 2.445312 2.9375 C 2.453125 2.9375 2.496094 2.976562 2.542969 3.023438 C 2.589844 3.074219 2.636719 3.113281 2.644531 3.113281 C 2.652344 3.113281 2.679688 3.136719 2.699219 3.160156 C 2.722656 3.1875 2.746094 3.207031 2.753906 3.203125 C 2.761719 3.203125 2.785156 3.222656 2.8125 3.25 C 2.851562 3.292969 2.859375 3.308594 2.859375 3.335938 C 2.859375 3.359375 2.867188 3.375 2.875 3.382812 C 2.886719 3.386719 2.890625 3.402344 2.890625 3.460938 C 2.890625 3.515625 2.894531 3.53125 2.902344 3.53125 C 2.910156 3.53125 2.914062 3.558594 2.917969 3.640625 C 2.921875 3.730469 2.925781 3.753906 2.933594 3.753906 C 2.945312 3.753906 2.949219 3.769531 2.949219 3.828125 C 2.949219 3.898438 2.953125 3.902344 2.980469 3.929688 C 3.015625 3.960938 3.015625 3.992188 2.976562 4.027344 C 2.964844 4.039062 2.949219 4.058594 2.949219 4.070312 C 2.949219 4.078125 2.9375 4.097656 2.921875 4.109375 C 2.898438 4.128906 2.890625 4.144531 2.890625 4.175781 C 2.890625 4.199219 2.882812 4.214844 2.875 4.21875 C 2.839844 4.234375 2.871094 4.296875 2.910156 4.292969 C 2.9375 4.285156 2.9375 4.367188 2.910156 4.378906 C 2.878906 4.386719 2.863281 4.410156 2.878906 4.429688 C 2.890625 4.441406 2.886719 4.453125 2.871094 4.492188 C 2.84375 4.542969 2.808594 4.582031 2.800781 4.578125 C 2.785156 4.566406 2.789062 4.53125 2.804688 4.523438 C 2.8125 4.519531 2.820312 4.507812 2.820312 4.492188 C 2.820312 4.46875 2.835938 4.425781 2.851562 4.414062 C 2.851562 4.410156 2.863281 4.390625 2.878906 4.367188 L 2.898438 4.320312 L 2.871094 4.320312 C 2.839844 4.320312 2.808594 4.339844 2.808594 4.363281 C 2.808594 4.382812 2.777344 4.425781 2.761719 4.425781 C 2.753906 4.425781 2.75 4.4375 2.75 4.453125 C 2.75 4.464844 2.742188 4.480469 2.734375 4.484375 C 2.726562 4.488281 2.71875 4.5 2.71875 4.515625 C 2.71875 4.527344 2.714844 4.539062 2.703125 4.542969 C 2.695312 4.546875 2.691406 4.5625 2.691406 4.574219 C 2.691406 4.585938 2.679688 4.605469 2.664062 4.621094 C 2.652344 4.632812 2.640625 4.652344 2.640625 4.664062 C 2.640625 4.675781 2.632812 4.6875 2.625 4.691406 C 2.613281 4.695312 2.609375 4.710938 2.609375 4.738281 C 2.609375 4.769531 2.605469 4.78125 2.59375 4.78125 C 2.585938 4.78125 2.578125 4.796875 2.578125 4.839844 C 2.578125 4.878906 2.574219 4.894531 2.566406 4.902344 C 2.554688 4.90625 2.550781 4.921875 2.550781 4.953125 L 2.550781 5.003906 L 3.128906 5.003906 L 3.144531 4.90625 C 3.164062 4.785156 3.164062 4.765625 3.144531 4.75 C 3.125 4.734375 3.125 4.707031 3.148438 4.699219 C 3.160156 4.699219 3.164062 4.691406 3.164062 4.679688 C 3.160156 4.667969 3.164062 4.652344 3.175781 4.648438 C 3.183594 4.636719 3.191406 4.621094 3.191406 4.605469 C 3.191406 4.585938 3.1875 4.582031 3.171875 4.585938 C 3.164062 4.589844 3.136719 4.597656 3.109375 4.605469 C 3.085938 4.609375 3.050781 4.621094 3.035156 4.625 C 3.015625 4.632812 2.984375 4.636719 2.964844 4.636719 C 2.933594 4.636719 2.929688 4.632812 2.941406 4.621094 C 2.945312 4.609375 2.960938 4.605469 2.96875 4.605469 C 2.976562 4.605469 2.976562 4.597656 2.972656 4.585938 C 2.957031 4.5625 2.96875 4.523438 2.992188 4.515625 C 3.011719 4.511719 3.011719 4.507812 3 4.496094 C 2.992188 4.484375 2.988281 4.46875 2.996094 4.449219 C 3 4.433594 3.003906 4.414062 3 4.40625 C 3 4.402344 3.007812 4.394531 3.019531 4.386719 C 3.03125 4.382812 3.050781 4.371094 3.066406 4.359375 C 3.085938 4.339844 3.089844 4.328125 3.085938 4.300781 C 3.078125 4.265625 3.089844 4.25 3.117188 4.265625 C 3.132812 4.273438 3.136719 4.285156 3.132812 4.308594 C 3.128906 4.347656 3.144531 4.371094 3.179688 4.371094 C 3.191406 4.371094 3.21875 4.382812 3.234375 4.394531 C 3.261719 4.410156 3.269531 4.421875 3.273438 4.453125 C 3.277344 4.480469 3.273438 4.5 3.265625 4.511719 C 3.257812 4.519531 3.25 4.535156 3.25 4.546875 C 3.25 4.558594 3.242188 4.578125 3.234375 4.589844 C 3.226562 4.597656 3.21875 4.621094 3.21875 4.636719 C 3.21875 4.648438 3.210938 4.675781 3.199219 4.695312 C 3.1875 4.71875 3.183594 4.734375 3.191406 4.757812 C 3.195312 4.773438 3.203125 4.835938 3.210938 4.894531 L 3.222656 5.003906 L 3.757812 5.003906 L 3.761719 4.972656 C 3.765625 4.957031 3.773438 4.945312 3.78125 4.941406 C 3.796875 4.9375 3.800781 4.945312 3.800781 4.96875 C 3.800781 5 3.804688 5.003906 3.828125 5.003906 L 3.859375 5.003906 L 3.859375 4.90625 C 3.859375 4.851562 3.863281 4.78125 3.867188 4.753906 C 3.871094 4.699219 3.875 4.695312 3.898438 4.703125 C 3.910156 4.707031 3.941406 4.722656 3.960938 4.742188 C 3.996094 4.769531 4.003906 4.773438 4.046875 4.765625 C 4.074219 4.765625 4.097656 4.753906 4.101562 4.742188 C 4.109375 4.730469 4.121094 4.730469 4.144531 4.734375 C 4.183594 4.742188 4.265625 4.710938 4.277344 4.683594 C 4.289062 4.648438 4.351562 4.65625 4.371094 4.691406 C 4.375 4.699219 4.402344 4.71875 4.433594 4.734375 C 4.476562 4.753906 4.496094 4.761719 4.519531 4.753906 C 4.535156 4.75 4.566406 4.753906 4.582031 4.757812 C 4.601562 4.765625 4.640625 4.777344 4.675781 4.78125 C 4.707031 4.789062 4.734375 4.804688 4.738281 4.808594 C 4.738281 4.816406 4.738281 4.855469 4.734375 4.894531 C 4.71875 5.003906 4.71875 5.003906 4.816406 5.003906 C 4.867188 5.003906 4.898438 4.996094 4.898438 4.992188 C 4.898438 4.984375 4.882812 4.957031 4.855469 4.929688 C 4.808594 4.875 4.773438 4.808594 4.789062 4.796875 C 4.800781 4.792969 4.921875 4.863281 4.984375 4.914062 C 5.003906 4.925781 5.03125 4.941406 5.046875 4.945312 C 5.074219 4.953125 5.078125 4.949219 5.078125 4.929688 C 5.078125 4.917969 5.078125 4.910156 5.074219 4.910156 C 5.039062 4.914062 5.039062 4.90625 5.046875 4.839844 C 5.050781 4.773438 5.050781 4.769531 5.03125 4.769531 C 5.015625 4.769531 5.011719 4.765625 5.011719 4.75 C 5.011719 4.722656 5.023438 4.714844 5.039062 4.734375 C 5.050781 4.75 5.066406 4.75 5.101562 4.746094 C 5.148438 4.738281 5.15625 4.742188 5.152344 4.777344 C 5.148438 4.78125 5.171875 4.78125 5.199219 4.78125 C 5.246094 4.773438 5.253906 4.777344 5.257812 4.792969 C 5.261719 4.8125 5.273438 4.8125 5.355469 4.8125 C 5.441406 4.8125 5.449219 4.8125 5.453125 4.792969 C 5.457031 4.773438 5.464844 4.769531 5.507812 4.777344 C 5.539062 4.78125 5.550781 4.78125 5.546875 4.773438 C 5.542969 4.765625 5.546875 4.757812 5.554688 4.753906 C 5.585938 4.742188 5.640625 4.675781 5.636719 4.660156 C 5.628906 4.640625 5.582031 4.609375 5.570312 4.621094 C 5.5625 4.625 5.5625 4.632812 5.5625 4.640625 C 5.566406 4.648438 5.5625 4.664062 5.554688 4.671875 C 5.546875 4.6875 5.535156 4.691406 5.503906 4.683594 C 5.480469 4.679688 5.457031 4.683594 5.441406 4.691406 C 5.417969 4.703125 5.398438 4.707031 5.339844 4.695312 C 5.296875 4.691406 5.25 4.683594 5.230469 4.683594 C 5.210938 4.679688 5.175781 4.671875 5.160156 4.664062 C 5.140625 4.652344 5.089844 4.632812 5.050781 4.621094 C 4.949219 4.585938 4.910156 4.570312 4.871094 4.546875 C 4.835938 4.527344 4.769531 4.5 4.695312 4.472656 L 4.65625 4.460938 L 4.65625 4.292969 C 4.660156 4.011719 4.632812 3.863281 4.570312 3.84375 C 4.527344 3.828125 4.480469 3.835938 4.453125 3.855469 C 4.429688 3.871094 4.417969 3.875 4.40625 3.867188 C 4.394531 3.859375 4.371094 3.863281 4.332031 3.875 C 4.300781 3.882812 4.265625 3.894531 4.25 3.898438 C 4.234375 3.902344 4.21875 3.910156 4.207031 3.917969 C 4.199219 3.929688 4.183594 3.933594 4.171875 3.925781 C 4.15625 3.921875 4.15625 3.917969 4.183594 3.90625 C 4.199219 3.898438 4.210938 3.886719 4.210938 3.882812 C 4.210938 3.875 4.21875 3.867188 4.234375 3.863281 C 4.25 3.859375 4.25 3.855469 4.238281 3.851562 C 4.230469 3.847656 4.222656 3.839844 4.21875 3.832031 C 4.207031 3.816406 4.160156 3.8125 4.160156 3.828125 C 4.160156 3.847656 4.117188 3.839844 4.085938 3.8125 C 4.039062 3.777344 4.023438 3.773438 4.011719 3.796875 C 3.996094 3.820312 3.976562 3.824219 3.96875 3.804688 C 3.964844 3.796875 3.972656 3.761719 3.980469 3.726562 C 4.003906 3.65625 4.027344 3.429688 4.015625 3.371094 C 4.003906 3.304688 3.980469 3.335938 3.980469 3.425781 C 3.980469 3.449219 3.972656 3.488281 3.964844 3.515625 C 3.941406 3.59375 3.921875 3.707031 3.921875 3.753906 C 3.921875 3.777344 3.914062 3.796875 3.910156 3.800781 C 3.90625 3.804688 3.898438 3.820312 3.898438 3.832031 C 3.898438 3.859375 3.867188 3.890625 3.839844 3.890625 C 3.828125 3.890625 3.808594 3.902344 3.792969 3.917969 C 3.761719 3.957031 3.738281 3.953125 3.746094 3.914062 C 3.75 3.902344 3.746094 3.882812 3.738281 3.875 C 3.722656 3.855469 3.71875 3.761719 3.734375 3.746094 C 3.742188 3.734375 3.742188 3.726562 3.730469 3.71875 C 3.707031 3.699219 3.683594 3.660156 3.664062 3.601562 C 3.65625 3.570312 3.644531 3.542969 3.636719 3.539062 C 3.628906 3.535156 3.628906 3.53125 3.636719 3.527344 C 3.65625 3.519531 3.652344 3.472656 3.632812 3.472656 C 3.609375 3.472656 3.589844 3.445312 3.59375 3.421875 C 3.59375 3.410156 3.582031 3.398438 3.554688 3.382812 C 3.515625 3.363281 3.460938 3.289062 3.449219 3.242188 C 3.4375 3.203125 3.441406 3.203125 3.476562 3.234375 C 3.492188 3.25 3.515625 3.261719 3.523438 3.261719 C 3.542969 3.261719 3.5625 3.289062 3.558594 3.3125 C 3.554688 3.324219 3.5625 3.332031 3.582031 3.332031 C 3.597656 3.335938 3.613281 3.34375 3.613281 3.355469 C 3.621094 3.375 3.628906 3.375 3.660156 3.371094 C 3.691406 3.363281 3.703125 3.367188 3.71875 3.382812 C 3.734375 3.398438 3.742188 3.398438 3.753906 3.390625 C 3.761719 3.382812 3.757812 3.375 3.746094 3.371094 C 3.71875 3.359375 3.699219 3.308594 3.707031 3.261719 C 3.714844 3.210938 3.695312 3.1875 3.652344 3.1875 C 3.640625 3.1875 3.628906 3.179688 3.628906 3.171875 C 3.628906 3.140625 3.574219 3.050781 3.558594 3.050781 C 3.546875 3.050781 3.539062 3.046875 3.539062 3.042969 C 3.539062 3.035156 3.546875 3.03125 3.558594 3.03125 C 3.570312 3.035156 3.574219 3.027344 3.578125 3.011719 C 3.582031 2.984375 3.5625 2.980469 3.53125 3 C 3.515625 3.011719 3.507812 3.007812 3.496094 2.996094 C 3.488281 2.988281 3.476562 2.976562 3.46875 2.976562 C 3.457031 2.972656 3.457031 2.96875 3.46875 2.957031 C 3.476562 2.945312 3.484375 2.945312 3.5 2.957031 C 3.523438 2.972656 3.535156 2.964844 3.527344 2.941406 C 3.523438 2.929688 3.507812 2.925781 3.480469 2.925781 C 3.449219 2.925781 3.441406 2.921875 3.441406 2.914062 C 3.445312 2.898438 3.558594 2.890625 3.570312 2.902344 C 3.570312 2.90625 3.589844 2.921875 3.609375 2.933594 C 3.636719 2.957031 3.644531 2.957031 3.664062 2.949219 C 3.707031 2.929688 3.691406 2.894531 3.640625 2.894531 C 3.628906 2.894531 3.597656 2.886719 3.574219 2.871094 C 3.53125 2.851562 3.515625 2.851562 3.457031 2.859375 C 3.386719 2.863281 3.386719 2.863281 3.359375 2.832031 C 3.332031 2.800781 3.328125 2.789062 3.332031 2.746094 C 3.335938 2.699219 3.335938 2.691406 3.308594 2.671875 C 3.273438 2.648438 3.269531 2.621094 3.300781 2.613281 C 3.3125 2.609375 3.320312 2.605469 3.320312 2.601562 C 3.320312 2.582031 3.296875 2.539062 3.285156 2.539062 C 3.273438 2.539062 3.246094 2.46875 3.246094 2.433594 C 3.246094 2.390625 3.226562 2.398438 3.210938 2.445312 C 3.1875 2.503906 3.171875 2.507812 3.171875 2.460938 C 3.171875 2.441406 3.175781 2.421875 3.179688 2.421875 C 3.1875 2.417969 3.191406 2.398438 3.1875 2.378906 L 3.183594 2.34375 L 3.160156 2.390625 C 3.148438 2.417969 3.140625 2.445312 3.140625 2.457031 C 3.140625 2.488281 3.101562 2.554688 3.074219 2.574219 C 3.0625 2.585938 3.050781 2.601562 3.050781 2.613281 C 3.050781 2.625 3.046875 2.632812 3.039062 2.632812 C 3.027344 2.632812 3.027344 2.59375 3.039062 2.589844 C 3.046875 2.585938 3.046875 2.574219 3.039062 2.546875 C 3.035156 2.527344 3.027344 2.457031 3.027344 2.390625 C 3.023438 2.289062 3.019531 2.269531 3.003906 2.257812 C 2.984375 2.246094 2.984375 2.25 2.984375 2.378906 C 2.984375 2.46875 2.980469 2.519531 2.972656 2.53125 C 2.964844 2.539062 2.960938 2.554688 2.960938 2.566406 C 2.964844 2.617188 2.945312 2.644531 2.933594 2.601562 C 2.929688 2.59375 2.921875 2.566406 2.910156 2.546875 C 2.898438 2.523438 2.886719 2.472656 2.882812 2.417969 C 2.878906 2.359375 2.871094 2.324219 2.863281 2.320312 C 2.855469 2.316406 2.851562 2.328125 2.851562 2.351562 C 2.851562 2.371094 2.84375 2.394531 2.835938 2.40625 C 2.820312 2.425781 2.820312 2.425781 2.808594 2.410156 C 2.804688 2.402344 2.800781 2.371094 2.800781 2.34375 C 2.800781 2.289062 2.757812 2.144531 2.742188 2.144531 C 2.726562 2.144531 2.71875 2.328125 2.730469 2.421875 C 2.746094 2.542969 2.746094 2.5625 2.734375 2.566406 C 2.726562 2.566406 2.714844 2.539062 2.699219 2.496094 C 2.679688 2.433594 2.679688 2.417969 2.6875 2.382812 C 2.699219 2.34375 2.691406 2.316406 2.660156 2.289062 C 2.640625 2.277344 2.621094 2.183594 2.621094 2.117188 C 2.621094 2.0625 2.613281 2.054688 2.582031 2.0625 C 2.566406 2.066406 2.5625 2.074219 2.566406 2.085938 C 2.570312 2.109375 2.554688 2.125 2.539062 2.113281 C 2.535156 2.109375 2.53125 2.097656 2.539062 2.089844 C 2.550781 2.070312 2.523438 2.011719 2.507812 2.011719 C 2.5 2.011719 2.484375 1.988281 2.46875 1.957031 C 2.429688 1.867188 2.382812 1.863281 2.394531 1.953125 C 2.398438 1.976562 2.398438 1.992188 2.394531 1.992188 C 2.386719 1.992188 2.351562 1.957031 2.308594 1.914062 C 2.269531 1.875 2.214844 1.828125 2.191406 1.8125 C 2.164062 1.792969 2.148438 1.773438 2.144531 1.75 C 2.140625 1.730469 2.128906 1.714844 2.113281 1.710938 C 2.101562 1.703125 2.089844 1.691406 2.085938 1.679688 C 2.082031 1.664062 2.0625 1.648438 2.039062 1.640625 C 1.992188 1.621094 1.988281 1.59375 2.03125 1.59375 C 2.054688 1.59375 2.058594 1.589844 2.058594 1.570312 C 2.058594 1.558594 2.046875 1.535156 2.03125 1.519531 C 2.015625 1.503906 1.988281 1.472656 1.96875 1.453125 C 1.949219 1.429688 1.921875 1.410156 1.910156 1.398438 C 1.894531 1.390625 1.878906 1.378906 1.878906 1.367188 C 1.871094 1.359375 1.863281 1.351562 1.855469 1.351562 C 1.839844 1.351562 1.804688 1.3125 1.796875 1.28125 C 1.792969 1.265625 1.765625 1.222656 1.730469 1.1875 C 1.691406 1.144531 1.671875 1.117188 1.675781 1.105469 C 1.679688 1.09375 1.675781 1.085938 1.664062 1.085938 C 1.652344 1.082031 1.640625 1.070312 1.632812 1.058594 C 1.621094 1.039062 1.621094 1.035156 1.65625 0.925781 L 1.671875 0.871094 L 1.621094 0.816406 C 1.582031 0.777344 1.566406 0.765625 1.558594 0.773438 C 1.550781 0.78125 1.550781 0.796875 1.558594 0.828125 C 1.566406 0.847656 1.570312 0.914062 1.570312 0.964844 L 1.570312 1.0625 L 1.535156 1.089844 C 1.503906 1.113281 1.492188 1.113281 1.378906 1.109375 C 1.3125 1.105469 1.257812 1.101562 1.253906 1.097656 C 1.25 1.09375 1.253906 1.082031 1.261719 1.074219 C 1.277344 1.0625 1.277344 1.0625 1.257812 1.042969 C 1.246094 1.03125 1.230469 1.011719 1.222656 0.992188 C 1.203125 0.960938 1.195312 0.957031 1.152344 0.980469 C 1.121094 1 1.078125 0.992188 1.078125 0.972656 C 1.078125 0.96875 1.085938 0.964844 1.09375 0.96875 C 1.101562 0.972656 1.121094 0.964844 1.132812 0.953125 C 1.148438 0.941406 1.164062 0.933594 1.167969 0.933594 C 1.175781 0.933594 1.179688 0.925781 1.183594 0.914062 C 1.1875 0.902344 1.199219 0.890625 1.214844 0.886719 C 1.230469 0.882812 1.230469 0.882812 1.207031 0.882812 C 1.175781 0.882812 1.171875 0.859375 1.203125 0.835938 C 1.222656 0.824219 1.222656 0.816406 1.214844 0.792969 C 1.199219 0.761719 1.210938 0.75 1.253906 0.753906 C 1.285156 0.757812 1.285156 0.742188 1.261719 0.703125 C 1.242188 0.675781 1.234375 0.671875 1.195312 0.675781 C 1.167969 0.679688 1.148438 0.679688 1.144531 0.671875 C 1.140625 0.664062 1.132812 0.660156 1.121094 0.660156 C 1.109375 0.660156 1.09375 0.640625 1.078125 0.597656 C 1.035156 0.496094 0.945312 0.453125 0.882812 0.503906 C 0.835938 0.539062 0.769531 0.542969 0.730469 0.515625 C 0.691406 0.484375 0.691406 0.476562 0.734375 0.4375 C 0.75 0.421875 0.761719 0.410156 0.761719 0.40625 C 0.757812 0.40625 0.726562 0.386719 0.695312 0.363281 C 0.660156 0.339844 0.613281 0.300781 0.589844 0.277344 C 0.539062 0.234375 0.519531 0.21875 0.40625 0.15625 C 0.367188 0.136719 0.335938 0.109375 0.332031 0.101562 C 0.328125 0.078125 0.230469 0.078125 0.230469 0.101562 C 0.230469 0.109375 0.234375 0.117188 0.238281 0.117188 C 0.246094 0.117188 0.25 0.125 0.25 0.136719 C 0.25 0.148438 0.242188 0.15625 0.230469 0.15625 C 0.199219 0.15625 0.160156 0.125 0.160156 0.105469 C 0.160156 0.078125 0.125 0.078125 0.117188 0.101562 Z M 4.566406 4.027344 C 4.5625 4.042969 4.554688 4.054688 4.550781 4.054688 C 4.546875 4.050781 4.546875 4.058594 4.554688 4.074219 C 4.5625 4.09375 4.570312 4.117188 4.570312 4.128906 C 4.570312 4.15625 4.570312 4.15625 4.550781 4.136719 C 4.527344 4.105469 4.5 4.058594 4.5 4.046875 C 4.5 4.039062 4.507812 4.027344 4.519531 4.019531 C 4.53125 4.011719 4.53125 4.003906 4.523438 3.996094 C 4.507812 3.980469 4.441406 4.03125 4.4375 4.0625 C 4.433594 4.09375 4.390625 4.097656 4.382812 4.070312 C 4.378906 4.042969 4.351562 4.039062 4.351562 4.0625 C 4.351562 4.070312 4.34375 4.078125 4.335938 4.078125 C 4.308594 4.078125 4.320312 4.042969 4.351562 4.027344 C 4.367188 4.023438 4.382812 4 4.390625 3.980469 C 4.398438 3.957031 4.410156 3.941406 4.421875 3.941406 C 4.445312 3.941406 4.445312 3.957031 4.425781 3.980469 C 4.417969 3.988281 4.410156 4 4.410156 4.003906 C 4.410156 4.023438 4.433594 4.015625 4.453125 3.988281 C 4.464844 3.976562 4.476562 3.964844 4.480469 3.964844 C 4.484375 3.964844 4.5 3.953125 4.511719 3.941406 L 4.535156 3.921875 L 4.554688 3.960938 C 4.566406 3.984375 4.570312 4.007812 4.566406 4.027344 Z M 4.441406 4.113281 C 4.441406 4.117188 4.429688 4.136719 4.414062 4.148438 C 4.382812 4.179688 4.382812 4.199219 4.410156 4.183594 C 4.421875 4.175781 4.441406 4.164062 4.449219 4.152344 C 4.472656 4.128906 4.5 4.136719 4.5 4.164062 C 4.5 4.175781 4.511719 4.199219 4.523438 4.214844 L 4.546875 4.25 L 4.523438 4.265625 C 4.511719 4.277344 4.5 4.296875 4.496094 4.3125 C 4.492188 4.328125 4.480469 4.34375 4.46875 4.351562 C 4.460938 4.359375 4.449219 4.371094 4.449219 4.378906 C 4.449219 4.398438 4.410156 4.398438 4.410156 4.378906 C 4.40625 4.375 4.40625 4.355469 4.40625 4.335938 C 4.40625 4.296875 4.371094 4.285156 4.371094 4.324219 C 4.371094 4.359375 4.351562 4.359375 4.316406 4.328125 C 4.285156 4.304688 4.28125 4.289062 4.308594 4.269531 C 4.328125 4.257812 4.339844 4.226562 4.320312 4.226562 C 4.316406 4.226562 4.308594 4.234375 4.300781 4.242188 C 4.292969 4.25 4.277344 4.257812 4.265625 4.257812 C 4.226562 4.257812 4.234375 4.222656 4.273438 4.195312 C 4.289062 4.183594 4.316406 4.160156 4.332031 4.140625 C 4.355469 4.109375 4.367188 4.101562 4.398438 4.101562 C 4.421875 4.101562 4.441406 4.105469 4.441406 4.113281 Z M 4.441406 4.113281 "/>
<path style=" stroke:none;fill-rule:nonzero;fill:rgb(0%,0%,0%);fill-opacity:1;" d="M 3.71875 0.246094 C 3.71875 0.257812 3.710938 0.261719 3.683594 0.261719 C 3.65625 0.261719 3.648438 0.265625 3.648438 0.285156 C 3.648438 0.304688 3.644531 0.304688 3.617188 0.300781 C 3.589844 0.292969 3.582031 0.296875 3.578125 0.3125 C 3.574219 0.328125 3.566406 0.332031 3.550781 0.328125 C 3.535156 0.324219 3.519531 0.339844 3.476562 0.382812 C 3.445312 0.417969 3.414062 0.441406 3.402344 0.441406 C 3.382812 0.441406 3.375 0.449219 3.378906 0.480469 C 3.382812 0.5 3.34375 0.546875 3.328125 0.546875 C 3.324219 0.546875 3.320312 0.550781 3.320312 0.5625 C 3.320312 0.570312 3.3125 0.578125 3.304688 0.585938 C 3.292969 0.589844 3.289062 0.597656 3.292969 0.621094 C 3.300781 0.644531 3.296875 0.652344 3.28125 0.65625 C 3.261719 0.664062 3.261719 0.671875 3.261719 0.8125 C 3.261719 0.949219 3.261719 0.960938 3.277344 0.96875 C 3.292969 0.972656 3.296875 0.980469 3.292969 1.011719 C 3.289062 1.039062 3.289062 1.046875 3.304688 1.046875 C 3.316406 1.046875 3.320312 1.058594 3.320312 1.085938 C 3.320312 1.105469 3.324219 1.121094 3.335938 1.125 C 3.34375 1.128906 3.347656 1.136719 3.34375 1.144531 C 3.339844 1.148438 3.351562 1.167969 3.367188 1.1875 C 3.386719 1.203125 3.398438 1.230469 3.398438 1.242188 C 3.398438 1.257812 3.40625 1.269531 3.410156 1.269531 C 3.429688 1.269531 3.460938 1.3125 3.460938 1.335938 C 3.460938 1.355469 3.464844 1.363281 3.476562 1.363281 C 3.488281 1.363281 3.488281 1.382812 3.488281 1.460938 C 3.488281 1.539062 3.492188 1.566406 3.503906 1.570312 C 3.515625 1.574219 3.515625 1.585938 3.511719 1.621094 C 3.507812 1.675781 3.515625 1.71875 3.535156 1.71875 C 3.542969 1.71875 3.546875 1.734375 3.542969 1.773438 C 3.539062 1.8125 3.539062 1.824219 3.554688 1.832031 C 3.5625 1.835938 3.570312 1.847656 3.570312 1.863281 C 3.570312 1.878906 3.578125 1.890625 3.585938 1.894531 C 3.59375 1.898438 3.601562 1.910156 3.601562 1.921875 C 3.601562 1.929688 3.613281 1.957031 3.632812 1.972656 C 3.652344 1.992188 3.660156 2.007812 3.652344 2.011719 C 3.644531 2.011719 3.640625 2.023438 3.640625 2.027344 C 3.640625 2.035156 3.632812 2.042969 3.621094 2.046875 C 3.605469 2.050781 3.601562 2.0625 3.601562 2.097656 C 3.601562 2.128906 3.597656 2.140625 3.585938 2.140625 C 3.578125 2.140625 3.570312 2.148438 3.570312 2.160156 C 3.570312 2.171875 3.566406 2.179688 3.5625 2.179688 C 3.554688 2.179688 3.550781 2.191406 3.546875 2.203125 C 3.546875 2.226562 3.539062 2.226562 3.488281 2.222656 C 3.441406 2.222656 3.429688 2.222656 3.429688 2.238281 C 3.429688 2.246094 3.425781 2.253906 3.414062 2.253906 C 3.402344 2.253906 3.390625 2.277344 3.390625 2.308594 C 3.390625 2.320312 3.382812 2.332031 3.371094 2.339844 C 3.359375 2.34375 3.351562 2.355469 3.351562 2.367188 C 3.351562 2.382812 3.398438 2.484375 3.40625 2.484375 C 3.414062 2.484375 3.441406 2.410156 3.453125 2.355469 C 3.460938 2.320312 3.46875 2.304688 3.480469 2.300781 C 3.492188 2.296875 3.5 2.289062 3.5 2.285156 C 3.5 2.28125 3.527344 2.273438 3.5625 2.269531 C 3.609375 2.265625 3.636719 2.265625 3.660156 2.277344 C 3.679688 2.289062 3.707031 2.296875 3.722656 2.300781 C 3.738281 2.304688 3.75 2.316406 3.753906 2.332031 C 3.757812 2.359375 3.78125 2.367188 3.78125 2.339844 C 3.78125 2.328125 3.777344 2.316406 3.773438 2.316406 C 3.765625 2.316406 3.761719 2.296875 3.761719 2.273438 C 3.761719 2.25 3.761719 2.21875 3.757812 2.207031 C 3.757812 2.195312 3.761719 2.179688 3.765625 2.167969 C 3.769531 2.15625 3.765625 2.148438 3.753906 2.136719 C 3.703125 2.09375 3.660156 2.042969 3.660156 2.03125 C 3.660156 2.007812 3.6875 2.007812 3.71875 2.035156 C 3.753906 2.066406 3.84375 2.089844 3.871094 2.078125 C 3.886719 2.070312 3.921875 2.0625 3.953125 2.054688 C 3.984375 2.050781 4.015625 2.039062 4.019531 2.027344 C 4.039062 2.007812 4.023438 1.972656 3.984375 1.957031 C 3.964844 1.953125 3.949219 1.941406 3.949219 1.9375 C 3.949219 1.933594 3.964844 1.914062 3.980469 1.902344 C 4.019531 1.867188 4.019531 1.855469 3.96875 1.855469 C 3.925781 1.855469 3.847656 1.828125 3.835938 1.804688 C 3.832031 1.800781 3.820312 1.796875 3.804688 1.800781 C 3.78125 1.804688 3.78125 1.800781 3.78125 1.773438 C 3.78125 1.757812 3.785156 1.738281 3.796875 1.734375 C 3.804688 1.726562 3.820312 1.707031 3.828125 1.683594 C 3.851562 1.640625 3.84375 1.609375 3.808594 1.621094 C 3.785156 1.628906 3.773438 1.605469 3.789062 1.59375 C 3.800781 1.585938 3.824219 1.582031 3.851562 1.582031 C 3.90625 1.582031 3.925781 1.566406 3.878906 1.558594 C 3.851562 1.554688 3.835938 1.519531 3.859375 1.519531 C 3.871094 1.519531 3.890625 1.441406 3.886719 1.414062 C 3.878906 1.390625 3.859375 1.378906 3.773438 1.351562 C 3.734375 1.339844 3.710938 1.324219 3.714844 1.316406 C 3.714844 1.3125 3.726562 1.277344 3.734375 1.246094 C 3.746094 1.207031 3.757812 1.183594 3.769531 1.179688 C 3.78125 1.175781 3.820312 1.1875 3.863281 1.210938 C 3.9375 1.246094 3.945312 1.246094 3.960938 1.230469 C 3.972656 1.222656 3.976562 1.210938 3.972656 1.203125 C 3.960938 1.183594 3.980469 1.144531 4.007812 1.140625 C 4.023438 1.136719 4.039062 1.125 4.042969 1.113281 C 4.046875 1.09375 4.050781 1.09375 4.160156 1.105469 C 4.222656 1.113281 4.28125 1.121094 4.285156 1.121094 C 4.292969 1.121094 4.304688 1.132812 4.304688 1.148438 C 4.316406 1.191406 4.328125 1.207031 4.355469 1.207031 C 4.363281 1.207031 4.390625 1.214844 4.40625 1.226562 C 4.433594 1.246094 4.46875 1.253906 4.46875 1.242188 C 4.46875 1.238281 4.464844 1.226562 4.457031 1.214844 C 4.449219 1.199219 4.449219 1.195312 4.457031 1.183594 C 4.472656 1.167969 4.488281 1.179688 4.488281 1.210938 C 4.492188 1.238281 4.515625 1.273438 4.527344 1.265625 C 4.535156 1.261719 4.535156 1.25 4.53125 1.238281 C 4.527344 1.21875 4.574219 1.179688 4.589844 1.1875 C 4.59375 1.191406 4.59375 1.183594 4.59375 1.171875 C 4.589844 1.152344 4.59375 1.144531 4.609375 1.140625 C 4.628906 1.132812 4.628906 1.132812 4.617188 1.109375 C 4.613281 1.097656 4.597656 1.078125 4.582031 1.066406 C 4.558594 1.046875 4.53125 1 4.546875 1.007812 C 4.550781 1.011719 4.566406 1.019531 4.582031 1.027344 C 4.597656 1.035156 4.609375 1.050781 4.613281 1.058594 C 4.617188 1.070312 4.625 1.082031 4.632812 1.082031 C 4.648438 1.082031 4.648438 1.0625 4.648438 0.925781 L 4.644531 0.773438 L 4.621094 0.765625 C 4.597656 0.757812 4.597656 0.757812 4.613281 0.75 C 4.625 0.742188 4.632812 0.730469 4.628906 0.710938 C 4.625 0.691406 4.613281 0.683594 4.578125 0.671875 C 4.550781 0.664062 4.53125 0.652344 4.53125 0.644531 C 4.53125 0.636719 4.523438 0.628906 4.519531 0.621094 C 4.507812 0.613281 4.503906 0.613281 4.488281 0.625 C 4.472656 0.640625 4.472656 0.636719 4.464844 0.613281 C 4.460938 0.589844 4.453125 0.585938 4.425781 0.585938 C 4.398438 0.585938 4.390625 0.589844 4.390625 0.605469 C 4.390625 0.613281 4.382812 0.617188 4.378906 0.617188 C 4.367188 0.613281 4.351562 0.605469 4.257812 0.574219 C 4.234375 0.570312 4.222656 0.570312 4.214844 0.578125 C 4.203125 0.585938 4.191406 0.585938 4.160156 0.578125 C 4.085938 0.554688 4.046875 0.546875 4.035156 0.550781 C 4.003906 0.5625 4.03125 0.597656 4.070312 0.597656 C 4.085938 0.597656 4.101562 0.605469 4.109375 0.613281 C 4.117188 0.621094 4.132812 0.628906 4.140625 0.628906 C 4.152344 0.628906 4.183594 0.644531 4.207031 0.660156 C 4.230469 0.675781 4.253906 0.691406 4.257812 0.691406 C 4.273438 0.691406 4.386719 0.816406 4.402344 0.851562 C 4.410156 0.867188 4.417969 0.882812 4.421875 0.882812 C 4.425781 0.882812 4.429688 0.90625 4.433594 0.941406 C 4.4375 0.976562 4.453125 1.027344 4.472656 1.0625 C 4.496094 1.109375 4.5 1.125 4.492188 1.136719 C 4.472656 1.152344 4.449219 1.132812 4.4375 1.09375 C 4.429688 1.058594 4.421875 1.050781 4.402344 1.070312 C 4.398438 1.078125 4.382812 1.070312 4.359375 1.050781 C 4.273438 0.976562 4.238281 0.949219 4.210938 0.9375 C 4.203125 0.933594 4.179688 0.925781 4.160156 0.917969 C 4.144531 0.90625 4.121094 0.902344 4.113281 0.902344 C 4.105469 0.902344 4.089844 0.894531 4.074219 0.882812 C 4.050781 0.871094 4.019531 0.867188 3.875 0.867188 C 3.753906 0.867188 3.695312 0.871094 3.6875 0.878906 C 3.675781 0.894531 3.621094 0.894531 3.621094 0.882812 C 3.621094 0.875 3.628906 0.871094 3.644531 0.863281 C 3.664062 0.859375 3.664062 0.859375 3.644531 0.851562 C 3.636719 0.847656 3.625 0.851562 3.621094 0.859375 C 3.617188 0.871094 3.578125 0.875 3.566406 0.863281 C 3.527344 0.820312 3.742188 0.753906 3.917969 0.753906 C 4.046875 0.753906 4.128906 0.777344 4.269531 0.851562 C 4.394531 0.914062 4.414062 0.910156 4.351562 0.828125 C 4.285156 0.75 4.210938 0.699219 4.070312 0.644531 C 4.011719 0.621094 3.785156 0.621094 3.738281 0.644531 C 3.71875 0.652344 3.6875 0.664062 3.671875 0.667969 C 3.652344 0.675781 3.628906 0.683594 3.617188 0.6875 C 3.605469 0.691406 3.601562 0.691406 3.601562 0.683594 C 3.601562 0.675781 3.605469 0.671875 3.613281 0.671875 C 3.625 0.671875 3.632812 0.664062 3.636719 0.65625 C 3.640625 0.648438 3.648438 0.640625 3.652344 0.640625 C 3.660156 0.640625 3.675781 0.632812 3.691406 0.625 C 3.703125 0.617188 3.734375 0.609375 3.753906 0.605469 C 3.78125 0.597656 3.789062 0.589844 3.789062 0.578125 C 3.789062 0.558594 3.796875 0.558594 3.878906 0.5625 C 3.9375 0.566406 3.96875 0.566406 3.972656 0.558594 C 3.980469 0.550781 3.972656 0.546875 3.957031 0.546875 C 3.941406 0.546875 3.929688 0.542969 3.925781 0.535156 C 3.921875 0.53125 3.898438 0.527344 3.875 0.53125 C 3.839844 0.535156 3.828125 0.53125 3.816406 0.511719 C 3.808594 0.5 3.796875 0.492188 3.789062 0.5 C 3.769531 0.511719 3.75 0.480469 3.757812 0.449219 C 3.761719 0.433594 3.757812 0.40625 3.75 0.390625 C 3.738281 0.371094 3.738281 0.363281 3.757812 0.34375 C 3.769531 0.328125 3.78125 0.308594 3.78125 0.300781 C 3.78125 0.292969 3.789062 0.277344 3.800781 0.273438 C 3.839844 0.25 3.824219 0.230469 3.769531 0.230469 C 3.730469 0.230469 3.71875 0.234375 3.71875 0.246094 Z M 3.71875 0.246094 "/>
<path style=" stroke:none;fill-rule:nonzero;fill:rgb(0%,0%,0%);fill-opacity:1;" d="M 3.933594 2.261719 C 3.914062 2.300781 3.898438 2.339844 3.898438 2.34375 C 3.898438 2.355469 4.015625 2.542969 4.042969 2.578125 C 4.066406 2.605469 4.066406 2.574219 4.046875 2.519531 C 4.03125 2.488281 4.019531 2.441406 4.019531 2.417969 C 4.019531 2.382812 4.015625 2.371094 3.988281 2.347656 C 3.953125 2.316406 3.953125 2.277344 3.988281 2.292969 C 4 2.296875 4.011719 2.292969 4.011719 2.289062 C 4.011719 2.28125 4.007812 2.277344 4 2.277344 C 3.996094 2.277344 3.988281 2.257812 3.984375 2.234375 C 3.980469 2.210938 3.976562 2.191406 3.972656 2.191406 C 3.96875 2.191406 3.949219 2.222656 3.933594 2.261719 Z M 3.933594 2.261719 "/>
<path style=" stroke:none;fill-rule:nonzero;fill:rgb(0%,0%,0%);fill-opacity:1;" d="M 3.578125 2.496094 C 3.566406 2.503906 3.527344 2.507812 3.488281 2.511719 C 3.453125 2.511719 3.425781 2.515625 3.425781 2.519531 C 3.429688 2.539062 3.527344 2.679688 3.558594 2.714844 C 3.578125 2.734375 3.617188 2.769531 3.640625 2.792969 C 3.667969 2.816406 3.699219 2.847656 3.710938 2.867188 C 3.722656 2.886719 3.765625 2.9375 3.804688 2.980469 C 3.84375 3.023438 3.902344 3.101562 3.9375 3.152344 C 4.003906 3.261719 4.019531 3.28125 4.035156 3.28125 C 4.039062 3.28125 4.0625 3.300781 4.085938 3.324219 C 4.109375 3.34375 4.144531 3.371094 4.164062 3.382812 L 4.199219 3.402344 L 4.234375 3.363281 C 4.253906 3.347656 4.269531 3.324219 4.269531 3.3125 C 4.269531 3.304688 4.234375 3.261719 4.191406 3.214844 L 4.113281 3.132812 L 4.15625 3.140625 C 4.207031 3.148438 4.214844 3.132812 4.175781 3.09375 L 4.148438 3.070312 L 4.171875 3.035156 L 4.191406 3 L 4.171875 2.988281 C 4.152344 2.980469 4.148438 2.972656 4.15625 2.945312 C 4.160156 2.925781 4.175781 2.890625 4.1875 2.871094 C 4.230469 2.800781 4.226562 2.726562 4.183594 2.742188 C 4.167969 2.746094 4.160156 2.761719 4.15625 2.804688 C 4.152344 2.851562 4.128906 2.917969 4.097656 2.953125 C 4.089844 2.964844 4.070312 2.953125 4.015625 2.914062 C 3.976562 2.886719 3.941406 2.863281 3.9375 2.863281 C 3.933594 2.863281 3.894531 2.835938 3.855469 2.804688 C 3.8125 2.773438 3.761719 2.738281 3.738281 2.726562 C 3.714844 2.714844 3.6875 2.699219 3.679688 2.695312 C 3.652344 2.675781 3.597656 2.652344 3.585938 2.652344 C 3.578125 2.652344 3.566406 2.644531 3.558594 2.632812 C 3.550781 2.613281 3.554688 2.605469 3.585938 2.570312 C 3.636719 2.515625 3.632812 2.476562 3.578125 2.496094 Z M 3.578125 2.496094 "/>
<path style=" stroke:none;fill-rule:nonzero;fill:rgb(0%,0%,0%);fill-opacity:1;" d="M 4.429688 2.878906 C 4.382812 2.898438 4.367188 2.902344 4.300781 2.9375 C 4.1875 2.992188 4.183594 2.996094 4.226562 3.023438 C 4.242188 3.039062 4.25 3.050781 4.25 3.082031 C 4.25 3.121094 4.25 3.121094 4.28125 3.117188 C 4.332031 3.109375 4.335938 3.085938 4.296875 3.046875 C 4.253906 3.003906 4.25 2.988281 4.285156 2.988281 C 4.300781 2.988281 4.351562 2.96875 4.398438 2.941406 C 4.445312 2.917969 4.496094 2.894531 4.507812 2.890625 C 4.519531 2.886719 4.527344 2.878906 4.523438 2.871094 C 4.515625 2.859375 4.484375 2.863281 4.429688 2.878906 Z M 4.429688 2.878906 "/>
<path style=" stroke:none;fill-rule:nonzero;fill:rgb(0%,0%,0%);fill-opacity:1;" d="M 4.636719 3.007812 C 4.632812 3.019531 4.632812 3.050781 4.640625 3.078125 C 4.644531 3.105469 4.652344 3.144531 4.65625 3.164062 L 4.664062 3.203125 L 4.730469 3.195312 C 4.789062 3.1875 4.800781 3.191406 4.804688 3.203125 C 4.808594 3.210938 4.816406 3.21875 4.824219 3.21875 C 4.832031 3.21875 4.84375 3.226562 4.851562 3.234375 C 4.890625 3.269531 4.925781 3.285156 4.96875 3.277344 C 5.054688 3.269531 5.113281 3.308594 5.09375 3.367188 C 5.09375 3.375 5.085938 3.472656 5.078125 3.578125 C 5.074219 3.683594 5.066406 3.792969 5.0625 3.816406 L 5.058594 3.867188 L 5.117188 3.878906 C 5.148438 3.886719 5.214844 3.894531 5.265625 3.898438 C 5.316406 3.902344 5.363281 3.914062 5.378906 3.917969 C 5.390625 3.925781 5.40625 3.933594 5.421875 3.933594 C 5.433594 3.933594 5.453125 3.945312 5.46875 3.964844 C 5.484375 3.980469 5.503906 3.996094 5.507812 3.996094 C 5.511719 3.996094 5.53125 4.003906 5.546875 4.011719 C 5.5625 4.019531 5.585938 4.023438 5.601562 4.019531 C 5.640625 4.011719 5.671875 4.035156 5.695312 4.089844 C 5.703125 4.117188 5.71875 4.152344 5.726562 4.167969 C 5.734375 4.183594 5.738281 4.199219 5.738281 4.207031 C 5.738281 4.226562 5.8125 4.308594 5.824219 4.300781 C 5.835938 4.285156 5.839844 4.191406 5.828125 4.183594 C 5.820312 4.179688 5.816406 4.164062 5.816406 4.152344 C 5.816406 4.136719 5.808594 4.125 5.800781 4.125 C 5.789062 4.125 5.785156 4.117188 5.785156 4.101562 C 5.789062 4.085938 5.785156 4.078125 5.769531 4.078125 C 5.761719 4.078125 5.734375 4.058594 5.714844 4.03125 C 5.691406 4.007812 5.667969 3.984375 5.65625 3.984375 C 5.648438 3.984375 5.640625 3.980469 5.644531 3.972656 C 5.652344 3.957031 5.679688 3.960938 5.695312 3.980469 C 5.703125 3.988281 5.71875 3.996094 5.730469 3.996094 C 5.742188 3.996094 5.75 4 5.75 4.007812 C 5.75 4.011719 5.757812 4.015625 5.769531 4.015625 C 5.78125 4.015625 5.789062 4.011719 5.789062 4.007812 C 5.789062 4 5.78125 3.996094 5.769531 3.996094 C 5.761719 3.996094 5.746094 3.988281 5.742188 3.980469 C 5.734375 3.96875 5.71875 3.957031 5.664062 3.925781 C 5.589844 3.882812 5.480469 3.777344 5.453125 3.71875 C 5.421875 3.652344 5.441406 3.535156 5.492188 3.519531 C 5.5 3.515625 5.511719 3.503906 5.511719 3.5 C 5.511719 3.484375 5.492188 3.472656 5.402344 3.421875 C 5.34375 3.390625 5.328125 3.386719 5.25 3.386719 C 5.160156 3.386719 5.160156 3.386719 5.160156 3.363281 C 5.164062 3.328125 5.121094 3.261719 5.09375 3.25 C 5.078125 3.246094 5.054688 3.242188 5.035156 3.246094 C 5.011719 3.25 4.988281 3.246094 4.949219 3.226562 C 4.921875 3.210938 4.894531 3.199219 4.890625 3.203125 C 4.886719 3.203125 4.867188 3.199219 4.851562 3.1875 C 4.832031 3.175781 4.808594 3.164062 4.796875 3.160156 C 4.789062 3.15625 4.78125 3.148438 4.78125 3.144531 C 4.78125 3.140625 4.757812 3.117188 4.726562 3.09375 C 4.6875 3.0625 4.671875 3.042969 4.664062 3.019531 C 4.660156 2.984375 4.644531 2.980469 4.636719 3.007812 Z M 4.636719 3.007812 "/>
<path style=" stroke:none;fill-rule:nonzero;fill:rgb(0%,0%,0%);fill-opacity:1;" d="M 4.269531 3.382812 C 4.234375 3.417969 4.230469 3.449219 4.269531 3.484375 C 4.3125 3.53125 4.339844 3.53125 4.378906 3.488281 L 4.414062 3.449219 L 4.367188 3.402344 C 4.34375 3.375 4.316406 3.355469 4.3125 3.355469 C 4.304688 3.355469 4.289062 3.367188 4.269531 3.382812 Z M 4.269531 3.382812 "/>
<path style=" stroke:none;fill-rule:nonzero;fill:rgb(0%,0%,0%);fill-opacity:1;" d="M 4.167969 3.46875 C 4.148438 3.492188 4.144531 3.511719 4.164062 3.511719 C 4.175781 3.511719 4.25 3.566406 4.277344 3.59375 C 4.285156 3.601562 4.300781 3.605469 4.3125 3.605469 C 4.351562 3.605469 4.523438 3.746094 4.535156 3.789062 C 4.542969 3.816406 4.574219 3.820312 4.675781 3.800781 C 4.722656 3.792969 4.765625 3.785156 4.765625 3.785156 C 4.769531 3.785156 4.769531 3.78125 4.769531 3.773438 C 4.769531 3.761719 4.757812 3.753906 4.746094 3.746094 C 4.730469 3.738281 4.71875 3.730469 4.71875 3.722656 C 4.71875 3.71875 4.699219 3.703125 4.675781 3.691406 C 4.652344 3.679688 4.59375 3.628906 4.542969 3.582031 C 4.496094 3.53125 4.449219 3.492188 4.445312 3.492188 C 4.441406 3.492188 4.429688 3.503906 4.417969 3.515625 C 4.402344 3.527344 4.382812 3.546875 4.367188 3.558594 C 4.335938 3.582031 4.332031 3.578125 4.25 3.5 C 4.222656 3.472656 4.195312 3.449219 4.191406 3.449219 C 4.1875 3.449219 4.175781 3.457031 4.167969 3.46875 Z M 4.167969 3.46875 "/>
<path style=" stroke:none;fill-rule:nonzero;fill:rgb(0%,0%,0%);fill-opacity:1;" d="M 3.710938 3.519531 C 3.710938 3.527344 3.71875 3.539062 3.730469 3.542969 C 3.742188 3.550781 3.75 3.566406 3.75 3.589844 C 3.75 3.628906 3.785156 3.710938 3.800781 3.710938 C 3.804688 3.710938 3.808594 3.71875 3.808594 3.726562 C 3.808594 3.738281 3.804688 3.742188 3.796875 3.742188 C 3.773438 3.742188 3.765625 3.773438 3.78125 3.785156 C 3.800781 3.800781 3.804688 3.796875 3.824219 3.78125 C 3.839844 3.765625 3.839844 3.765625 3.839844 3.777344 C 3.839844 3.792969 3.859375 3.804688 3.882812 3.804688 C 3.890625 3.804688 3.894531 3.78125 3.890625 3.714844 C 3.890625 3.644531 3.882812 3.617188 3.863281 3.589844 C 3.851562 3.570312 3.839844 3.550781 3.839844 3.542969 C 3.835938 3.535156 3.804688 3.523438 3.761719 3.519531 C 3.75 3.515625 3.738281 3.511719 3.734375 3.511719 C 3.722656 3.496094 3.710938 3.5 3.710938 3.519531 Z M 3.710938 3.519531 "/>
<path style=" stroke:none;fill-rule:nonzero;fill:rgb(0%,0%,0%);fill-opacity:1;" d="M 4.113281 4.789062 C 4.109375 4.796875 4.113281 4.820312 4.125 4.835938 C 4.132812 4.851562 4.136719 4.871094 4.132812 4.878906 C 4.128906 4.890625 4.136719 4.898438 4.144531 4.90625 C 4.171875 4.914062 4.21875 4.96875 4.21875 4.988281 C 4.21875 4.996094 4.234375 5.003906 4.273438 5.003906 C 4.328125 5.003906 4.328125 5 4.328125 4.976562 C 4.328125 4.957031 4.320312 4.945312 4.304688 4.9375 C 4.289062 4.929688 4.28125 4.917969 4.28125 4.90625 C 4.28125 4.894531 4.269531 4.875 4.253906 4.855469 C 4.234375 4.832031 4.222656 4.824219 4.1875 4.824219 C 4.160156 4.824219 4.148438 4.820312 4.148438 4.808594 C 4.148438 4.792969 4.160156 4.789062 4.1875 4.792969 C 4.195312 4.792969 4.199219 4.789062 4.199219 4.78125 C 4.199219 4.765625 4.121094 4.769531 4.113281 4.789062 Z M 4.113281 4.789062 "/>
</g>
</svg>
