<?xml version="1.0" encoding="UTF-8"?>
<svg xmlns="http://www.w3.org/2000/svg" xmlns:xlink="http://www.w3.org/1999/xlink" width="32px" height="100px" viewBox="0 0 32 32" version="1.1">
<g id="surface1">
<path style=" stroke:none;fill-rule:nonzero;fill:rgb(0%,0%,0%);fill-opacity:1;" d="M 0.617188 0.644531 C 0.601562 0.703125 0.585938 0.898438 0.585938 1.078125 C 0.585938 1.316406 0.609375 1.410156 0.660156 1.410156 C 0.703125 1.410156 0.886719 1.597656 1.070312 1.824219 L 1.410156 2.25 L 1.15625 2.269531 C 0.917969 2.289062 0.90625 2.296875 0.90625 2.496094 C 0.90625 2.730469 1.113281 3.019531 1.285156 3.019531 C 1.339844 3.019531 1.386719 3.066406 1.386719 3.121094 C 1.386719 3.175781 1.421875 3.222656 1.464844 3.222656 C 1.507812 3.222656 1.546875 3.25 1.546875 3.273438 C 1.546875 3.308594 1.640625 3.382812 1.761719 3.449219 C 1.878906 3.515625 1.972656 3.609375 1.972656 3.664062 C 1.972656 3.75 2.070312 3.792969 2.230469 3.765625 C 2.261719 3.757812 2.292969 3.796875 2.292969 3.859375 C 2.292969 3.914062 2.332031 3.960938 2.375 3.960938 C 2.421875 3.960938 2.46875 4.007812 2.484375 4.058594 C 2.507812 4.113281 2.578125 4.160156 2.644531 4.160156 C 2.714844 4.160156 2.773438 4.1875 2.773438 4.222656 C 2.773438 4.335938 3.164062 4.769531 3.230469 4.738281 C 3.269531 4.71875 3.34375 4.75 3.390625 4.820312 C 3.445312 4.878906 3.542969 4.921875 3.609375 4.914062 C 3.683594 4.898438 3.742188 4.933594 3.765625 4.992188 C 3.785156 5.058594 3.859375 5.101562 3.953125 5.101562 C 4.042969 5.101562 4.121094 5.140625 4.140625 5.203125 C 4.164062 5.273438 4.25 5.300781 4.453125 5.300781 C 4.769531 5.300781 4.921875 5.355469 4.875 5.445312 C 4.859375 5.476562 4.972656 5.503906 5.113281 5.503906 C 5.304688 5.503906 5.386719 5.53125 5.386719 5.597656 C 5.386719 5.660156 5.429688 5.679688 5.523438 5.652344 C 5.660156 5.617188 5.664062 5.632812 5.632812 5.8125 C 5.609375 5.921875 5.558594 6.035156 5.515625 6.058594 C 5.382812 6.152344 5.433594 6.339844 5.679688 6.609375 C 5.8125 6.757812 5.921875 6.933594 5.921875 7 C 5.921875 7.066406 5.980469 7.1875 6.054688 7.273438 C 6.128906 7.363281 6.1875 7.488281 6.1875 7.5625 C 6.1875 7.632812 6.257812 7.757812 6.347656 7.839844 C 6.449219 7.941406 6.507812 8.046875 6.507812 8.152344 C 6.507812 8.25 6.535156 8.320312 6.558594 8.320312 C 6.652344 8.320312 6.828125 8.582031 6.828125 8.71875 C 6.828125 8.785156 6.886719 8.898438 6.960938 8.964844 C 7.035156 9.035156 7.09375 9.148438 7.09375 9.214844 C 7.09375 9.28125 7.199219 9.46875 7.332031 9.636719 C 7.464844 9.796875 7.574219 9.972656 7.574219 10.035156 C 7.574219 10.085938 7.667969 10.25 7.785156 10.394531 C 7.902344 10.535156 8 10.703125 8 10.769531 C 8 10.839844 8.105469 11.007812 8.238281 11.152344 C 8.375 11.300781 8.480469 11.464844 8.480469 11.515625 C 8.480469 11.570312 8.515625 11.609375 8.558594 11.609375 C 8.601562 11.609375 8.640625 11.636719 8.640625 11.679688 C 8.640625 11.710938 8.675781 11.746094 8.71875 11.746094 C 8.769531 11.746094 8.800781 11.804688 8.800781 11.914062 C 8.800781 12.007812 8.832031 12.101562 8.875 12.121094 C 8.917969 12.140625 8.933594 12.222656 8.917969 12.320312 C 8.90625 12.410156 8.917969 12.484375 8.9375 12.484375 C 9.054688 12.484375 9.386719 12.953125 9.386719 13.113281 C 9.386719 13.214844 9.410156 13.289062 9.441406 13.289062 C 9.523438 13.289062 9.84375 13.730469 9.824219 13.8125 C 9.8125 13.859375 9.914062 14.027344 10.046875 14.195312 C 10.179688 14.355469 10.292969 14.535156 10.292969 14.597656 C 10.292969 14.652344 10.394531 14.824219 10.523438 14.972656 C 10.644531 15.128906 10.742188 15.300781 10.730469 15.363281 C 10.726562 15.421875 10.789062 15.542969 10.878906 15.625 C 10.992188 15.730469 11.039062 15.832031 11.039062 15.964844 C 11.039062 16.074219 11.070312 16.175781 11.121094 16.203125 C 11.167969 16.222656 11.199219 16.320312 11.199219 16.4375 C 11.199219 16.542969 11.230469 16.644531 11.28125 16.671875 C 11.324219 16.691406 11.359375 16.75 11.359375 16.804688 C 11.359375 16.851562 11.433594 16.992188 11.519531 17.113281 C 11.609375 17.234375 11.679688 17.367188 11.675781 17.410156 C 11.660156 17.589844 11.683594 17.652344 11.800781 17.652344 C 11.867188 17.660156 11.980469 17.746094 12.054688 17.851562 C 12.121094 17.964844 12.214844 18.054688 12.25 18.054688 C 12.292969 18.054688 12.335938 18.09375 12.351562 18.148438 C 12.367188 18.203125 12.421875 18.230469 12.480469 18.207031 C 12.546875 18.179688 12.601562 18.234375 12.660156 18.375 C 12.707031 18.488281 12.796875 18.597656 12.855469 18.625 C 12.910156 18.644531 12.960938 18.699219 12.960938 18.730469 C 12.960938 18.765625 12.996094 18.792969 13.039062 18.792969 C 13.082031 18.792969 13.324219 19.046875 13.570312 19.363281 C 13.8125 19.679688 14.054688 19.933594 14.101562 19.933594 C 14.148438 19.933594 14.28125 20.066406 14.40625 20.234375 C 14.527344 20.402344 14.65625 20.53125 14.695312 20.511719 C 14.726562 20.496094 14.863281 20.632812 15.003906 20.804688 C 15.203125 21.066406 15.253906 21.175781 15.253906 21.363281 C 15.253906 21.511719 15.285156 21.609375 15.332031 21.636719 C 15.390625 21.664062 15.414062 21.785156 15.414062 22.148438 C 15.414062 22.488281 15.429688 22.609375 15.484375 22.597656 C 15.53125 22.589844 15.550781 22.769531 15.5625 23.300781 C 15.574219 23.886719 15.59375 24.027344 15.652344 24.027344 C 15.71875 24.027344 15.734375 24.128906 15.734375 24.503906 C 15.734375 24.945312 15.742188 24.984375 15.890625 25.140625 C 16.085938 25.347656 16.078125 25.550781 15.882812 25.769531 C 15.800781 25.859375 15.734375 25.984375 15.734375 26.039062 C 15.734375 26.101562 15.664062 26.222656 15.574219 26.308594 C 15.457031 26.4375 15.417969 26.535156 15.414062 26.71875 C 15.414062 26.871094 15.382812 26.980469 15.332031 27.007812 C 15.140625 27.09375 15.316406 27.511719 15.53125 27.464844 C 15.675781 27.429688 15.675781 27.960938 15.523438 28.019531 C 15.355469 28.085938 15.28125 28.234375 15.359375 28.355469 C 15.414062 28.4375 15.402344 28.511719 15.304688 28.738281 C 15.167969 29.078125 14.984375 29.335938 14.929688 29.289062 C 14.847656 29.230469 14.875 28.992188 14.960938 28.953125 C 15.003906 28.925781 15.039062 28.839844 15.039062 28.746094 C 15.039062 28.589844 15.125 28.320312 15.199219 28.253906 C 15.214844 28.234375 15.28125 28.09375 15.34375 27.941406 L 15.453125 27.652344 L 15.324219 27.652344 C 15.136719 27.652344 14.984375 27.769531 14.984375 27.921875 C 14.984375 28.058594 14.8125 28.320312 14.71875 28.320312 C 14.695312 28.320312 14.667969 28.394531 14.667969 28.488281 C 14.667969 28.582031 14.628906 28.679688 14.585938 28.699219 C 14.542969 28.726562 14.507812 28.804688 14.507812 28.890625 C 14.507812 28.980469 14.46875 29.058594 14.425781 29.085938 C 14.382812 29.109375 14.347656 29.1875 14.347656 29.269531 C 14.347656 29.347656 14.289062 29.484375 14.214844 29.570312 C 14.140625 29.660156 14.078125 29.785156 14.078125 29.851562 C 14.078125 29.925781 14.042969 30 14 30.027344 C 13.945312 30.046875 13.921875 30.152344 13.921875 30.335938 C 13.921875 30.53125 13.898438 30.605469 13.839844 30.605469 C 13.78125 30.605469 13.761719 30.691406 13.761719 30.964844 C 13.761719 31.230469 13.738281 31.335938 13.679688 31.367188 C 13.625 31.394531 13.601562 31.503906 13.601562 31.710938 L 13.601562 32.015625 L 16.675781 32.015625 L 16.761719 31.390625 C 16.875 30.625 16.875 30.511719 16.773438 30.402344 C 16.660156 30.289062 16.671875 30.128906 16.796875 30.085938 C 16.859375 30.066406 16.886719 30.015625 16.867188 29.941406 C 16.859375 29.871094 16.886719 29.785156 16.929688 29.738281 C 16.976562 29.683594 17.015625 29.570312 17.015625 29.484375 C 17.015625 29.347656 16.992188 29.320312 16.921875 29.347656 C 16.867188 29.375 16.71875 29.421875 16.585938 29.464844 C 16.453125 29.511719 16.269531 29.570312 16.179688 29.605469 C 16.089844 29.636719 15.925781 29.664062 15.820312 29.664062 C 15.640625 29.664062 15.621094 29.652344 15.679688 29.5625 C 15.71875 29.511719 15.78125 29.464844 15.824219 29.464844 C 15.878906 29.464844 15.882812 29.429688 15.851562 29.355469 C 15.777344 29.195312 15.839844 28.941406 15.960938 28.898438 C 16.054688 28.871094 16.058594 28.851562 16.003906 28.765625 C 15.957031 28.699219 15.945312 28.597656 15.980469 28.476562 C 16 28.367188 16.011719 28.253906 16.003906 28.207031 C 16 28.167969 16.046875 28.113281 16.105469 28.085938 C 16.164062 28.058594 16.277344 27.972656 16.347656 27.890625 C 16.453125 27.765625 16.476562 27.691406 16.449219 27.535156 C 16.410156 27.300781 16.484375 27.207031 16.628906 27.308594 C 16.703125 27.355469 16.726562 27.429688 16.703125 27.582031 C 16.675781 27.832031 16.769531 27.984375 16.953125 27.984375 C 17.027344 27.984375 17.167969 28.046875 17.257812 28.113281 C 17.386719 28.214844 17.433594 28.300781 17.453125 28.503906 C 17.472656 28.664062 17.453125 28.796875 17.410156 28.867188 C 17.363281 28.921875 17.332031 29.027344 17.332031 29.101562 C 17.332031 29.175781 17.296875 29.296875 17.253906 29.367188 C 17.210938 29.4375 17.171875 29.570312 17.171875 29.664062 C 17.171875 29.757812 17.125 29.925781 17.070312 30.046875 C 16.992188 30.207031 16.976562 30.300781 17.015625 30.449219 C 17.046875 30.550781 17.09375 30.945312 17.125 31.320312 L 17.183594 32.015625 L 20.046875 32.015625 L 20.0625 31.832031 C 20.074219 31.71875 20.117188 31.636719 20.175781 31.625 C 20.246094 31.605469 20.265625 31.644531 20.265625 31.804688 C 20.265625 31.992188 20.28125 32.015625 20.425781 32.015625 L 20.585938 32.015625 L 20.585938 31.390625 C 20.585938 31.054688 20.601562 30.609375 20.625 30.417969 C 20.65625 30.074219 20.660156 30.058594 20.789062 30.101562 C 20.859375 30.121094 21.015625 30.234375 21.125 30.347656 C 21.3125 30.535156 21.355469 30.550781 21.582031 30.511719 C 21.730469 30.488281 21.855469 30.421875 21.882812 30.363281 C 21.921875 30.28125 21.980469 30.269531 22.109375 30.300781 C 22.320312 30.347656 22.75 30.140625 22.804688 29.972656 C 22.867188 29.757812 23.203125 29.796875 23.316406 30.035156 C 23.339844 30.078125 23.488281 30.203125 23.652344 30.296875 C 23.867188 30.429688 23.988281 30.46875 24.105469 30.4375 C 24.191406 30.410156 24.347656 30.421875 24.4375 30.457031 C 24.535156 30.488281 24.75 30.5625 24.929688 30.609375 C 25.097656 30.660156 25.25 30.738281 25.265625 30.785156 C 25.28125 30.832031 25.269531 31.074219 25.242188 31.320312 C 25.164062 32.015625 25.164062 32.015625 25.683594 32.015625 C 25.960938 32.015625 26.132812 31.984375 26.132812 31.945312 C 26.132812 31.90625 26.03125 31.730469 25.902344 31.554688 C 25.648438 31.203125 25.464844 30.765625 25.550781 30.703125 C 25.601562 30.664062 26.238281 31.128906 26.589844 31.457031 C 26.683594 31.535156 26.832031 31.632812 26.921875 31.652344 C 27.070312 31.691406 27.09375 31.679688 27.09375 31.550781 C 27.09375 31.476562 27.078125 31.417969 27.054688 31.417969 C 26.886719 31.449219 26.867188 31.402344 26.90625 30.972656 C 26.945312 30.554688 26.9375 30.535156 26.832031 30.535156 C 26.757812 30.535156 26.71875 30.496094 26.71875 30.410156 C 26.71875 30.230469 26.800781 30.179688 26.886719 30.308594 C 26.9375 30.390625 27.015625 30.410156 27.210938 30.375 C 27.460938 30.328125 27.5 30.363281 27.472656 30.5625 C 27.464844 30.597656 27.582031 30.605469 27.738281 30.589844 C 27.972656 30.554688 28.015625 30.570312 28.039062 30.679688 C 28.0625 30.792969 28.121094 30.804688 28.558594 30.804688 C 29.015625 30.804688 29.054688 30.792969 29.082031 30.664062 C 29.109375 30.542969 29.136719 30.53125 29.363281 30.578125 C 29.546875 30.609375 29.605469 30.605469 29.578125 30.542969 C 29.558594 30.503906 29.578125 30.449219 29.632812 30.421875 C 29.78125 30.355469 30.089844 29.925781 30.058594 29.832031 C 30.019531 29.699219 29.777344 29.511719 29.707031 29.5625 C 29.675781 29.589844 29.660156 29.652344 29.675781 29.699219 C 29.683594 29.746094 29.667969 29.839844 29.632812 29.90625 C 29.578125 29.992188 29.519531 30.015625 29.359375 29.980469 C 29.230469 29.953125 29.109375 29.972656 29.019531 30.035156 C 28.902344 30.109375 28.789062 30.113281 28.476562 30.058594 C 28.257812 30.027344 27.996094 29.984375 27.890625 29.972656 C 27.78125 29.960938 27.609375 29.898438 27.515625 29.839844 C 27.414062 29.785156 27.152344 29.660156 26.933594 29.570312 C 26.40625 29.347656 26.199219 29.25 25.972656 29.09375 C 25.785156 28.964844 25.441406 28.792969 25.039062 28.632812 L 24.832031 28.542969 L 24.835938 27.476562 C 24.855469 25.679688 24.703125 24.730469 24.378906 24.597656 C 24.15625 24.511719 23.890625 24.542969 23.742188 24.679688 C 23.632812 24.777344 23.570312 24.796875 23.503906 24.75 C 23.441406 24.710938 23.3125 24.726562 23.105469 24.796875 C 22.9375 24.859375 22.742188 24.925781 22.667969 24.945312 C 22.589844 24.964844 22.492188 25.027344 22.441406 25.085938 C 22.390625 25.140625 22.308594 25.167969 22.257812 25.132812 C 22.171875 25.09375 22.175781 25.078125 22.308594 24.992188 C 22.390625 24.941406 22.453125 24.871094 22.453125 24.839844 C 22.453125 24.804688 22.507812 24.757812 22.578125 24.730469 C 22.667969 24.699219 22.671875 24.679688 22.613281 24.652344 C 22.570312 24.632812 22.511719 24.570312 22.492188 24.523438 C 22.441406 24.417969 22.1875 24.394531 22.1875 24.496094 C 22.1875 24.617188 21.960938 24.5625 21.792969 24.410156 C 21.542969 24.175781 21.453125 24.148438 21.386719 24.296875 C 21.324219 24.445312 21.199219 24.46875 21.15625 24.347656 C 21.144531 24.300781 21.179688 24.078125 21.238281 23.859375 C 21.355469 23.394531 21.472656 21.941406 21.417969 21.582031 C 21.355469 21.148438 21.226562 21.363281 21.226562 21.921875 C 21.226562 22.066406 21.195312 22.320312 21.152344 22.488281 C 21.023438 23 20.90625 23.730469 20.90625 24.015625 C 20.90625 24.167969 20.886719 24.308594 20.855469 24.328125 C 20.828125 24.347656 20.800781 24.445312 20.800781 24.53125 C 20.800781 24.699219 20.625 24.898438 20.476562 24.898438 C 20.421875 24.898438 20.316406 24.984375 20.230469 25.085938 C 20.054688 25.316406 19.929688 25.300781 19.980469 25.058594 C 20 24.972656 19.984375 24.851562 19.945312 24.796875 C 19.859375 24.671875 19.835938 24.085938 19.910156 23.964844 C 19.953125 23.898438 19.953125 23.859375 19.890625 23.796875 C 19.765625 23.683594 19.652344 23.421875 19.550781 23.039062 C 19.503906 22.851562 19.429688 22.679688 19.398438 22.660156 C 19.347656 22.625 19.347656 22.609375 19.402344 22.578125 C 19.507812 22.515625 19.484375 22.214844 19.363281 22.214844 C 19.242188 22.214844 19.136719 22.058594 19.15625 21.90625 C 19.167969 21.832031 19.105469 21.746094 18.964844 21.660156 C 18.746094 21.515625 18.453125 21.054688 18.390625 20.75 C 18.335938 20.511719 18.363281 20.503906 18.546875 20.703125 C 18.636719 20.796875 18.746094 20.871094 18.789062 20.871094 C 18.894531 20.871094 18.996094 21.039062 18.976562 21.1875 C 18.964844 21.273438 18.996094 21.316406 19.105469 21.328125 C 19.1875 21.339844 19.265625 21.402344 19.28125 21.484375 C 19.304688 21.589844 19.34375 21.605469 19.523438 21.570312 C 19.683594 21.535156 19.761719 21.554688 19.839844 21.644531 C 19.921875 21.738281 19.960938 21.75 20.011719 21.691406 C 20.054688 21.636719 20.046875 21.605469 19.980469 21.570312 C 19.824219 21.496094 19.730469 21.175781 19.765625 20.867188 C 19.808594 20.550781 19.71875 20.402344 19.484375 20.402344 C 19.410156 20.402344 19.359375 20.363281 19.359375 20.296875 C 19.359375 20.101562 19.070312 19.53125 18.976562 19.53125 C 18.921875 19.53125 18.878906 19.496094 18.878906 19.464844 C 18.878906 19.421875 18.921875 19.394531 18.976562 19.410156 C 19.035156 19.421875 19.070312 19.382812 19.082031 19.273438 C 19.105469 19.109375 18.996094 19.078125 18.832031 19.207031 C 18.75 19.269531 18.714844 19.261719 18.644531 19.179688 C 18.597656 19.121094 18.535156 19.058594 18.496094 19.039062 C 18.4375 19.015625 18.4375 18.992188 18.496094 18.921875 C 18.546875 18.847656 18.582031 18.847656 18.671875 18.914062 C 18.800781 19.015625 18.855469 18.980469 18.8125 18.824219 C 18.789062 18.757812 18.703125 18.726562 18.554688 18.726562 C 18.40625 18.726562 18.347656 18.699219 18.359375 18.644531 C 18.382812 18.550781 18.984375 18.488281 19.035156 18.570312 C 19.050781 18.605469 19.144531 18.699219 19.25 18.785156 C 19.390625 18.914062 19.445312 18.925781 19.550781 18.867188 C 19.777344 18.738281 19.683594 18.523438 19.410156 18.523438 C 19.347656 18.523438 19.1875 18.464844 19.054688 18.382812 C 18.84375 18.261719 18.75 18.25 18.4375 18.289062 C 18.070312 18.328125 18.0625 18.328125 17.910156 18.113281 C 17.765625 17.921875 17.75 17.859375 17.769531 17.570312 C 17.796875 17.269531 17.785156 17.234375 17.648438 17.109375 C 17.464844 16.945312 17.445312 16.777344 17.601562 16.730469 C 17.660156 16.710938 17.707031 16.671875 17.707031 16.636719 C 17.707031 16.515625 17.578125 16.242188 17.519531 16.242188 C 17.453125 16.242188 17.316406 15.8125 17.3125 15.578125 C 17.304688 15.308594 17.199219 15.347656 17.113281 15.652344 C 17.007812 16.015625 16.90625 16.058594 16.90625 15.75 C 16.90625 15.617188 16.933594 15.503906 16.964844 15.488281 C 16.996094 15.476562 17.015625 15.363281 17.003906 15.234375 L 16.984375 15 L 16.863281 15.296875 C 16.800781 15.464844 16.746094 15.652344 16.746094 15.71875 C 16.746094 15.921875 16.542969 16.363281 16.398438 16.484375 C 16.324219 16.542969 16.265625 16.652344 16.265625 16.71875 C 16.265625 16.792969 16.246094 16.847656 16.214844 16.847656 C 16.144531 16.847656 16.144531 16.597656 16.214844 16.5625 C 16.246094 16.550781 16.246094 16.464844 16.214844 16.308594 C 16.1875 16.179688 16.15625 15.726562 16.140625 15.300781 C 16.117188 14.652344 16.101562 14.515625 16.015625 14.449219 C 15.925781 14.367188 15.921875 14.410156 15.921875 15.230469 C 15.914062 15.804688 15.894531 16.128906 15.851562 16.195312 C 15.8125 16.25 15.792969 16.347656 15.792969 16.417969 C 15.820312 16.757812 15.710938 16.925781 15.648438 16.660156 C 15.632812 16.597656 15.574219 16.4375 15.515625 16.296875 C 15.453125 16.148438 15.398438 15.832031 15.371094 15.464844 C 15.347656 15.09375 15.304688 14.867188 15.269531 14.847656 C 15.222656 14.832031 15.199219 14.898438 15.199219 15.046875 C 15.199219 15.175781 15.164062 15.335938 15.121094 15.410156 C 15.050781 15.515625 15.035156 15.523438 14.984375 15.4375 C 14.960938 15.382812 14.933594 15.179688 14.933594 15 C 14.933594 14.652344 14.714844 13.726562 14.636719 13.726562 C 14.542969 13.726562 14.496094 14.90625 14.558594 15.503906 C 14.644531 16.273438 14.652344 16.390625 14.582031 16.421875 C 14.542969 16.4375 14.46875 16.25 14.398438 15.980469 C 14.292969 15.578125 14.28125 15.46875 14.335938 15.261719 C 14.394531 15.007812 14.351562 14.820312 14.1875 14.660156 C 14.089844 14.5625 13.980469 13.964844 13.972656 13.542969 C 13.972656 13.195312 13.941406 13.140625 13.765625 13.203125 C 13.683594 13.230469 13.660156 13.273438 13.679688 13.355469 C 13.710938 13.488281 13.632812 13.589844 13.546875 13.523438 C 13.515625 13.496094 13.507812 13.4375 13.535156 13.375 C 13.59375 13.253906 13.464844 12.886719 13.371094 12.886719 C 13.332031 12.886719 13.25 12.730469 13.171875 12.535156 C 12.949219 11.953125 12.703125 11.933594 12.777344 12.496094 C 12.796875 12.636719 12.789062 12.75 12.761719 12.75 C 12.734375 12.75 12.535156 12.53125 12.316406 12.261719 C 12.097656 12 11.8125 11.699219 11.695312 11.589844 C 11.546875 11.46875 11.460938 11.339844 11.441406 11.203125 C 11.417969 11.074219 11.355469 10.972656 11.28125 10.941406 C 11.210938 10.90625 11.140625 10.820312 11.121094 10.738281 C 11.097656 10.660156 10.992188 10.550781 10.875 10.496094 C 10.625 10.367188 10.597656 10.203125 10.828125 10.203125 C 10.960938 10.203125 10.984375 10.175781 10.984375 10.046875 C 10.984375 9.964844 10.921875 9.820312 10.835938 9.71875 C 10.757812 9.625 10.609375 9.429688 10.507812 9.296875 C 10.40625 9.160156 10.257812 9.015625 10.179688 8.960938 C 10.101562 8.90625 10.027344 8.820312 10.011719 8.757812 C 9.988281 8.703125 9.945312 8.660156 9.902344 8.660156 C 9.800781 8.660156 9.621094 8.390625 9.582031 8.1875 C 9.5625 8.09375 9.410156 7.832031 9.230469 7.605469 C 9.015625 7.320312 8.917969 7.148438 8.945312 7.078125 C 8.964844 7.007812 8.9375 6.960938 8.867188 6.941406 C 8.816406 6.921875 8.742188 6.847656 8.707031 6.777344 C 8.644531 6.652344 8.644531 6.632812 8.828125 5.925781 L 8.917969 5.578125 L 8.644531 5.230469 C 8.4375 4.964844 8.351562 4.898438 8.308594 4.953125 C 8.265625 5.007812 8.265625 5.09375 8.308594 5.289062 C 8.347656 5.4375 8.375 5.839844 8.375 6.179688 L 8.375 6.8125 L 8.1875 6.972656 C 8.011719 7.121094 7.96875 7.128906 7.359375 7.101562 C 7.007812 7.085938 6.703125 7.046875 6.683594 7.019531 C 6.660156 6.992188 6.683594 6.933594 6.730469 6.886719 C 6.820312 6.804688 6.820312 6.792969 6.714844 6.671875 C 6.65625 6.605469 6.566406 6.464844 6.515625 6.363281 C 6.417969 6.148438 6.375 6.132812 6.144531 6.28125 C 5.972656 6.390625 5.761719 6.355469 5.761719 6.230469 C 5.761719 6.195312 5.792969 6.175781 5.835938 6.195312 C 5.878906 6.214844 5.972656 6.175781 6.042969 6.101562 C 6.117188 6.035156 6.203125 5.972656 6.230469 5.972656 C 6.261719 5.972656 6.296875 5.914062 6.320312 5.847656 C 6.335938 5.769531 6.40625 5.699219 6.46875 5.683594 C 6.566406 5.660156 6.558594 5.652344 6.441406 5.644531 C 6.261719 5.636719 6.246094 5.488281 6.410156 5.355469 C 6.515625 5.269531 6.523438 5.234375 6.46875 5.078125 C 6.390625 4.871094 6.453125 4.792969 6.675781 4.824219 C 6.859375 4.847656 6.863281 4.757812 6.71875 4.488281 C 6.617188 4.316406 6.585938 4.300781 6.378906 4.335938 C 6.234375 4.363281 6.132812 4.347656 6.109375 4.300781 C 6.089844 4.261719 6.03125 4.230469 5.980469 4.230469 C 5.910156 4.230469 5.839844 4.109375 5.742188 3.824219 C 5.519531 3.175781 5.046875 2.90625 4.699219 3.230469 C 4.464844 3.445312 4.101562 3.476562 3.898438 3.296875 C 3.691406 3.109375 3.691406 3.039062 3.910156 2.8125 C 4 2.710938 4.070312 2.617188 4.054688 2.605469 C 4.039062 2.589844 3.882812 2.464844 3.707031 2.316406 C 3.53125 2.167969 3.28125 1.925781 3.140625 1.777344 C 2.886719 1.496094 2.773438 1.410156 2.160156 1 C 1.957031 0.867188 1.78125 0.703125 1.769531 0.644531 C 1.742188 0.496094 1.226562 0.488281 1.226562 0.636719 C 1.226562 0.691406 1.253906 0.738281 1.28125 0.738281 C 1.3125 0.738281 1.332031 0.796875 1.332031 0.871094 C 1.332031 0.960938 1.296875 1.007812 1.226562 1.007812 C 1.066406 1.007812 0.855469 0.8125 0.855469 0.664062 C 0.855469 0.511719 0.667969 0.488281 0.617188 0.644531 Z M 24.347656 25.777344 C 24.324219 25.886719 24.289062 25.960938 24.265625 25.941406 C 24.238281 25.921875 24.25 25.984375 24.292969 26.085938 C 24.335938 26.1875 24.375 26.347656 24.375 26.4375 C 24.375 26.597656 24.375 26.597656 24.277344 26.46875 C 24.144531 26.28125 24 25.984375 24 25.898438 C 24 25.851562 24.042969 25.777344 24.097656 25.730469 C 24.164062 25.664062 24.171875 25.632812 24.121094 25.570312 C 24.042969 25.464844 23.691406 25.792969 23.667969 25.992188 C 23.648438 26.203125 23.417969 26.234375 23.375 26.046875 C 23.34375 25.886719 23.199219 25.851562 23.199219 26.007812 C 23.199219 26.058594 23.164062 26.109375 23.113281 26.109375 C 22.980469 26.109375 23.050781 25.886719 23.210938 25.785156 C 23.296875 25.738281 23.382812 25.605469 23.417969 25.46875 C 23.460938 25.320312 23.523438 25.234375 23.582031 25.234375 C 23.703125 25.234375 23.707031 25.320312 23.601562 25.464844 C 23.558594 25.515625 23.519531 25.589844 23.519531 25.632812 C 23.519531 25.757812 23.636719 25.710938 23.742188 25.535156 C 23.800781 25.445312 23.871094 25.367188 23.898438 25.367188 C 23.925781 25.367188 24.003906 25.308594 24.070312 25.234375 L 24.179688 25.09375 L 24.28125 25.339844 C 24.347656 25.503906 24.367188 25.644531 24.347656 25.777344 Z M 23.679688 26.320312 C 23.679688 26.363281 23.621094 26.464844 23.546875 26.550781 C 23.382812 26.746094 23.363281 26.878906 23.523438 26.777344 C 23.582031 26.730469 23.679688 26.644531 23.738281 26.570312 C 23.855469 26.421875 24 26.46875 24 26.652344 C 24 26.726562 24.054688 26.878906 24.121094 26.984375 L 24.238281 27.195312 L 24.128906 27.308594 C 24.070312 27.367188 24 27.503906 23.984375 27.597656 C 23.960938 27.699219 23.898438 27.8125 23.839844 27.851562 C 23.78125 27.890625 23.734375 27.964844 23.734375 28.019531 C 23.734375 28.140625 23.523438 28.152344 23.515625 28.035156 C 23.507812 27.992188 23.503906 27.867188 23.5 27.75 C 23.492188 27.488281 23.304688 27.417969 23.304688 27.679688 C 23.304688 27.890625 23.210938 27.898438 23.019531 27.710938 C 22.855469 27.542969 22.84375 27.445312 22.984375 27.328125 C 23.09375 27.25 23.136719 27.046875 23.046875 27.046875 C 23.019531 27.046875 22.972656 27.09375 22.933594 27.148438 C 22.894531 27.203125 22.8125 27.25 22.742188 27.25 C 22.546875 27.25 22.578125 27.019531 22.789062 26.851562 C 22.886719 26.777344 23.027344 26.617188 23.109375 26.488281 C 23.230469 26.296875 23.292969 26.253906 23.464844 26.253906 C 23.582031 26.25 23.679688 26.28125 23.679688 26.320312 Z M 23.679688 26.320312 "/>
<path style=" stroke:none;fill-rule:nonzero;fill:rgb(0%,0%,0%);fill-opacity:1;" d="M 19.839844 1.578125 C 19.839844 1.644531 19.78125 1.679688 19.652344 1.679688 C 19.5 1.679688 19.464844 1.703125 19.464844 1.820312 C 19.464844 1.945312 19.445312 1.953125 19.285156 1.921875 C 19.136719 1.886719 19.105469 1.898438 19.078125 2.007812 C 19.0625 2.101562 19.019531 2.128906 18.945312 2.101562 C 18.863281 2.078125 18.761719 2.167969 18.542969 2.445312 C 18.375 2.664062 18.203125 2.820312 18.140625 2.820312 C 18.03125 2.820312 18.003906 2.871094 18.019531 3.085938 C 18.03125 3.203125 17.839844 3.488281 17.761719 3.488281 C 17.730469 3.488281 17.707031 3.535156 17.707031 3.589844 C 17.707031 3.652344 17.667969 3.710938 17.621094 3.738281 C 17.558594 3.765625 17.546875 3.832031 17.570312 3.972656 C 17.59375 4.132812 17.578125 4.179688 17.492188 4.207031 C 17.390625 4.242188 17.386719 4.300781 17.386719 5.203125 C 17.386719 6.066406 17.398438 6.160156 17.484375 6.1875 C 17.5625 6.214844 17.574219 6.273438 17.558594 6.46875 C 17.542969 6.660156 17.550781 6.710938 17.621094 6.710938 C 17.683594 6.710938 17.707031 6.769531 17.707031 6.941406 C 17.707031 7.078125 17.738281 7.179688 17.792969 7.207031 C 17.835938 7.230469 17.855469 7.28125 17.839844 7.320312 C 17.820312 7.363281 17.878906 7.484375 17.96875 7.597656 C 18.058594 7.710938 18.132812 7.871094 18.132812 7.960938 C 18.132812 8.046875 18.160156 8.121094 18.1875 8.121094 C 18.289062 8.121094 18.453125 8.390625 18.453125 8.554688 C 18.453125 8.664062 18.484375 8.726562 18.535156 8.726562 C 18.597656 8.726562 18.613281 8.839844 18.613281 9.363281 C 18.613281 9.847656 18.628906 10.015625 18.6875 10.039062 C 18.742188 10.066406 18.75 10.160156 18.730469 10.367188 C 18.699219 10.726562 18.75 11.007812 18.847656 11.007812 C 18.902344 11.007812 18.910156 11.09375 18.890625 11.339844 C 18.867188 11.609375 18.886719 11.683594 18.953125 11.71875 C 19.003906 11.738281 19.039062 11.832031 19.039062 11.921875 C 19.039062 12.015625 19.078125 12.101562 19.121094 12.121094 C 19.164062 12.148438 19.199219 12.222656 19.199219 12.296875 C 19.199219 12.363281 19.28125 12.515625 19.375 12.632812 C 19.484375 12.757812 19.523438 12.847656 19.484375 12.867188 C 19.445312 12.886719 19.414062 12.941406 19.414062 12.984375 C 19.414062 13.035156 19.363281 13.085938 19.304688 13.109375 C 19.222656 13.132812 19.199219 13.203125 19.199219 13.417969 C 19.199219 13.617188 19.179688 13.691406 19.121094 13.691406 C 19.078125 13.691406 19.039062 13.75 19.039062 13.824219 C 19.039062 13.898438 19.019531 13.960938 18.992188 13.960938 C 18.964844 13.960938 18.933594 14.027344 18.921875 14.109375 C 18.90625 14.242188 18.878906 14.253906 18.601562 14.234375 C 18.351562 14.222656 18.292969 14.234375 18.292969 14.320312 C 18.292969 14.382812 18.261719 14.429688 18.21875 14.429688 C 18.140625 14.429688 18.078125 14.570312 18.078125 14.765625 C 18.078125 14.839844 18.03125 14.925781 17.972656 14.964844 C 17.914062 15.007812 17.867188 15.078125 17.867188 15.140625 C 17.867188 15.25 18.117188 15.90625 18.160156 15.90625 C 18.203125 15.90625 18.351562 15.417969 18.410156 15.074219 C 18.449219 14.847656 18.496094 14.738281 18.566406 14.71875 C 18.617188 14.699219 18.667969 14.660156 18.667969 14.632812 C 18.667969 14.597656 18.820312 14.554688 19.007812 14.53125 C 19.257812 14.496094 19.390625 14.511719 19.523438 14.582031 C 19.625 14.636719 19.769531 14.703125 19.851562 14.726562 C 19.941406 14.75 20 14.820312 20.011719 14.914062 C 20.03125 15.101562 20.160156 15.152344 20.160156 14.972656 C 20.160156 14.890625 20.140625 14.832031 20.117188 14.832031 C 20.089844 14.832031 20.0625 14.703125 20.0625 14.542969 C 20.058594 14.390625 20.054688 14.203125 20.046875 14.128906 C 20.042969 14.054688 20.054688 13.945312 20.074219 13.886719 C 20.101562 13.8125 20.078125 13.738281 20.027344 13.683594 C 19.753906 13.402344 19.519531 13.085938 19.519531 12.992188 C 19.519531 12.847656 19.664062 12.859375 19.824219 13.015625 C 20.019531 13.214844 20.496094 13.367188 20.652344 13.296875 C 20.71875 13.253906 20.910156 13.195312 21.078125 13.152344 C 21.242188 13.113281 21.410156 13.039062 21.441406 12.984375 C 21.535156 12.839844 21.453125 12.632812 21.25 12.535156 C 21.152344 12.496094 21.066406 12.429688 21.066406 12.394531 C 21.066406 12.367188 21.140625 12.261719 21.226562 12.167969 C 21.441406 11.941406 21.429688 11.878906 21.164062 11.878906 C 20.9375 11.878906 20.523438 11.691406 20.457031 11.554688 C 20.441406 11.523438 20.367188 11.511719 20.292969 11.53125 C 20.175781 11.554688 20.160156 11.535156 20.160156 11.355469 C 20.160156 11.242188 20.199219 11.121094 20.238281 11.09375 C 20.28125 11.058594 20.367188 10.921875 20.425781 10.769531 C 20.542969 10.488281 20.492188 10.300781 20.316406 10.367188 C 20.199219 10.417969 20.117188 10.273438 20.21875 10.195312 C 20.261719 10.160156 20.40625 10.132812 20.542969 10.132812 C 20.832031 10.132812 20.929688 10.035156 20.695312 9.972656 C 20.546875 9.941406 20.457031 9.730469 20.585938 9.730469 C 20.65625 9.730469 20.757812 9.214844 20.71875 9.054688 C 20.675781 8.890625 20.578125 8.824219 20.128906 8.652344 C 19.914062 8.5625 19.785156 8.484375 19.800781 8.4375 C 19.8125 8.390625 19.867188 8.179688 19.914062 7.972656 C 19.972656 7.726562 20.039062 7.578125 20.101562 7.550781 C 20.160156 7.53125 20.375 7.609375 20.613281 7.75 C 21.003906 7.972656 21.035156 7.980469 21.125 7.878906 C 21.179688 7.820312 21.210938 7.738281 21.195312 7.703125 C 21.125 7.5625 21.226562 7.328125 21.382812 7.296875 C 21.464844 7.269531 21.542969 7.203125 21.558594 7.128906 C 21.582031 7.007812 21.609375 7.007812 22.191406 7.085938 C 22.527344 7.132812 22.832031 7.175781 22.863281 7.175781 C 22.902344 7.179688 22.949219 7.261719 22.964844 7.363281 C 23.015625 7.617188 23.089844 7.71875 23.222656 7.71875 C 23.28125 7.71875 23.410156 7.777344 23.492188 7.851562 C 23.640625 7.972656 23.839844 8.035156 23.839844 7.953125 C 23.839844 7.933594 23.808594 7.859375 23.777344 7.785156 C 23.730469 7.683594 23.722656 7.636719 23.769531 7.578125 C 23.851562 7.476562 23.945312 7.554688 23.945312 7.738281 C 23.953125 7.921875 24.078125 8.148438 24.148438 8.09375 C 24.179688 8.074219 24.191406 8 24.175781 7.933594 C 24.148438 7.796875 24.390625 7.542969 24.476562 7.609375 C 24.496094 7.632812 24.507812 7.578125 24.496094 7.488281 C 24.476562 7.375 24.5 7.320312 24.585938 7.296875 C 24.6875 7.261719 24.695312 7.242188 24.636719 7.101562 C 24.597656 7.019531 24.511719 6.890625 24.441406 6.824219 C 24.320312 6.703125 24.160156 6.402344 24.25 6.457031 C 24.269531 6.46875 24.359375 6.523438 24.4375 6.570312 C 24.511719 6.625 24.589844 6.71875 24.601562 6.785156 C 24.617188 6.859375 24.667969 6.914062 24.714844 6.914062 C 24.796875 6.914062 24.800781 6.796875 24.789062 5.925781 L 24.773438 4.941406 L 24.640625 4.898438 C 24.515625 4.859375 24.511719 4.851562 24.601562 4.792969 C 24.667969 4.746094 24.699219 4.664062 24.683594 4.554688 C 24.671875 4.429688 24.613281 4.375 24.417969 4.300781 C 24.269531 4.25 24.160156 4.167969 24.160156 4.128906 C 24.160156 4.085938 24.132812 4.019531 24.097656 3.972656 C 24.046875 3.914062 24.011719 3.921875 23.941406 4 C 23.859375 4.09375 23.851562 4.085938 23.820312 3.925781 C 23.792969 3.785156 23.753906 3.757812 23.601562 3.757812 C 23.464844 3.757812 23.414062 3.785156 23.414062 3.867188 C 23.414062 3.925781 23.382812 3.960938 23.347656 3.941406 C 23.285156 3.914062 23.199219 3.878906 22.699219 3.683594 C 22.589844 3.644531 22.515625 3.652344 22.46875 3.703125 C 22.417969 3.757812 22.347656 3.757812 22.199219 3.703125 C 21.796875 3.550781 21.589844 3.496094 21.515625 3.535156 C 21.355469 3.609375 21.5 3.824219 21.710938 3.824219 C 21.792969 3.824219 21.882812 3.871094 21.921875 3.925781 C 21.957031 3.980469 22.03125 4.027344 22.089844 4.027344 C 22.148438 4.027344 22.304688 4.113281 22.4375 4.230469 C 22.566406 4.335938 22.683594 4.429688 22.699219 4.429688 C 22.796875 4.429688 23.398438 5.222656 23.484375 5.449219 C 23.515625 5.554688 23.5625 5.636719 23.578125 5.636719 C 23.601562 5.636719 23.632812 5.8125 23.652344 6.019531 C 23.675781 6.242188 23.761719 6.578125 23.851562 6.796875 C 23.972656 7.09375 24 7.207031 23.953125 7.269531 C 23.859375 7.382812 23.722656 7.25 23.667969 6.992188 C 23.621094 6.769531 23.578125 6.730469 23.488281 6.847656 C 23.453125 6.890625 23.375 6.851562 23.257812 6.726562 C 22.789062 6.242188 22.609375 6.074219 22.453125 6 C 22.410156 5.980469 22.292969 5.921875 22.199219 5.867188 C 22.101562 5.8125 21.988281 5.769531 21.941406 5.769531 C 21.898438 5.769531 21.800781 5.71875 21.730469 5.660156 C 21.609375 5.5625 21.441406 5.542969 20.660156 5.550781 C 20.027344 5.550781 19.707031 5.578125 19.667969 5.625 C 19.59375 5.71875 19.304688 5.730469 19.304688 5.644531 C 19.304688 5.609375 19.359375 5.5625 19.429688 5.535156 C 19.542969 5.488281 19.542969 5.488281 19.441406 5.457031 C 19.386719 5.4375 19.328125 5.457031 19.316406 5.496094 C 19.296875 5.578125 19.082031 5.597656 19.023438 5.53125 C 18.8125 5.261719 19.957031 4.832031 20.902344 4.832031 C 21.574219 4.832031 22.015625 4.980469 22.761719 5.445312 C 23.433594 5.859375 23.546875 5.824219 23.199219 5.300781 C 22.863281 4.796875 22.457031 4.484375 21.710938 4.128906 C 21.398438 3.980469 20.1875 3.972656 19.9375 4.121094 C 19.839844 4.175781 19.675781 4.25 19.574219 4.28125 C 19.472656 4.320312 19.34375 4.367188 19.296875 4.394531 C 19.238281 4.421875 19.199219 4.417969 19.199219 4.367188 C 19.199219 4.328125 19.238281 4.296875 19.28125 4.296875 C 19.328125 4.296875 19.375 4.25 19.390625 4.195312 C 19.414062 4.140625 19.453125 4.09375 19.488281 4.09375 C 19.519531 4.09375 19.609375 4.054688 19.683594 4 C 19.761719 3.953125 19.910156 3.890625 20.015625 3.867188 C 20.160156 3.832031 20.214844 3.785156 20.214844 3.699219 C 20.214844 3.582031 20.257812 3.578125 20.6875 3.609375 C 21.007812 3.632812 21.167969 3.617188 21.195312 3.5625 C 21.222656 3.515625 21.183594 3.488281 21.097656 3.488281 C 21.023438 3.488281 20.953125 3.464844 20.9375 3.429688 C 20.921875 3.402344 20.800781 3.382812 20.671875 3.394531 C 20.476562 3.417969 20.417969 3.390625 20.351562 3.28125 C 20.308594 3.203125 20.25 3.160156 20.214844 3.1875 C 20.105469 3.269531 20 3.085938 20.039062 2.878906 C 20.054688 2.765625 20.039062 2.605469 20 2.511719 C 19.9375 2.367188 19.941406 2.328125 20.042969 2.195312 C 20.105469 2.109375 20.160156 1.984375 20.160156 1.925781 C 20.160156 1.867188 20.207031 1.785156 20.265625 1.746094 C 20.476562 1.605469 20.394531 1.476562 20.105469 1.476562 C 19.902344 1.476562 19.839844 1.503906 19.839844 1.578125 Z M 19.839844 1.578125 "/>
<path style=" stroke:none;fill-rule:nonzero;fill:rgb(0%,0%,0%);fill-opacity:1;" d="M 20.976562 14.484375 C 20.878906 14.730469 20.800781 14.964844 20.800781 15.007812 C 20.800781 15.074219 21.414062 16.273438 21.558594 16.488281 C 21.683594 16.683594 21.695312 16.476562 21.574219 16.128906 C 21.5 15.925781 21.441406 15.632812 21.441406 15.484375 C 21.441406 15.261719 21.410156 15.179688 21.269531 15.035156 C 21.078125 14.832031 21.082031 14.582031 21.28125 14.664062 C 21.339844 14.691406 21.386719 14.679688 21.386719 14.636719 C 21.386719 14.597656 21.363281 14.5625 21.339844 14.5625 C 21.3125 14.5625 21.273438 14.445312 21.253906 14.296875 C 21.230469 14.148438 21.199219 14.027344 21.183594 14.027344 C 21.164062 14.027344 21.066406 14.230469 20.976562 14.484375 Z M 20.976562 14.484375 "/>
<path style=" stroke:none;fill-rule:nonzero;fill:rgb(0%,0%,0%);fill-opacity:1;" d="M 19.09375 15.984375 C 19.019531 16.027344 18.804688 16.058594 18.613281 16.066406 C 18.421875 16.066406 18.269531 16.101562 18.269531 16.128906 C 18.289062 16.242188 18.804688 17.140625 18.984375 17.375 C 19.089844 17.511719 19.285156 17.730469 19.421875 17.871094 C 19.5625 18.015625 19.730469 18.234375 19.785156 18.355469 C 19.851562 18.484375 20.074219 18.8125 20.292969 19.085938 C 20.507812 19.355469 20.820312 19.851562 20.992188 20.175781 C 21.355469 20.867188 21.441406 21.007812 21.519531 21.007812 C 21.550781 21.007812 21.675781 21.121094 21.792969 21.269531 C 21.910156 21.410156 22.097656 21.578125 22.207031 21.644531 L 22.40625 21.765625 L 22.589844 21.535156 C 22.695312 21.417969 22.773438 21.269531 22.773438 21.207031 C 22.773438 21.148438 22.585938 20.867188 22.363281 20.578125 L 21.945312 20.054688 L 22.175781 20.09375 C 22.441406 20.140625 22.476562 20.039062 22.261719 19.804688 L 22.128906 19.660156 L 22.351562 19.203125 L 22.238281 19.128906 C 22.144531 19.066406 22.132812 19.015625 22.164062 18.839844 C 22.179688 18.726562 22.261719 18.511719 22.332031 18.367188 C 22.558594 17.914062 22.542969 17.449219 22.308594 17.542969 C 22.222656 17.578125 22.199219 17.664062 22.171875 17.941406 C 22.144531 18.253906 22.011719 18.664062 21.855469 18.90625 C 21.820312 18.964844 21.703125 18.898438 21.417969 18.652344 C 21.203125 18.46875 21.015625 18.320312 20.996094 18.320312 C 20.976562 18.320312 20.777344 18.152344 20.554688 17.945312 C 20.335938 17.738281 20.054688 17.515625 19.929688 17.445312 C 19.808594 17.367188 19.667969 17.28125 19.625 17.25 C 19.472656 17.132812 19.183594 16.980469 19.113281 16.980469 C 19.078125 16.980469 19.019531 16.921875 18.980469 16.839844 C 18.933594 16.71875 18.949219 16.664062 19.113281 16.449219 C 19.386719 16.101562 19.371094 15.847656 19.09375 15.984375 Z M 19.09375 15.984375 "/>
<path style=" stroke:none;fill-rule:nonzero;fill:rgb(0%,0%,0%);fill-opacity:1;" d="M 23.625 18.4375 C 23.363281 18.542969 23.292969 18.582031 22.933594 18.792969 C 22.339844 19.148438 22.320312 19.179688 22.535156 19.355469 C 22.636719 19.445312 22.667969 19.523438 22.667969 19.71875 C 22.667969 19.964844 22.671875 19.972656 22.828125 19.945312 C 23.105469 19.890625 23.132812 19.757812 22.910156 19.503906 C 22.683594 19.230469 22.671875 19.128906 22.859375 19.128906 C 22.933594 19.128906 23.203125 18.992188 23.457031 18.832031 C 23.710938 18.671875 23.972656 18.515625 24.042969 18.488281 C 24.105469 18.46875 24.148438 18.417969 24.132812 18.382812 C 24.089844 18.300781 23.914062 18.316406 23.625 18.4375 Z M 23.625 18.4375 "/>
<path style=" stroke:none;fill-rule:nonzero;fill:rgb(0%,0%,0%);fill-opacity:1;" d="M 24.726562 19.25 C 24.703125 19.316406 24.714844 19.515625 24.746094 19.703125 C 24.777344 19.886719 24.816406 20.132812 24.835938 20.261719 L 24.867188 20.488281 L 25.238281 20.445312 C 25.535156 20.410156 25.609375 20.421875 25.632812 20.503906 C 25.652344 20.554688 25.695312 20.605469 25.734375 20.605469 C 25.777344 20.605469 25.839844 20.644531 25.878906 20.691406 C 26.078125 20.933594 26.261719 21.019531 26.492188 20.984375 C 26.960938 20.921875 27.265625 21.175781 27.171875 21.542969 C 27.15625 21.609375 27.121094 22.222656 27.089844 22.898438 C 27.0625 23.570312 27.023438 24.269531 27.007812 24.4375 L 26.976562 24.75 L 27.292969 24.832031 C 27.460938 24.871094 27.820312 24.933594 28.078125 24.960938 C 28.347656 24.984375 28.613281 25.039062 28.675781 25.085938 C 28.742188 25.132812 28.84375 25.167969 28.90625 25.167969 C 28.972656 25.167969 29.09375 25.253906 29.171875 25.367188 C 29.253906 25.476562 29.34375 25.570312 29.375 25.570312 C 29.402344 25.570312 29.5 25.617188 29.578125 25.671875 C 29.667969 25.730469 29.792969 25.757812 29.882812 25.730469 C 30.085938 25.679688 30.25 25.832031 30.367188 26.179688 C 30.421875 26.339844 30.496094 26.5625 30.539062 26.664062 C 30.582031 26.769531 30.613281 26.886719 30.613281 26.921875 C 30.613281 27.058594 31.007812 27.582031 31.0625 27.515625 C 31.132812 27.429688 31.144531 26.824219 31.082031 26.769531 C 31.050781 26.746094 31.023438 26.652344 31.023438 26.5625 C 31.019531 26.464844 30.980469 26.394531 30.933594 26.402344 C 30.878906 26.410156 30.859375 26.355469 30.863281 26.253906 C 30.875 26.148438 30.847656 26.109375 30.777344 26.109375 C 30.726562 26.109375 30.589844 25.972656 30.476562 25.804688 C 30.363281 25.636719 30.230469 25.503906 30.171875 25.503906 C 30.117188 25.503906 30.089844 25.46875 30.105469 25.4375 C 30.15625 25.335938 30.289062 25.355469 30.378906 25.46875 C 30.425781 25.523438 30.507812 25.570312 30.566406 25.570312 C 30.617188 25.570312 30.667969 25.597656 30.667969 25.636719 C 30.667969 25.671875 30.714844 25.703125 30.773438 25.703125 C 30.832031 25.703125 30.878906 25.671875 30.878906 25.636719 C 30.878906 25.597656 30.832031 25.570312 30.773438 25.570312 C 30.71875 25.570312 30.652344 25.53125 30.628906 25.484375 C 30.585938 25.402344 30.492188 25.320312 30.214844 25.128906 C 29.820312 24.851562 29.238281 24.167969 29.082031 23.796875 C 28.90625 23.382812 29.027344 22.617188 29.285156 22.515625 C 29.339844 22.488281 29.386719 22.4375 29.386719 22.394531 C 29.386719 22.300781 29.285156 22.214844 28.804688 21.898438 C 28.496094 21.699219 28.425781 21.679688 27.996094 21.679688 C 27.53125 21.679688 27.519531 21.671875 27.53125 21.523438 C 27.546875 21.308594 27.324219 20.878906 27.15625 20.796875 C 27.089844 20.765625 26.949219 20.75 26.855469 20.777344 C 26.726562 20.804688 26.609375 20.769531 26.40625 20.636719 C 26.257812 20.542969 26.109375 20.476562 26.089844 20.496094 C 26.070312 20.511719 25.96875 20.46875 25.867188 20.394531 C 25.765625 20.328125 25.636719 20.253906 25.589844 20.230469 C 25.535156 20.207031 25.492188 20.160156 25.492188 20.128906 C 25.492188 20.09375 25.363281 19.945312 25.203125 19.796875 C 25.007812 19.609375 24.910156 19.464844 24.886719 19.328125 C 24.855469 19.101562 24.769531 19.066406 24.726562 19.25 Z M 24.726562 19.25 "/>
<path style=" stroke:none;fill-rule:nonzero;fill:rgb(0%,0%,0%);fill-opacity:1;" d="M 22.777344 21.652344 C 22.578125 21.867188 22.570312 22.066406 22.761719 22.296875 C 23.003906 22.589844 23.144531 22.597656 23.359375 22.316406 L 23.546875 22.074219 L 23.296875 21.769531 C 23.15625 21.609375 23.023438 21.476562 22.992188 21.476562 C 22.964844 21.476562 22.867188 21.554688 22.777344 21.652344 Z M 22.777344 21.652344 "/>
<path style=" stroke:none;fill-rule:nonzero;fill:rgb(0%,0%,0%);fill-opacity:1;" d="M 22.222656 22.203125 C 22.117188 22.347656 22.105469 22.484375 22.203125 22.484375 C 22.265625 22.484375 22.667969 22.820312 22.816406 23 C 22.855469 23.046875 22.933594 23.085938 22.992188 23.085938 C 23.199219 23.085938 24.121094 23.980469 24.191406 24.242188 C 24.234375 24.421875 24.40625 24.445312 24.929688 24.328125 C 25.1875 24.273438 25.410156 24.230469 25.417969 24.230469 C 25.429688 24.230469 25.441406 24.1875 25.441406 24.140625 C 25.441406 24.085938 25.382812 24.015625 25.304688 23.972656 C 25.230469 23.933594 25.171875 23.867188 25.171875 23.832031 C 25.171875 23.796875 25.066406 23.703125 24.9375 23.625 C 24.804688 23.550781 24.492188 23.230469 24.230469 22.921875 C 23.972656 22.605469 23.738281 22.347656 23.71875 22.347656 C 23.695312 22.347656 23.621094 22.417969 23.558594 22.503906 C 23.488281 22.582031 23.371094 22.703125 23.292969 22.769531 C 23.121094 22.914062 23.097656 22.898438 22.667969 22.394531 C 22.515625 22.222656 22.375 22.078125 22.351562 22.078125 C 22.332031 22.078125 22.269531 22.132812 22.222656 22.203125 Z M 22.222656 22.203125 "/>
<path style=" stroke:none;fill-rule:nonzero;fill:rgb(0%,0%,0%);fill-opacity:1;" d="M 19.785156 22.515625 C 19.785156 22.570312 19.835938 22.644531 19.894531 22.683594 C 19.96875 22.730469 20 22.824219 20 22.972656 C 20 23.222656 20.179688 23.757812 20.265625 23.757812 C 20.292969 23.757812 20.320312 23.804688 20.320312 23.859375 C 20.320312 23.914062 20.28125 23.960938 20.238281 23.960938 C 20.128906 23.960938 20.074219 24.160156 20.164062 24.234375 C 20.265625 24.316406 20.296875 24.308594 20.394531 24.1875 C 20.46875 24.101562 20.480469 24.101562 20.480469 24.179688 C 20.480469 24.28125 20.585938 24.363281 20.707031 24.363281 C 20.757812 24.363281 20.769531 24.195312 20.75 23.785156 C 20.742188 23.316406 20.707031 23.160156 20.613281 22.980469 C 20.542969 22.851562 20.480469 22.71875 20.46875 22.683594 C 20.453125 22.617188 20.28125 22.542969 20.070312 22.523438 C 20 22.511719 19.929688 22.484375 19.910156 22.464844 C 19.851562 22.382812 19.785156 22.410156 19.785156 22.515625 Z M 19.785156 22.515625 "/>
<path style=" stroke:none;fill-rule:nonzero;fill:rgb(0%,0%,0%);fill-opacity:1;" d="M 21.9375 30.644531 C 21.921875 30.703125 21.941406 30.839844 21.996094 30.941406 C 22.042969 31.046875 22.0625 31.175781 22.046875 31.234375 C 22.027344 31.300781 22.054688 31.355469 22.109375 31.390625 C 22.238281 31.445312 22.507812 31.8125 22.507812 31.925781 C 22.507812 31.984375 22.589844 32.015625 22.800781 32.015625 C 23.078125 32.015625 23.09375 32.007812 23.09375 31.847656 C 23.09375 31.730469 23.050781 31.652344 22.960938 31.597656 C 22.886719 31.554688 22.828125 31.46875 22.828125 31.402344 C 22.828125 31.335938 22.761719 31.195312 22.6875 31.078125 C 22.578125 30.914062 22.511719 30.871094 22.339844 30.871094 C 22.191406 30.871094 22.132812 30.847656 22.132812 30.769531 C 22.132812 30.679688 22.191406 30.644531 22.335938 30.664062 C 22.367188 30.671875 22.398438 30.644531 22.398438 30.605469 C 22.398438 30.488281 21.972656 30.523438 21.9375 30.644531 Z M 21.9375 30.644531 "/>
</g>
</svg>
