<?xml version="1.0" encoding="UTF-8"?>
<svg xmlns="http://www.w3.org/2000/svg" xmlns:xlink="http://www.w3.org/1999/xlink" width="100px" height="100px" viewBox="0 0 100 100" version="1.1">
<g id="surface1">
<path style=" stroke:none;fill-rule:nonzero;fill:rgb(0%,0%,0%);fill-opacity:1;" d="M 1.933594 2.011719 C 1.882812 2.203125 1.832031 2.808594 1.832031 3.375 C 1.832031 4.109375 1.902344 4.40625 2.066406 4.40625 C 2.199219 4.40625 2.765625 4.992188 3.347656 5.703125 L 4.402344 7.027344 L 3.617188 7.089844 C 2.867188 7.152344 2.832031 7.171875 2.832031 7.800781 C 2.832031 8.535156 3.484375 9.4375 4.015625 9.4375 C 4.183594 9.4375 4.332031 9.582031 4.332031 9.753906 C 4.332031 9.921875 4.449219 10.066406 4.582031 10.066406 C 4.714844 10.066406 4.832031 10.152344 4.832031 10.234375 C 4.832031 10.339844 5.132812 10.570312 5.5 10.78125 C 5.867188 10.988281 6.167969 11.285156 6.167969 11.453125 C 6.167969 11.722656 6.464844 11.847656 6.964844 11.765625 C 7.066406 11.746094 7.167969 11.871094 7.167969 12.058594 C 7.167969 12.230469 7.285156 12.375 7.417969 12.375 C 7.566406 12.375 7.714844 12.519531 7.765625 12.6875 C 7.832031 12.855469 8.050781 13.003906 8.265625 13.003906 C 8.484375 13.003906 8.667969 13.089844 8.667969 13.191406 C 8.667969 13.546875 9.882812 14.910156 10.097656 14.808594 C 10.214844 14.746094 10.449219 14.847656 10.597656 15.058594 C 10.765625 15.246094 11.066406 15.375 11.285156 15.355469 C 11.515625 15.308594 11.699219 15.417969 11.765625 15.605469 C 11.832031 15.8125 12.066406 15.941406 12.347656 15.941406 C 12.632812 15.941406 12.882812 16.066406 12.933594 16.253906 C 13.015625 16.484375 13.285156 16.566406 13.917969 16.566406 C 14.902344 16.566406 15.382812 16.738281 15.234375 17.011719 C 15.183594 17.113281 15.535156 17.199219 15.984375 17.199219 C 16.582031 17.199219 16.832031 17.28125 16.832031 17.492188 C 16.832031 17.683594 16.964844 17.746094 17.265625 17.660156 C 17.683594 17.554688 17.699219 17.597656 17.597656 18.160156 C 17.535156 18.5 17.367188 18.855469 17.234375 18.9375 C 16.816406 19.230469 16.984375 19.816406 17.75 20.660156 C 18.167969 21.121094 18.5 21.667969 18.5 21.875 C 18.5 22.082031 18.683594 22.464844 18.917969 22.734375 C 19.152344 23.007812 19.332031 23.40625 19.332031 23.636719 C 19.332031 23.847656 19.550781 24.246094 19.832031 24.496094 C 20.152344 24.8125 20.332031 25.144531 20.332031 25.480469 C 20.332031 25.777344 20.417969 26.003906 20.5 26.003906 C 20.785156 26.003906 21.332031 26.824219 21.332031 27.246094 C 21.332031 27.453125 21.515625 27.808594 21.75 28.019531 C 21.984375 28.230469 22.167969 28.585938 22.167969 28.796875 C 22.167969 29.003906 22.5 29.59375 22.917969 30.117188 C 23.332031 30.621094 23.667969 31.167969 23.667969 31.355469 C 23.667969 31.519531 23.964844 32.027344 24.332031 32.488281 C 24.699219 32.925781 25 33.453125 25 33.660156 C 25 33.871094 25.332031 34.394531 25.75 34.855469 C 26.167969 35.316406 26.5 35.824219 26.5 35.988281 C 26.5 36.15625 26.617188 36.285156 26.75 36.285156 C 26.882812 36.285156 27 36.367188 27 36.496094 C 27 36.597656 27.117188 36.703125 27.25 36.703125 C 27.402344 36.703125 27.5 36.890625 27.5 37.230469 C 27.5 37.519531 27.597656 37.816406 27.734375 37.878906 C 27.867188 37.941406 27.917969 38.191406 27.867188 38.503906 C 27.832031 38.78125 27.867188 39.011719 27.933594 39.011719 C 28.300781 39.011719 29.332031 40.480469 29.332031 40.980469 C 29.332031 41.296875 29.402344 41.527344 29.5 41.527344 C 29.765625 41.527344 30.765625 42.910156 30.699219 43.160156 C 30.667969 43.308594 30.984375 43.832031 31.402344 44.359375 C 31.816406 44.863281 32.167969 45.425781 32.167969 45.617188 C 32.167969 45.785156 32.484375 46.328125 32.882812 46.792969 C 33.265625 47.273438 33.566406 47.816406 33.535156 48.007812 C 33.515625 48.199219 33.714844 48.574219 34 48.824219 C 34.347656 49.160156 34.5 49.472656 34.5 49.894531 C 34.5 50.230469 34.597656 50.546875 34.75 50.628906 C 34.902344 50.691406 35 51.003906 35 51.363281 C 35 51.699219 35.097656 52.011719 35.25 52.097656 C 35.382812 52.160156 35.5 52.347656 35.5 52.515625 C 35.5 52.664062 35.734375 53.105469 36 53.480469 C 36.285156 53.859375 36.5 54.277344 36.484375 54.40625 C 36.433594 54.96875 36.515625 55.160156 36.882812 55.160156 C 37.082031 55.183594 37.433594 55.453125 37.667969 55.789062 C 37.882812 56.144531 38.167969 56.417969 38.285156 56.417969 C 38.417969 56.417969 38.550781 56.542969 38.597656 56.710938 C 38.652344 56.878906 38.816406 56.964844 39 56.902344 C 39.214844 56.816406 39.382812 56.984375 39.566406 57.425781 C 39.714844 57.78125 39.984375 58.117188 40.167969 58.199219 C 40.347656 58.261719 40.5 58.433594 40.5 58.535156 C 40.5 58.640625 40.617188 58.722656 40.75 58.722656 C 40.882812 58.722656 41.632812 59.519531 42.402344 60.507812 C 43.167969 61.496094 43.917969 62.292969 44.066406 62.292969 C 44.214844 62.292969 44.632812 62.707031 45.015625 63.234375 C 45.402344 63.757812 45.800781 64.15625 45.917969 64.09375 C 46.015625 64.050781 46.449219 64.472656 46.882812 65.015625 C 47.515625 65.832031 47.667969 66.171875 47.667969 66.757812 C 47.667969 67.21875 47.765625 67.535156 47.917969 67.617188 C 48.097656 67.703125 48.167969 68.078125 48.167969 69.210938 C 48.167969 70.28125 48.214844 70.660156 48.382812 70.617188 C 48.535156 70.59375 48.597656 71.160156 48.632812 72.816406 C 48.667969 74.644531 48.734375 75.082031 48.917969 75.082031 C 49.117188 75.082031 49.167969 75.398438 49.167969 76.574219 C 49.167969 77.957031 49.199219 78.082031 49.652344 78.566406 C 50.265625 79.214844 50.25 79.84375 49.632812 80.535156 C 49.382812 80.808594 49.167969 81.207031 49.167969 81.375 C 49.167969 81.566406 48.949219 81.941406 48.667969 82.214844 C 48.300781 82.613281 48.183594 82.925781 48.167969 83.496094 C 48.167969 83.976562 48.066406 84.3125 47.917969 84.394531 C 47.316406 84.667969 47.867188 85.96875 48.535156 85.824219 C 48.984375 85.71875 48.984375 87.375 48.515625 87.5625 C 47.984375 87.769531 47.75 88.234375 48 88.613281 C 48.167969 88.863281 48.132812 89.09375 47.832031 89.808594 C 47.402344 90.875 46.832031 91.671875 46.652344 91.527344 C 46.402344 91.339844 46.484375 90.605469 46.75 90.480469 C 46.882812 90.394531 47 90.121094 47 89.828125 C 47 89.34375 47.265625 88.503906 47.5 88.296875 C 47.550781 88.234375 47.75 87.792969 47.949219 87.3125 L 48.285156 86.410156 L 47.882812 86.410156 C 47.300781 86.410156 46.832031 86.785156 46.832031 87.25 C 46.832031 87.6875 46.285156 88.503906 46 88.503906 C 45.917969 88.503906 45.832031 88.738281 45.832031 89.03125 C 45.832031 89.324219 45.714844 89.621094 45.582031 89.683594 C 45.449219 89.765625 45.332031 90.015625 45.332031 90.289062 C 45.332031 90.5625 45.214844 90.8125 45.082031 90.894531 C 44.949219 90.960938 44.832031 91.214844 44.832031 91.464844 C 44.832031 91.714844 44.652344 92.136719 44.417969 92.40625 C 44.183594 92.683594 44 93.078125 44 93.289062 C 44 93.519531 43.882812 93.75 43.75 93.832031 C 43.582031 93.894531 43.5 94.230469 43.5 94.796875 C 43.5 95.40625 43.433594 95.636719 43.25 95.636719 C 43.066406 95.636719 43 95.910156 43 96.769531 C 43 97.589844 42.933594 97.921875 42.75 98.027344 C 42.582031 98.113281 42.5 98.449219 42.5 99.097656 L 42.5 100.042969 L 52.117188 100.042969 L 52.382812 98.089844 C 52.734375 95.699219 52.734375 95.34375 52.417969 95.007812 C 52.066406 94.652344 52.097656 94.148438 52.484375 94.019531 C 52.683594 93.957031 52.765625 93.792969 52.714844 93.5625 C 52.683594 93.351562 52.765625 93.078125 52.902344 92.933594 C 53.050781 92.765625 53.167969 92.40625 53.167969 92.136719 C 53.167969 91.714844 53.097656 91.628906 52.882812 91.714844 C 52.714844 91.800781 52.25 91.949219 51.832031 92.074219 C 51.417969 92.21875 50.847656 92.40625 50.566406 92.511719 C 50.285156 92.617188 49.765625 92.703125 49.433594 92.703125 C 48.882812 92.703125 48.816406 92.660156 49 92.386719 C 49.117188 92.21875 49.316406 92.074219 49.449219 92.074219 C 49.617188 92.074219 49.632812 91.96875 49.535156 91.738281 C 49.300781 91.234375 49.5 90.4375 49.882812 90.308594 C 50.167969 90.226562 50.183594 90.164062 50.015625 89.890625 C 49.867188 89.683594 49.832031 89.367188 49.933594 88.988281 C 50 88.652344 50.035156 88.296875 50.015625 88.152344 C 50 88.027344 50.152344 87.855469 50.332031 87.769531 C 50.515625 87.6875 50.867188 87.417969 51.082031 87.164062 C 51.417969 86.765625 51.484375 86.535156 51.402344 86.050781 C 51.285156 85.316406 51.515625 85.027344 51.964844 85.339844 C 52.199219 85.488281 52.265625 85.71875 52.199219 86.199219 C 52.117188 86.972656 52.402344 87.457031 52.984375 87.457031 C 53.214844 87.457031 53.652344 87.644531 53.933594 87.855469 C 54.332031 88.171875 54.484375 88.441406 54.535156 89.074219 C 54.597656 89.578125 54.535156 89.996094 54.402344 90.207031 C 54.265625 90.375 54.167969 90.707031 54.167969 90.941406 C 54.167969 91.171875 54.050781 91.546875 53.917969 91.777344 C 53.785156 91.988281 53.667969 92.40625 53.667969 92.703125 C 53.667969 92.996094 53.515625 93.519531 53.347656 93.894531 C 53.097656 94.402344 53.050781 94.691406 53.167969 95.15625 C 53.265625 95.46875 53.417969 96.707031 53.515625 97.878906 L 53.699219 100.042969 L 62.652344 100.042969 L 62.699219 99.472656 C 62.734375 99.121094 62.867188 98.867188 63.050781 98.824219 C 63.265625 98.761719 63.332031 98.886719 63.332031 99.390625 C 63.332031 99.980469 63.382812 100.042969 63.832031 100.042969 L 64.332031 100.042969 L 64.332031 98.089844 C 64.332031 97.042969 64.382812 95.660156 64.449219 95.050781 C 64.550781 93.980469 64.566406 93.9375 64.964844 94.066406 C 65.183594 94.128906 65.667969 94.484375 66.015625 94.839844 C 66.597656 95.425781 66.734375 95.46875 67.449219 95.34375 C 67.902344 95.28125 68.300781 95.074219 68.382812 94.882812 C 68.5 94.628906 68.683594 94.589844 69.097656 94.691406 C 69.75 94.839844 71.097656 94.191406 71.265625 93.667969 C 71.464844 92.996094 72.515625 93.121094 72.867188 93.855469 C 72.933594 94 73.402344 94.378906 73.917969 94.671875 C 74.582031 95.09375 74.964844 95.21875 75.332031 95.113281 C 75.597656 95.03125 76.082031 95.074219 76.367188 95.175781 C 76.667969 95.28125 77.347656 95.511719 77.902344 95.660156 C 78.433594 95.808594 78.902344 96.058594 78.949219 96.203125 C 79 96.347656 78.964844 97.105469 78.882812 97.878906 C 78.632812 100.042969 78.632812 100.042969 80.265625 100.042969 C 81.132812 100.042969 81.667969 99.957031 81.667969 99.832031 C 81.667969 99.707031 81.347656 99.160156 80.949219 98.613281 C 80.152344 97.503906 79.582031 96.140625 79.847656 95.953125 C 80 95.828125 82 97.273438 83.097656 98.300781 C 83.382812 98.550781 83.847656 98.847656 84.132812 98.910156 C 84.597656 99.035156 84.667969 98.996094 84.667969 98.59375 C 84.667969 98.363281 84.617188 98.175781 84.550781 98.175781 C 84.015625 98.28125 83.964844 98.132812 84.082031 96.792969 C 84.199219 95.488281 84.183594 95.425781 83.847656 95.425781 C 83.617188 95.425781 83.5 95.300781 83.5 95.03125 C 83.5 94.464844 83.75 94.316406 84.015625 94.714844 C 84.183594 94.964844 84.417969 95.03125 85.035156 94.925781 C 85.816406 94.777344 85.933594 94.882812 85.847656 95.511719 C 85.832031 95.617188 86.199219 95.636719 86.683594 95.59375 C 87.417969 95.488281 87.550781 95.53125 87.617188 95.871094 C 87.699219 96.222656 87.882812 96.265625 89.25 96.265625 C 90.667969 96.265625 90.800781 96.222656 90.882812 95.828125 C 90.964844 95.449219 91.050781 95.40625 91.765625 95.550781 C 92.332031 95.660156 92.515625 95.636719 92.433594 95.449219 C 92.367188 95.324219 92.433594 95.15625 92.597656 95.074219 C 93.066406 94.863281 94.035156 93.519531 93.933594 93.222656 C 93.816406 92.808594 93.050781 92.21875 92.832031 92.386719 C 92.734375 92.46875 92.683594 92.660156 92.734375 92.808594 C 92.765625 92.953125 92.714844 93.246094 92.597656 93.457031 C 92.433594 93.730469 92.25 93.792969 91.75 93.6875 C 91.347656 93.605469 90.964844 93.667969 90.683594 93.855469 C 90.316406 94.085938 89.964844 94.105469 88.984375 93.9375 C 88.300781 93.832031 87.484375 93.707031 87.152344 93.667969 C 86.816406 93.625 86.285156 93.433594 85.984375 93.246094 C 85.667969 93.078125 84.847656 92.683594 84.167969 92.40625 C 82.515625 91.714844 81.867188 91.402344 81.167969 90.917969 C 80.582031 90.519531 79.5 89.972656 78.25 89.472656 L 77.597656 89.199219 L 77.617188 85.863281 C 77.667969 80.246094 77.199219 77.285156 76.183594 76.867188 C 75.484375 76.59375 74.652344 76.699219 74.199219 77.121094 C 73.847656 77.433594 73.652344 77.496094 73.449219 77.347656 C 73.25 77.222656 72.847656 77.265625 72.199219 77.496094 C 71.683594 77.683594 71.066406 77.894531 70.832031 77.957031 C 70.597656 78.019531 70.285156 78.207031 70.132812 78.394531 C 69.964844 78.566406 69.714844 78.652344 69.550781 78.542969 C 69.285156 78.417969 69.300781 78.375 69.714844 78.105469 C 69.964844 77.9375 70.167969 77.726562 70.167969 77.621094 C 70.167969 77.515625 70.332031 77.371094 70.550781 77.285156 C 70.832031 77.183594 70.847656 77.121094 70.667969 77.035156 C 70.535156 76.972656 70.347656 76.78125 70.285156 76.636719 C 70.132812 76.300781 69.332031 76.238281 69.332031 76.550781 C 69.332031 76.929688 68.632812 76.761719 68.097656 76.28125 C 67.316406 75.546875 67.035156 75.460938 66.832031 75.921875 C 66.632812 76.386719 66.25 76.46875 66.117188 76.089844 C 66.082031 75.941406 66.183594 75.25 66.367188 74.558594 C 66.734375 73.113281 67.097656 68.5625 66.933594 67.449219 C 66.734375 66.085938 66.332031 66.757812 66.332031 68.5 C 66.332031 68.957031 66.234375 69.753906 66.097656 70.28125 C 65.699219 71.875 65.332031 74.160156 65.332031 75.042969 C 65.332031 75.527344 65.265625 75.964844 65.167969 76.027344 C 65.082031 76.089844 65 76.386719 65 76.65625 C 65 77.183594 64.449219 77.808594 63.984375 77.808594 C 63.816406 77.808594 63.484375 78.082031 63.214844 78.394531 C 62.667969 79.109375 62.285156 79.066406 62.433594 78.3125 C 62.5 78.042969 62.449219 77.664062 62.332031 77.496094 C 62.066406 77.097656 61.984375 75.269531 62.214844 74.894531 C 62.347656 74.683594 62.347656 74.558594 62.152344 74.371094 C 61.765625 74.015625 61.417969 73.199219 61.097656 72 C 60.949219 71.414062 60.714844 70.871094 60.617188 70.808594 C 60.464844 70.699219 60.464844 70.660156 60.632812 70.550781 C 60.964844 70.363281 60.882812 69.421875 60.515625 69.421875 C 60.132812 69.421875 59.800781 68.9375 59.867188 68.457031 C 59.902344 68.222656 59.699219 67.953125 59.265625 67.683594 C 58.582031 67.238281 57.667969 65.792969 57.464844 64.847656 C 57.300781 64.09375 57.382812 64.074219 57.964844 64.703125 C 58.234375 64.996094 58.582031 65.226562 58.714844 65.226562 C 59.050781 65.226562 59.367188 65.75 59.300781 66.214844 C 59.265625 66.484375 59.367188 66.609375 59.699219 66.652344 C 59.964844 66.691406 60.199219 66.882812 60.25 67.136719 C 60.332031 67.46875 60.449219 67.511719 61.015625 67.40625 C 61.515625 67.300781 61.75 67.363281 62 67.636719 C 62.25 67.933594 62.382812 67.972656 62.535156 67.785156 C 62.667969 67.617188 62.652344 67.511719 62.433594 67.40625 C 61.949219 67.175781 61.652344 66.171875 61.765625 65.207031 C 61.902344 64.21875 61.617188 63.757812 60.882812 63.757812 C 60.652344 63.757812 60.5 63.632812 60.5 63.421875 C 60.5 62.816406 59.597656 61.03125 59.300781 61.03125 C 59.132812 61.03125 59 60.925781 59 60.824219 C 59 60.699219 59.132812 60.613281 59.300781 60.65625 C 59.484375 60.699219 59.597656 60.570312 59.632812 60.234375 C 59.699219 59.710938 59.367188 59.625 58.847656 60.027344 C 58.597656 60.214844 58.484375 60.191406 58.265625 59.941406 C 58.117188 59.753906 57.917969 59.5625 57.800781 59.5 C 57.617188 59.417969 57.617188 59.355469 57.800781 59.125 C 57.964844 58.894531 58.066406 58.894531 58.347656 59.105469 C 58.75 59.417969 58.917969 59.3125 58.785156 58.828125 C 58.714844 58.621094 58.449219 58.515625 57.984375 58.515625 C 57.515625 58.515625 57.332031 58.433594 57.367188 58.261719 C 57.449219 57.96875 59.332031 57.78125 59.484375 58.03125 C 59.535156 58.136719 59.832031 58.433594 60.152344 58.703125 C 60.597656 59.105469 60.765625 59.144531 61.097656 58.957031 C 61.800781 58.558594 61.515625 57.886719 60.652344 57.886719 C 60.464844 57.886719 59.964844 57.699219 59.550781 57.445312 C 58.882812 57.066406 58.597656 57.027344 57.617188 57.152344 C 56.464844 57.277344 56.449219 57.277344 55.964844 56.605469 C 55.515625 56 55.464844 55.808594 55.535156 54.90625 C 55.617188 53.964844 55.582031 53.859375 55.152344 53.460938 C 54.582031 52.957031 54.515625 52.433594 55 52.285156 C 55.183594 52.222656 55.332031 52.097656 55.332031 51.992188 C 55.332031 51.613281 54.933594 50.753906 54.75 50.753906 C 54.535156 50.753906 54.117188 49.410156 54.097656 48.675781 C 54.082031 47.839844 53.75 47.964844 53.484375 48.910156 C 53.152344 50.042969 52.832031 50.1875 52.832031 49.222656 C 52.832031 48.804688 52.917969 48.449219 53.015625 48.40625 C 53.117188 48.363281 53.167969 48.007812 53.132812 47.609375 L 53.082031 46.875 L 52.699219 47.796875 C 52.5 48.324219 52.332031 48.910156 52.332031 49.121094 C 52.332031 49.75 51.699219 51.132812 51.25 51.511719 C 51.015625 51.699219 50.832031 52.035156 50.832031 52.246094 C 50.832031 52.472656 50.765625 52.644531 50.667969 52.644531 C 50.449219 52.644531 50.449219 51.867188 50.667969 51.761719 C 50.765625 51.71875 50.765625 51.449219 50.667969 50.964844 C 50.582031 50.566406 50.484375 49.140625 50.433594 47.816406 C 50.367188 45.785156 50.316406 45.363281 50.050781 45.15625 C 49.765625 44.902344 49.75 45.03125 49.75 47.589844 C 49.734375 49.390625 49.667969 50.398438 49.535156 50.609375 C 49.417969 50.777344 49.347656 51.089844 49.347656 51.300781 C 49.433594 52.371094 49.097656 52.894531 48.902344 52.058594 C 48.847656 51.867188 48.667969 51.363281 48.484375 50.921875 C 48.285156 50.460938 48.117188 49.472656 48.035156 48.324219 C 47.964844 47.167969 47.832031 46.457031 47.714844 46.394531 C 47.566406 46.347656 47.5 46.558594 47.5 47.019531 C 47.5 47.421875 47.382812 47.921875 47.25 48.15625 C 47.035156 48.488281 46.984375 48.511719 46.832031 48.238281 C 46.75 48.070312 46.667969 47.441406 46.667969 46.875 C 46.667969 45.785156 45.984375 42.890625 45.734375 42.890625 C 45.449219 42.890625 45.300781 46.582031 45.5 48.449219 C 45.765625 50.859375 45.785156 51.214844 45.566406 51.324219 C 45.449219 51.363281 45.214844 50.777344 45 49.9375 C 44.667969 48.675781 44.632812 48.34375 44.800781 47.691406 C 44.984375 46.894531 44.847656 46.308594 44.332031 45.808594 C 44.035156 45.511719 43.683594 43.644531 43.667969 42.324219 C 43.667969 41.234375 43.566406 41.066406 43.015625 41.253906 C 42.765625 41.339844 42.683594 41.484375 42.75 41.738281 C 42.847656 42.15625 42.597656 42.46875 42.332031 42.261719 C 42.234375 42.175781 42.214844 41.988281 42.300781 41.800781 C 42.484375 41.421875 42.082031 40.269531 41.785156 40.269531 C 41.667969 40.269531 41.402344 39.785156 41.167969 39.175781 C 40.464844 37.355469 39.699219 37.292969 39.933594 39.050781 C 39.984375 39.492188 39.964844 39.847656 39.882812 39.847656 C 39.800781 39.847656 39.167969 39.15625 38.484375 38.316406 C 37.800781 37.5 36.917969 36.558594 36.550781 36.21875 C 36.082031 35.84375 35.816406 35.441406 35.75 35.003906 C 35.683594 34.605469 35.484375 34.292969 35.25 34.1875 C 35.035156 34.082031 34.816406 33.808594 34.75 33.558594 C 34.683594 33.308594 34.347656 32.96875 33.984375 32.800781 C 33.199219 32.402344 33.117188 31.878906 33.832031 31.878906 C 34.25 31.878906 34.332031 31.796875 34.332031 31.394531 C 34.332031 31.144531 34.132812 30.683594 33.867188 30.371094 C 33.617188 30.074219 33.152344 29.46875 32.832031 29.046875 C 32.515625 28.628906 32.050781 28.167969 31.816406 28 C 31.566406 27.832031 31.332031 27.558594 31.285156 27.371094 C 31.214844 27.203125 31.082031 27.058594 30.949219 27.058594 C 30.632812 27.058594 30.066406 26.214844 29.949219 25.589844 C 29.882812 25.292969 29.402344 24.472656 28.847656 23.761719 C 28.167969 22.878906 27.867188 22.335938 27.949219 22.125 C 28.015625 21.894531 27.933594 21.75 27.714844 21.6875 C 27.550781 21.625 27.316406 21.394531 27.214844 21.183594 C 27.015625 20.785156 27.015625 20.722656 27.582031 18.519531 L 27.867188 17.425781 L 27.015625 16.339844 C 26.367188 15.519531 26.097656 15.308594 25.964844 15.480469 C 25.832031 15.644531 25.832031 15.917969 25.964844 16.527344 C 26.082031 16.988281 26.167969 18.246094 26.167969 19.316406 L 26.167969 21.285156 L 25.582031 21.792969 C 25.035156 22.253906 24.902344 22.273438 23 22.191406 C 21.902344 22.144531 20.949219 22.019531 20.882812 21.9375 C 20.816406 21.855469 20.882812 21.667969 21.035156 21.519531 C 21.316406 21.265625 21.316406 21.222656 20.984375 20.847656 C 20.800781 20.636719 20.515625 20.199219 20.367188 19.882812 C 20.050781 19.210938 19.917969 19.167969 19.199219 19.628906 C 18.667969 19.964844 18 19.863281 18 19.464844 C 18 19.359375 18.097656 19.296875 18.234375 19.359375 C 18.367188 19.421875 18.667969 19.296875 18.882812 19.066406 C 19.117188 18.855469 19.382812 18.667969 19.464844 18.667969 C 19.566406 18.667969 19.683594 18.480469 19.75 18.269531 C 19.800781 18.035156 20.015625 17.808594 20.214844 17.765625 C 20.515625 17.683594 20.5 17.660156 20.132812 17.636719 C 19.566406 17.617188 19.515625 17.15625 20.035156 16.738281 C 20.367188 16.464844 20.382812 16.359375 20.214844 15.875 C 19.964844 15.226562 20.167969 14.972656 20.867188 15.078125 C 21.433594 15.144531 21.449219 14.871094 21 14.03125 C 20.683594 13.484375 20.582031 13.441406 19.933594 13.546875 C 19.484375 13.632812 19.167969 13.589844 19.097656 13.441406 C 19.035156 13.316406 18.847656 13.214844 18.683594 13.214844 C 18.464844 13.214844 18.25 12.835938 17.949219 11.953125 C 17.25 9.921875 15.765625 9.082031 14.683594 10.089844 C 13.949219 10.761719 12.816406 10.863281 12.183594 10.296875 C 11.535156 9.710938 11.535156 9.5 12.214844 8.785156 C 12.5 8.472656 12.714844 8.179688 12.667969 8.136719 C 12.617188 8.09375 12.132812 7.699219 11.582031 7.234375 C 11.035156 6.777344 10.25 6.019531 9.816406 5.558594 C 9.015625 4.675781 8.667969 4.40625 6.75 3.125 C 6.117188 2.707031 5.566406 2.203125 5.535156 2.011719 C 5.449219 1.550781 3.832031 1.53125 3.832031 1.992188 C 3.832031 2.160156 3.917969 2.308594 4 2.308594 C 4.097656 2.308594 4.167969 2.496094 4.167969 2.726562 C 4.167969 3 4.050781 3.144531 3.832031 3.144531 C 3.332031 3.144531 2.667969 2.535156 2.667969 2.078125 C 2.667969 1.59375 2.082031 1.53125 1.933594 2.011719 Z M 76.082031 80.558594 C 76.015625 80.894531 75.902344 81.125 75.832031 81.0625 C 75.75 81 75.785156 81.207031 75.917969 81.519531 C 76.050781 81.839844 76.167969 82.339844 76.167969 82.613281 C 76.167969 83.117188 76.167969 83.117188 75.867188 82.71875 C 75.449219 82.128906 75 81.207031 75 80.933594 C 75 80.789062 75.132812 80.558594 75.300781 80.410156 C 75.515625 80.203125 75.535156 80.097656 75.382812 79.90625 C 75.132812 79.574219 74.035156 80.597656 73.964844 81.230469 C 73.902344 81.878906 73.183594 81.984375 73.050781 81.394531 C 72.949219 80.894531 72.5 80.789062 72.5 81.269531 C 72.5 81.4375 72.382812 81.585938 72.234375 81.585938 C 71.816406 81.585938 72.035156 80.894531 72.535156 80.578125 C 72.800781 80.433594 73.066406 80.011719 73.183594 79.59375 C 73.316406 79.128906 73.515625 78.859375 73.699219 78.859375 C 74.066406 78.859375 74.082031 79.128906 73.75 79.574219 C 73.617188 79.738281 73.5 79.96875 73.5 80.097656 C 73.5 80.496094 73.867188 80.347656 74.199219 79.800781 C 74.382812 79.511719 74.597656 79.277344 74.683594 79.277344 C 74.765625 79.277344 75.015625 79.089844 75.214844 78.859375 L 75.566406 78.417969 L 75.882812 79.191406 C 76.082031 79.699219 76.152344 80.136719 76.082031 80.558594 Z M 74 82.253906 C 74 82.382812 73.816406 82.699219 73.582031 82.96875 C 73.066406 83.578125 73.015625 83.996094 73.515625 83.683594 C 73.699219 83.535156 74 83.261719 74.183594 83.03125 C 74.550781 82.574219 75 82.71875 75 83.285156 C 75 83.515625 75.167969 83.996094 75.382812 84.332031 L 75.75 84.984375 L 75.402344 85.339844 C 75.214844 85.527344 75 85.949219 74.949219 86.242188 C 74.882812 86.558594 74.683594 86.910156 74.5 87.039062 C 74.316406 87.164062 74.167969 87.394531 74.167969 87.5625 C 74.167969 87.941406 73.515625 87.980469 73.484375 87.605469 C 73.464844 87.480469 73.449219 87.082031 73.433594 86.722656 C 73.417969 85.90625 72.832031 85.675781 72.832031 86.496094 C 72.832031 87.164062 72.535156 87.183594 71.933594 86.597656 C 71.417969 86.074219 71.382812 85.761719 71.832031 85.402344 C 72.167969 85.152344 72.300781 84.519531 72.015625 84.519531 C 71.933594 84.519531 71.785156 84.667969 71.667969 84.835938 C 71.550781 85.003906 71.285156 85.152344 71.066406 85.152344 C 70.464844 85.152344 70.550781 84.4375 71.214844 83.914062 C 71.515625 83.683594 71.964844 83.179688 72.214844 82.78125 C 72.597656 82.171875 72.785156 82.046875 73.332031 82.046875 C 73.699219 82.027344 74 82.128906 74 82.253906 Z M 74 82.253906 "/>
<path style=" stroke:none;fill-rule:nonzero;fill:rgb(0%,0%,0%);fill-opacity:1;" d="M 62 4.925781 C 62 5.136719 61.816406 5.246094 61.417969 5.246094 C 60.933594 5.246094 60.832031 5.328125 60.832031 5.683594 C 60.832031 6.082031 60.765625 6.105469 60.265625 6 C 59.800781 5.894531 59.699219 5.933594 59.617188 6.269531 C 59.566406 6.566406 59.433594 6.648438 59.199219 6.566406 C 58.949219 6.5 58.632812 6.777344 57.949219 7.636719 C 57.417969 8.328125 56.882812 8.808594 56.683594 8.808594 C 56.347656 8.808594 56.265625 8.976562 56.316406 9.644531 C 56.347656 10.003906 55.75 10.90625 55.5 10.90625 C 55.402344 10.90625 55.332031 11.050781 55.332031 11.21875 C 55.332031 11.410156 55.214844 11.597656 55.066406 11.683594 C 54.867188 11.765625 54.832031 11.972656 54.902344 12.417969 C 54.984375 12.917969 54.933594 13.066406 54.667969 13.152344 C 54.347656 13.253906 54.332031 13.441406 54.332031 16.253906 C 54.332031 18.957031 54.367188 19.253906 54.632812 19.339844 C 54.882812 19.421875 54.917969 19.609375 54.867188 20.21875 C 54.816406 20.808594 54.847656 20.972656 55.066406 20.972656 C 55.265625 20.972656 55.332031 21.160156 55.332031 21.6875 C 55.332031 22.125 55.433594 22.441406 55.597656 22.527344 C 55.734375 22.589844 55.800781 22.753906 55.75 22.878906 C 55.683594 23.007812 55.867188 23.386719 56.152344 23.742188 C 56.433594 24.097656 56.667969 24.601562 56.667969 24.875 C 56.667969 25.144531 56.75 25.378906 56.832031 25.378906 C 57.152344 25.378906 57.667969 26.214844 57.667969 26.738281 C 57.667969 27.078125 57.765625 27.265625 57.917969 27.265625 C 58.117188 27.265625 58.167969 27.621094 58.167969 29.257812 C 58.167969 30.769531 58.214844 31.292969 58.402344 31.375 C 58.566406 31.457031 58.597656 31.753906 58.535156 32.402344 C 58.433594 33.515625 58.597656 34.394531 58.902344 34.394531 C 59.066406 34.394531 59.097656 34.667969 59.035156 35.441406 C 58.964844 36.285156 59.015625 36.515625 59.234375 36.621094 C 59.382812 36.683594 59.5 36.972656 59.5 37.25 C 59.5 37.542969 59.617188 37.816406 59.75 37.878906 C 59.882812 37.960938 60 38.191406 60 38.421875 C 60 38.632812 60.25 39.113281 60.550781 39.472656 C 60.882812 39.871094 61.015625 40.144531 60.882812 40.207031 C 60.765625 40.269531 60.667969 40.4375 60.667969 40.582031 C 60.667969 40.730469 60.515625 40.894531 60.332031 40.960938 C 60.066406 41.042969 60 41.253906 60 41.925781 C 60 42.554688 59.933594 42.785156 59.75 42.785156 C 59.617188 42.785156 59.5 42.972656 59.5 43.203125 C 59.5 43.433594 59.433594 43.625 59.347656 43.625 C 59.265625 43.625 59.167969 43.832031 59.132812 44.085938 C 59.082031 44.503906 59 44.546875 58.132812 44.484375 C 57.347656 44.441406 57.167969 44.484375 57.167969 44.753906 C 57.167969 44.945312 57.066406 45.09375 56.933594 45.09375 C 56.683594 45.09375 56.5 45.53125 56.5 46.140625 C 56.5 46.371094 56.347656 46.644531 56.167969 46.769531 C 55.984375 46.894531 55.832031 47.125 55.832031 47.316406 C 55.832031 47.652344 56.617188 49.707031 56.75 49.707031 C 56.882812 49.707031 57.347656 48.175781 57.535156 47.105469 C 57.652344 46.394531 57.800781 46.058594 58.015625 45.996094 C 58.183594 45.933594 58.332031 45.808594 58.332031 45.722656 C 58.332031 45.617188 58.816406 45.488281 59.402344 45.40625 C 60.183594 45.300781 60.597656 45.34375 61.015625 45.574219 C 61.332031 45.742188 61.785156 45.953125 62.035156 46.015625 C 62.316406 46.097656 62.5 46.308594 62.535156 46.605469 C 62.597656 47.191406 63 47.355469 63 46.792969 C 63 46.539062 62.933594 46.347656 62.867188 46.347656 C 62.785156 46.347656 62.699219 45.953125 62.699219 45.449219 C 62.683594 44.964844 62.667969 44.378906 62.652344 44.148438 C 62.632812 43.917969 62.667969 43.582031 62.734375 43.394531 C 62.816406 43.160156 62.75 42.933594 62.582031 42.765625 C 61.734375 41.882812 61 40.894531 61 40.605469 C 61 40.144531 61.449219 40.183594 61.949219 40.667969 C 62.566406 41.296875 64.050781 41.777344 64.535156 41.546875 C 64.75 41.421875 65.347656 41.234375 65.867188 41.105469 C 66.382812 40.980469 66.902344 40.75 67 40.582031 C 67.300781 40.121094 67.035156 39.472656 66.402344 39.175781 C 66.097656 39.050781 65.832031 38.84375 65.832031 38.738281 C 65.832031 38.652344 66.066406 38.316406 66.332031 38.027344 C 67 37.3125 66.964844 37.121094 66.132812 37.121094 C 65.433594 37.121094 64.132812 36.535156 63.933594 36.113281 C 63.882812 36.011719 63.652344 35.96875 63.417969 36.03125 C 63.050781 36.113281 63 36.050781 63 35.488281 C 63 35.128906 63.117188 34.753906 63.25 34.667969 C 63.382812 34.5625 63.652344 34.125 63.832031 33.660156 C 64.199219 32.78125 64.035156 32.191406 63.484375 32.402344 C 63.117188 32.550781 62.867188 32.109375 63.183594 31.859375 C 63.316406 31.753906 63.765625 31.667969 64.199219 31.667969 C 65.097656 31.667969 65.402344 31.355469 64.667969 31.167969 C 64.214844 31.0625 63.933594 30.410156 64.332031 30.410156 C 64.550781 30.410156 64.867188 28.796875 64.75 28.292969 C 64.617188 27.789062 64.300781 27.578125 62.902344 27.035156 C 62.234375 26.761719 61.832031 26.511719 61.882812 26.363281 C 61.917969 26.214844 62.082031 25.566406 62.234375 24.917969 C 62.417969 24.140625 62.617188 23.675781 62.816406 23.59375 C 63 23.53125 63.667969 23.785156 64.417969 24.222656 C 65.632812 24.917969 65.734375 24.9375 66.015625 24.621094 C 66.183594 24.433594 66.285156 24.183594 66.234375 24.078125 C 66.015625 23.636719 66.332031 22.902344 66.816406 22.796875 C 67.082031 22.714844 67.316406 22.503906 67.367188 22.273438 C 67.449219 21.894531 67.535156 21.894531 69.347656 22.144531 C 70.402344 22.292969 71.347656 22.421875 71.449219 22.421875 C 71.566406 22.441406 71.714844 22.691406 71.765625 23.007812 C 71.917969 23.804688 72.152344 24.121094 72.566406 24.121094 C 72.75 24.121094 73.152344 24.308594 73.417969 24.539062 C 73.882812 24.917969 74.5 25.105469 74.5 24.855469 C 74.5 24.792969 74.402344 24.558594 74.300781 24.328125 C 74.152344 24.015625 74.132812 23.867188 74.285156 23.675781 C 74.535156 23.363281 74.832031 23.613281 74.832031 24.183594 C 74.847656 24.75 75.25 25.460938 75.464844 25.292969 C 75.566406 25.230469 75.597656 25 75.550781 24.792969 C 75.464844 24.371094 76.214844 23.574219 76.484375 23.785156 C 76.550781 23.847656 76.582031 23.675781 76.550781 23.40625 C 76.484375 23.050781 76.566406 22.878906 76.832031 22.796875 C 77.152344 22.691406 77.167969 22.628906 76.984375 22.191406 C 76.867188 21.9375 76.597656 21.539062 76.382812 21.328125 C 76 20.953125 75.5 20.007812 75.785156 20.175781 C 75.847656 20.21875 76.117188 20.386719 76.367188 20.53125 C 76.597656 20.699219 76.847656 20.996094 76.882812 21.203125 C 76.933594 21.433594 77.082031 21.605469 77.234375 21.605469 C 77.484375 21.605469 77.5 21.246094 77.464844 18.519531 L 77.417969 15.4375 L 77 15.308594 C 76.617188 15.183594 76.597656 15.164062 76.882812 14.972656 C 77.082031 14.828125 77.183594 14.578125 77.132812 14.238281 C 77.097656 13.84375 76.917969 13.675781 76.300781 13.441406 C 75.847656 13.277344 75.5 13.027344 75.5 12.898438 C 75.5 12.769531 75.417969 12.5625 75.300781 12.417969 C 75.152344 12.230469 75.035156 12.25 74.816406 12.5 C 74.566406 12.792969 74.535156 12.769531 74.433594 12.269531 C 74.347656 11.828125 74.234375 11.746094 73.75 11.746094 C 73.332031 11.746094 73.167969 11.828125 73.167969 12.082031 C 73.167969 12.269531 73.066406 12.375 72.964844 12.3125 C 72.765625 12.230469 72.5 12.121094 70.933594 11.515625 C 70.597656 11.386719 70.367188 11.410156 70.214844 11.578125 C 70.050781 11.746094 69.832031 11.746094 69.367188 11.578125 C 68.117188 11.09375 67.464844 10.925781 67.234375 11.050781 C 66.734375 11.285156 67.183594 11.953125 67.847656 11.953125 C 68.097656 11.953125 68.382812 12.101562 68.5 12.269531 C 68.617188 12.4375 68.847656 12.582031 69.035156 12.582031 C 69.214844 12.582031 69.699219 12.855469 70.117188 13.214844 C 70.515625 13.546875 70.882812 13.84375 70.933594 13.84375 C 71.234375 13.84375 73.117188 16.316406 73.382812 17.03125 C 73.484375 17.363281 73.632812 17.617188 73.683594 17.617188 C 73.75 17.617188 73.847656 18.160156 73.917969 18.8125 C 73.984375 19.503906 74.25 20.550781 74.535156 21.246094 C 74.917969 22.167969 75 22.527344 74.847656 22.714844 C 74.566406 23.070312 74.132812 22.652344 73.964844 21.855469 C 73.816406 21.160156 73.683594 21.035156 73.402344 21.394531 C 73.285156 21.539062 73.050781 21.414062 72.683594 21.015625 C 71.214844 19.503906 70.652344 18.980469 70.167969 18.75 C 70.035156 18.6875 69.667969 18.5 69.367188 18.332031 C 69.066406 18.160156 68.714844 18.035156 68.566406 18.035156 C 68.433594 18.035156 68.132812 17.871094 67.902344 17.683594 C 67.535156 17.386719 67 17.324219 64.566406 17.34375 C 62.582031 17.34375 61.582031 17.425781 61.464844 17.574219 C 61.234375 17.871094 60.332031 17.910156 60.332031 17.636719 C 60.332031 17.535156 60.5 17.386719 60.714844 17.300781 C 61.066406 17.15625 61.066406 17.15625 60.75 17.050781 C 60.582031 16.988281 60.402344 17.050781 60.367188 17.175781 C 60.300781 17.425781 59.632812 17.492188 59.449219 17.28125 C 58.785156 16.441406 62.367188 15.097656 65.316406 15.097656 C 67.417969 15.097656 68.800781 15.5625 71.132812 17.011719 C 73.234375 18.308594 73.582031 18.203125 72.5 16.566406 C 71.449219 14.996094 70.183594 14.011719 67.847656 12.898438 C 66.867188 12.4375 63.082031 12.417969 62.300781 12.878906 C 62 13.046875 61.484375 13.277344 61.167969 13.378906 C 60.847656 13.503906 60.449219 13.652344 60.300781 13.738281 C 60.117188 13.824219 60 13.800781 60 13.652344 C 60 13.527344 60.117188 13.421875 60.25 13.421875 C 60.402344 13.421875 60.550781 13.277344 60.597656 13.109375 C 60.667969 12.941406 60.785156 12.792969 60.902344 12.792969 C 61 12.792969 61.285156 12.667969 61.515625 12.5 C 61.75 12.355469 62.214844 12.164062 62.550781 12.082031 C 63 11.972656 63.167969 11.828125 63.167969 11.558594 C 63.167969 11.199219 63.300781 11.175781 64.652344 11.285156 C 65.652344 11.347656 66.152344 11.304688 66.234375 11.136719 C 66.316406 10.988281 66.199219 10.90625 65.933594 10.90625 C 65.699219 10.90625 65.484375 10.824219 65.433594 10.71875 C 65.382812 10.632812 65 10.570312 64.597656 10.613281 C 63.984375 10.675781 63.800781 10.589844 63.597656 10.253906 C 63.464844 10.003906 63.285156 9.878906 63.167969 9.964844 C 62.832031 10.214844 62.5 9.644531 62.617188 8.996094 C 62.667969 8.640625 62.617188 8.136719 62.5 7.84375 C 62.300781 7.402344 62.316406 7.277344 62.632812 6.859375 C 62.832031 6.585938 63 6.207031 63 6.019531 C 63 5.832031 63.152344 5.578125 63.332031 5.453125 C 63.984375 5.011719 63.734375 4.613281 62.832031 4.613281 C 62.199219 4.613281 62 4.699219 62 4.925781 Z M 62 4.925781 "/>
<path style=" stroke:none;fill-rule:nonzero;fill:rgb(0%,0%,0%);fill-opacity:1;" d="M 65.550781 45.261719 C 65.25 46.035156 65 46.769531 65 46.894531 C 65 47.105469 66.917969 50.859375 67.367188 51.53125 C 67.765625 52.140625 67.800781 51.488281 67.417969 50.398438 C 67.183594 49.769531 67 48.847656 67 48.386719 C 67 47.691406 66.902344 47.441406 66.464844 46.980469 C 65.867188 46.347656 65.882812 45.574219 66.5 45.828125 C 66.683594 45.910156 66.832031 45.871094 66.832031 45.742188 C 66.832031 45.617188 66.765625 45.511719 66.683594 45.511719 C 66.597656 45.511719 66.484375 45.136719 66.417969 44.671875 C 66.347656 44.210938 66.25 43.832031 66.199219 43.832031 C 66.132812 43.832031 65.832031 44.464844 65.550781 45.261719 Z M 65.550781 45.261719 "/>
<path style=" stroke:none;fill-rule:nonzero;fill:rgb(0%,0%,0%);fill-opacity:1;" d="M 59.667969 49.957031 C 59.433594 50.082031 58.765625 50.1875 58.167969 50.207031 C 57.566406 50.207031 57.097656 50.316406 57.097656 50.398438 C 57.152344 50.753906 58.765625 53.566406 59.332031 54.300781 C 59.652344 54.71875 60.265625 55.410156 60.699219 55.851562 C 61.132812 56.292969 61.652344 56.984375 61.832031 57.363281 C 62.035156 57.761719 62.734375 58.785156 63.417969 59.644531 C 64.082031 60.488281 65.066406 62.039062 65.597656 63.046875 C 66.734375 65.207031 67 65.644531 67.25 65.644531 C 67.347656 65.644531 67.734375 66.003906 68.097656 66.464844 C 68.464844 66.90625 69.050781 67.425781 69.402344 67.636719 L 70.015625 68.015625 L 70.597656 67.300781 C 70.917969 66.925781 71.167969 66.464844 71.167969 66.277344 C 71.167969 66.085938 70.582031 65.207031 69.882812 64.300781 L 68.582031 62.667969 L 69.300781 62.792969 C 70.132812 62.941406 70.234375 62.625 69.566406 61.890625 L 69.152344 61.433594 L 69.847656 60.003906 L 69.5 59.773438 C 69.199219 59.582031 69.167969 59.417969 69.265625 58.871094 C 69.316406 58.515625 69.566406 57.84375 69.785156 57.402344 C 70.5 55.980469 70.449219 54.53125 69.714844 54.824219 C 69.449219 54.925781 69.367188 55.203125 69.285156 56.0625 C 69.199219 57.046875 68.785156 58.328125 68.300781 59.082031 C 68.183594 59.269531 67.816406 59.058594 66.933594 58.285156 C 66.265625 57.71875 65.667969 57.253906 65.617188 57.253906 C 65.550781 57.253906 64.933594 56.730469 64.234375 56.082031 C 63.550781 55.433594 62.667969 54.738281 62.285156 54.511719 C 61.902344 54.277344 61.464844 54.003906 61.332031 53.902344 C 60.847656 53.542969 59.949219 53.0625 59.734375 53.0625 C 59.617188 53.0625 59.433594 52.875 59.316406 52.621094 C 59.167969 52.246094 59.214844 52.078125 59.734375 51.40625 C 60.582031 50.316406 60.535156 49.519531 59.667969 49.957031 Z M 59.667969 49.957031 "/>
<path style=" stroke:none;fill-rule:nonzero;fill:rgb(0%,0%,0%);fill-opacity:1;" d="M 73.832031 57.613281 C 73.015625 57.949219 72.785156 58.074219 71.667969 58.722656 C 69.816406 59.835938 69.75 59.941406 70.417969 60.488281 C 70.734375 60.761719 70.832031 61.011719 70.832031 61.621094 C 70.832031 62.394531 70.847656 62.417969 71.332031 62.332031 C 72.199219 62.164062 72.285156 61.746094 71.597656 60.949219 C 70.882812 60.089844 70.847656 59.773438 71.433594 59.773438 C 71.667969 59.773438 72.515625 59.355469 73.300781 58.847656 C 74.097656 58.347656 74.917969 57.863281 75.132812 57.78125 C 75.332031 57.71875 75.464844 57.550781 75.417969 57.445312 C 75.285156 57.191406 74.734375 57.234375 73.832031 57.613281 Z M 73.832031 57.613281 "/>
<path style=" stroke:none;fill-rule:nonzero;fill:rgb(0%,0%,0%);fill-opacity:1;" d="M 77.265625 60.152344 C 77.199219 60.359375 77.234375 60.988281 77.332031 61.578125 C 77.433594 62.144531 77.550781 62.917969 77.617188 63.316406 L 77.714844 64.03125 L 78.867188 63.886719 C 79.800781 63.78125 80.035156 63.824219 80.097656 64.074219 C 80.167969 64.238281 80.300781 64.386719 80.417969 64.386719 C 80.550781 64.386719 80.75 64.511719 80.867188 64.660156 C 81.5 65.417969 82.066406 65.6875 82.785156 65.582031 C 84.25 65.375 85.199219 66.171875 84.917969 67.324219 C 84.867188 67.535156 84.75 69.441406 84.652344 71.558594 C 84.566406 73.65625 84.449219 75.839844 84.402344 76.363281 L 84.300781 77.347656 L 85.285156 77.597656 C 85.816406 77.726562 86.933594 77.917969 87.75 78 C 88.582031 78.082031 89.417969 78.25 89.617188 78.394531 C 89.816406 78.542969 90.132812 78.652344 90.332031 78.652344 C 90.535156 78.652344 90.917969 78.921875 91.167969 79.277344 C 91.417969 79.613281 91.699219 79.90625 91.800781 79.90625 C 91.882812 79.90625 92.183594 80.054688 92.433594 80.222656 C 92.714844 80.410156 93.097656 80.496094 93.382812 80.410156 C 94.015625 80.246094 94.535156 80.722656 94.902344 81.816406 C 95.066406 82.316406 95.300781 83.011719 95.433594 83.328125 C 95.566406 83.660156 95.667969 84.019531 95.667969 84.125 C 95.667969 84.5625 96.902344 86.199219 97.066406 85.988281 C 97.285156 85.71875 97.332031 83.828125 97.132812 83.660156 C 97.035156 83.578125 96.949219 83.285156 96.949219 83.011719 C 96.933594 82.699219 96.816406 82.488281 96.667969 82.507812 C 96.5 82.53125 96.433594 82.363281 96.449219 82.046875 C 96.484375 81.710938 96.402344 81.585938 96.183594 81.585938 C 96.015625 81.585938 95.597656 81.167969 95.234375 80.640625 C 94.882812 80.117188 94.464844 79.699219 94.285156 79.699219 C 94.117188 79.699219 94.035156 79.59375 94.082031 79.488281 C 94.234375 79.171875 94.652344 79.238281 94.933594 79.59375 C 95.082031 79.761719 95.332031 79.90625 95.515625 79.90625 C 95.683594 79.90625 95.832031 79.992188 95.832031 80.117188 C 95.832031 80.222656 95.984375 80.328125 96.167969 80.328125 C 96.347656 80.328125 96.5 80.222656 96.5 80.117188 C 96.5 79.992188 96.347656 79.90625 96.167969 79.90625 C 96 79.90625 95.785156 79.78125 95.714844 79.636719 C 95.582031 79.382812 95.285156 79.128906 94.417969 78.523438 C 93.183594 77.664062 91.367188 75.527344 90.882812 74.371094 C 90.332031 73.070312 90.714844 70.679688 91.515625 70.363281 C 91.683594 70.28125 91.832031 70.113281 91.832031 69.988281 C 91.832031 69.691406 91.515625 69.421875 90.015625 68.433594 C 89.050781 67.808594 88.832031 67.746094 87.484375 67.746094 C 86.035156 67.746094 86 67.722656 86.035156 67.261719 C 86.082031 66.589844 85.382812 65.246094 84.867188 64.996094 C 84.652344 64.890625 84.214844 64.847656 83.917969 64.933594 C 83.515625 65.015625 83.152344 64.910156 82.515625 64.492188 C 82.050781 64.199219 81.597656 63.988281 81.535156 64.050781 C 81.464844 64.09375 81.152344 63.96875 80.832031 63.738281 C 80.515625 63.527344 80.117188 63.296875 79.964844 63.214844 C 79.800781 63.152344 79.667969 63.003906 79.667969 62.898438 C 79.667969 62.792969 79.265625 62.332031 78.765625 61.871094 C 78.152344 61.285156 77.847656 60.824219 77.765625 60.402344 C 77.667969 59.691406 77.402344 59.582031 77.265625 60.152344 Z M 77.265625 60.152344 "/>
<path style=" stroke:none;fill-rule:nonzero;fill:rgb(0%,0%,0%);fill-opacity:1;" d="M 71.183594 67.660156 C 70.550781 68.332031 70.535156 68.957031 71.132812 69.671875 C 71.882812 70.59375 72.332031 70.617188 73 69.734375 L 73.582031 68.980469 L 72.800781 68.035156 C 72.367188 67.535156 71.949219 67.113281 71.847656 67.113281 C 71.765625 67.113281 71.464844 67.363281 71.183594 67.660156 Z M 71.183594 67.660156 "/>
<path style=" stroke:none;fill-rule:nonzero;fill:rgb(0%,0%,0%);fill-opacity:1;" d="M 69.449219 69.378906 C 69.117188 69.839844 69.082031 70.261719 69.382812 70.261719 C 69.582031 70.261719 70.832031 71.308594 71.300781 71.875 C 71.417969 72.019531 71.667969 72.144531 71.847656 72.144531 C 72.5 72.144531 75.382812 74.9375 75.597656 75.753906 C 75.734375 76.324219 76.265625 76.386719 77.902344 76.027344 C 78.714844 75.859375 79.402344 75.714844 79.433594 75.714844 C 79.464844 75.714844 79.5 75.589844 79.5 75.441406 C 79.5 75.269531 79.316406 75.042969 79.082031 74.917969 C 78.847656 74.792969 78.667969 74.582031 78.667969 74.472656 C 78.667969 74.371094 78.332031 74.078125 77.933594 73.824219 C 77.515625 73.59375 76.535156 72.589844 75.714844 71.625 C 74.917969 70.636719 74.183594 69.839844 74.117188 69.839844 C 74.050781 69.839844 73.816406 70.050781 73.617188 70.324219 C 73.402344 70.574219 73.035156 70.953125 72.785156 71.160156 C 72.25 71.605469 72.183594 71.558594 70.832031 69.988281 C 70.367188 69.441406 69.917969 69 69.847656 69 C 69.785156 69 69.597656 69.167969 69.449219 69.378906 Z M 69.449219 69.378906 "/>
<path style=" stroke:none;fill-rule:nonzero;fill:rgb(0%,0%,0%);fill-opacity:1;" d="M 61.832031 70.363281 C 61.832031 70.53125 61.984375 70.761719 62.167969 70.890625 C 62.402344 71.035156 62.5 71.328125 62.5 71.792969 C 62.5 72.566406 63.066406 74.246094 63.332031 74.246094 C 63.417969 74.246094 63.5 74.390625 63.5 74.558594 C 63.5 74.730469 63.382812 74.875 63.25 74.875 C 62.902344 74.875 62.734375 75.503906 63.015625 75.734375 C 63.332031 75.984375 63.433594 75.964844 63.734375 75.589844 C 63.964844 75.316406 64 75.316406 64 75.566406 C 64 75.878906 64.332031 76.132812 64.714844 76.132812 C 64.867188 76.132812 64.902344 75.609375 64.847656 74.328125 C 64.816406 72.859375 64.714844 72.378906 64.417969 71.8125 C 64.199219 71.414062 64 70.996094 63.964844 70.890625 C 63.917969 70.679688 63.382812 70.449219 62.714844 70.386719 C 62.5 70.34375 62.285156 70.261719 62.214844 70.199219 C 62.035156 69.945312 61.832031 70.03125 61.832031 70.363281 Z M 61.832031 70.363281 "/>
<path style=" stroke:none;fill-rule:nonzero;fill:rgb(0%,0%,0%);fill-opacity:1;" d="M 68.550781 95.761719 C 68.5 95.953125 68.566406 96.371094 68.734375 96.6875 C 68.882812 97.019531 68.949219 97.421875 68.902344 97.609375 C 68.832031 97.816406 68.917969 97.988281 69.097656 98.089844 C 69.5 98.261719 70.332031 99.410156 70.332031 99.769531 C 70.332031 99.957031 70.597656 100.042969 71.25 100.042969 C 72.117188 100.042969 72.167969 100.019531 72.167969 99.519531 C 72.167969 99.160156 72.035156 98.910156 71.75 98.742188 C 71.515625 98.613281 71.332031 98.34375 71.332031 98.132812 C 71.332031 97.921875 71.132812 97.484375 70.902344 97.125 C 70.550781 96.605469 70.347656 96.476562 69.816406 96.476562 C 69.347656 96.476562 69.167969 96.394531 69.167969 96.160156 C 69.167969 95.871094 69.347656 95.761719 69.800781 95.828125 C 69.902344 95.847656 70 95.761719 70 95.636719 C 70 95.28125 68.667969 95.386719 68.550781 95.761719 Z M 68.550781 95.761719 "/>
</g>
</svg>
