<?xml version="1.0" encoding="UTF-8"?>
<svg xmlns="http://www.w3.org/2000/svg" xmlns:xlink="http://www.w3.org/1999/xlink" width="377px" height="300px" viewBox="0 0 377 300" version="1.1">
<g id="surface1">
<path style=" stroke:none;fill-rule:nonzero;fill:rgb(0%,0%,0%);fill-opacity:1;" d="M 7.289062 6.039062 C 7.101562 6.605469 6.910156 8.429688 6.910156 10.128906 C 6.910156 12.332031 7.164062 13.214844 7.792969 13.214844 C 8.292969 13.214844 10.429688 14.976562 12.628906 17.113281 L 16.589844 21.078125 L 13.636719 21.265625 C 10.808594 21.457031 10.683594 21.519531 10.683594 23.40625 C 10.683594 25.609375 13.132812 28.3125 15.144531 28.3125 C 15.769531 28.3125 16.335938 28.753906 16.335938 29.257812 C 16.335938 29.761719 16.777344 30.203125 17.277344 30.203125 C 17.78125 30.203125 18.222656 30.453125 18.222656 30.703125 C 18.222656 31.019531 19.351562 31.710938 20.734375 32.339844 C 22.117188 32.96875 23.25 33.851562 23.25 34.355469 C 23.25 35.171875 24.378906 35.550781 26.265625 35.296875 C 26.640625 35.234375 27.019531 35.613281 27.019531 36.179688 C 27.019531 36.683594 27.457031 37.121094 27.960938 37.121094 C 28.527344 37.121094 29.09375 37.5625 29.28125 38.066406 C 29.53125 38.570312 30.347656 39.011719 31.164062 39.011719 C 31.980469 39.011719 32.671875 39.261719 32.671875 39.578125 C 32.671875 40.644531 37.261719 44.734375 38.078125 44.421875 C 38.515625 44.230469 39.398438 44.546875 39.960938 45.175781 C 40.589844 45.742188 41.722656 46.121094 42.539062 46.058594 C 43.417969 45.929688 44.109375 46.246094 44.359375 46.8125 C 44.613281 47.441406 45.492188 47.820312 46.558594 47.820312 C 47.628906 47.820312 48.570312 48.195312 48.757812 48.761719 C 49.074219 49.453125 50.078125 49.707031 52.464844 49.707031 C 56.171875 49.707031 57.996094 50.210938 57.429688 51.027344 C 57.242188 51.34375 58.5625 51.59375 60.257812 51.59375 C 62.519531 51.59375 63.460938 51.84375 63.460938 52.476562 C 63.460938 53.042969 63.964844 53.230469 65.09375 52.976562 C 66.667969 52.664062 66.730469 52.789062 66.351562 54.488281 C 66.101562 55.496094 65.472656 56.566406 64.96875 56.816406 C 63.398438 57.695312 64.027344 59.457031 66.917969 61.976562 C 68.488281 63.359375 69.746094 64.996094 69.746094 65.625 C 69.746094 66.253906 70.4375 67.386719 71.316406 68.203125 C 72.195312 69.023438 72.886719 70.21875 72.886719 70.910156 C 72.886719 71.539062 73.703125 72.734375 74.773438 73.488281 C 75.964844 74.433594 76.65625 75.441406 76.65625 76.445312 C 76.65625 77.328125 76.972656 78.019531 77.285156 78.019531 C 78.351562 78.019531 80.425781 80.472656 80.425781 81.730469 C 80.425781 82.363281 81.117188 83.429688 81.996094 84.058594 C 82.878906 84.691406 83.566406 85.757812 83.566406 86.386719 C 83.566406 87.019531 84.824219 88.78125 86.394531 90.351562 C 87.964844 91.863281 89.222656 93.5 89.222656 94.066406 C 89.222656 94.566406 90.355469 96.078125 91.738281 97.460938 C 93.117188 98.785156 94.25 100.355469 94.25 100.984375 C 94.25 101.613281 95.507812 103.1875 97.078125 104.570312 C 98.648438 105.957031 99.90625 107.464844 99.90625 107.96875 C 99.90625 108.472656 100.34375 108.851562 100.847656 108.851562 C 101.351562 108.851562 101.789062 109.101562 101.789062 109.480469 C 101.789062 109.792969 102.230469 110.109375 102.734375 110.109375 C 103.296875 110.109375 103.675781 110.675781 103.675781 111.683594 C 103.675781 112.5625 104.050781 113.445312 104.554688 113.632812 C 105.058594 113.820312 105.246094 114.578125 105.058594 115.519531 C 104.933594 116.339844 105.058594 117.03125 105.308594 117.03125 C 106.691406 117.03125 110.585938 121.433594 110.585938 122.945312 C 110.585938 123.886719 110.839844 124.582031 111.214844 124.582031 C 112.21875 124.582031 115.992188 128.734375 115.738281 129.488281 C 115.613281 129.929688 116.808594 131.5 118.378906 133.074219 C 119.949219 134.585938 121.269531 136.285156 121.269531 136.851562 C 121.269531 137.351562 122.460938 138.988281 123.96875 140.375 C 125.414062 141.820312 126.546875 143.457031 126.421875 144.023438 C 126.359375 144.589844 127.113281 145.722656 128.179688 146.476562 C 129.5 147.484375 130.066406 148.425781 130.066406 149.683594 C 130.066406 150.691406 130.441406 151.636719 131.007812 151.886719 C 131.574219 152.078125 131.949219 153.019531 131.949219 154.089844 C 131.949219 155.097656 132.328125 156.039062 132.890625 156.292969 C 133.394531 156.480469 133.835938 157.046875 133.835938 157.550781 C 133.835938 157.992188 134.714844 159.3125 135.71875 160.445312 C 136.789062 161.578125 137.605469 162.835938 137.542969 163.214844 C 137.355469 164.910156 137.667969 165.476562 139.050781 165.476562 C 139.804688 165.542969 141.125 166.359375 142.003906 167.367188 C 142.820312 168.433594 143.886719 169.253906 144.328125 169.253906 C 144.832031 169.253906 145.332031 169.632812 145.523438 170.132812 C 145.710938 170.636719 146.339844 170.890625 147.03125 170.699219 C 147.847656 170.449219 148.476562 170.953125 149.167969 172.273438 C 149.730469 173.34375 150.738281 174.351562 151.429688 174.601562 C 152.121094 174.789062 152.683594 175.292969 152.683594 175.609375 C 152.683594 175.921875 153.125 176.175781 153.628906 176.175781 C 154.128906 176.175781 156.957031 178.566406 159.847656 181.523438 C 162.738281 184.480469 165.566406 186.871094 166.132812 186.871094 C 166.695312 186.871094 168.269531 188.128906 169.710938 189.703125 C 171.15625 191.273438 172.664062 192.46875 173.105469 192.28125 C 173.484375 192.15625 175.117188 193.414062 176.75 195.050781 C 179.136719 197.503906 179.703125 198.511719 179.703125 200.273438 C 179.703125 201.65625 180.082031 202.601562 180.644531 202.851562 C 181.335938 203.105469 181.589844 204.238281 181.589844 207.632812 C 181.589844 210.84375 181.777344 211.976562 182.40625 211.851562 C 182.96875 211.785156 183.222656 213.484375 183.347656 218.457031 C 183.472656 223.929688 183.726562 225.25 184.414062 225.25 C 185.167969 225.25 185.359375 226.195312 185.359375 229.71875 C 185.359375 233.871094 185.484375 234.25 187.179688 235.695312 C 189.503906 237.648438 189.441406 239.535156 187.117188 241.609375 C 186.175781 242.429688 185.359375 243.625 185.359375 244.128906 C 185.359375 244.695312 184.542969 245.828125 183.472656 246.644531 C 182.089844 247.839844 181.652344 248.785156 181.589844 250.480469 C 181.589844 251.929688 181.210938 252.9375 180.644531 253.1875 C 178.382812 254.007812 180.457031 257.90625 182.96875 257.464844 C 184.667969 257.152344 184.667969 262.121094 182.90625 262.6875 C 180.898438 263.316406 180.015625 264.703125 180.960938 265.835938 C 181.589844 266.589844 181.460938 267.28125 180.332031 269.421875 C 178.699219 272.628906 176.5625 275.019531 175.871094 274.582031 C 174.929688 274.015625 175.242188 271.8125 176.246094 271.433594 C 176.75 271.183594 177.191406 270.363281 177.191406 269.484375 C 177.191406 268.035156 178.195312 265.519531 179.074219 264.890625 C 179.261719 264.703125 180.015625 263.382812 180.773438 261.933594 L 182.027344 259.226562 L 180.519531 259.226562 C 178.320312 259.226562 176.5625 260.359375 176.5625 261.746094 C 176.5625 263.066406 174.488281 265.519531 173.421875 265.519531 C 173.105469 265.519531 172.792969 266.210938 172.792969 267.09375 C 172.792969 267.972656 172.351562 268.855469 171.847656 269.042969 C 171.347656 269.296875 170.90625 270.050781 170.90625 270.867188 C 170.90625 271.6875 170.46875 272.441406 169.964844 272.691406 C 169.460938 272.882812 169.023438 273.636719 169.023438 274.390625 C 169.023438 275.148438 168.332031 276.40625 167.449219 277.222656 C 166.570312 278.042969 165.878906 279.238281 165.878906 279.867188 C 165.878906 280.558594 165.441406 281.25 164.9375 281.5 C 164.308594 281.691406 163.996094 282.695312 163.996094 284.394531 C 163.996094 286.21875 163.742188 286.914062 163.050781 286.914062 C 162.363281 286.914062 162.109375 287.730469 162.109375 290.308594 C 162.109375 292.765625 161.859375 293.769531 161.167969 294.085938 C 160.539062 294.335938 160.226562 295.34375 160.226562 297.292969 L 160.226562 300.125 L 196.480469 300.125 L 197.484375 294.273438 C 198.804688 287.101562 198.804688 286.03125 197.609375 285.023438 C 196.292969 283.957031 196.417969 282.445312 197.863281 282.066406 C 198.617188 281.878906 198.929688 281.375 198.742188 280.683594 C 198.617188 280.054688 198.929688 279.238281 199.433594 278.796875 C 200 278.292969 200.4375 277.222656 200.4375 276.40625 C 200.4375 275.148438 200.1875 274.894531 199.371094 275.148438 C 198.742188 275.398438 196.984375 275.839844 195.410156 276.214844 C 193.839844 276.65625 191.703125 277.222656 190.636719 277.539062 C 189.566406 277.851562 187.621094 278.105469 186.363281 278.105469 C 184.289062 278.105469 184.039062 277.976562 184.730469 277.160156 C 185.167969 276.65625 185.925781 276.214844 186.425781 276.214844 C 187.054688 276.214844 187.117188 275.902344 186.742188 275.210938 C 185.859375 273.699219 186.613281 271.308594 188.058594 270.929688 C 189.128906 270.679688 189.191406 270.492188 188.5625 269.671875 C 187.996094 269.042969 187.871094 268.101562 188.25 266.96875 C 188.5 265.960938 188.625 264.890625 188.5625 264.449219 C 188.5 264.074219 189.066406 263.570312 189.757812 263.316406 C 190.449219 263.066406 191.765625 262.25 192.585938 261.492188 C 193.839844 260.296875 194.09375 259.605469 193.777344 258.160156 C 193.339844 255.957031 194.21875 255.074219 195.914062 256.019531 C 196.792969 256.460938 197.046875 257.152344 196.792969 258.597656 C 196.480469 260.925781 197.546875 262.375 199.746094 262.375 C 200.625 262.375 202.261719 262.941406 203.328125 263.570312 C 204.835938 264.511719 205.402344 265.332031 205.589844 267.21875 C 205.84375 268.730469 205.589844 269.988281 205.089844 270.617188 C 204.585938 271.121094 204.207031 272.125 204.207031 272.820312 C 204.207031 273.511719 203.769531 274.644531 203.265625 275.335938 C 202.761719 275.964844 202.324219 277.222656 202.324219 278.105469 C 202.324219 278.984375 201.757812 280.558594 201.128906 281.691406 C 200.1875 283.199219 200 284.082031 200.4375 285.464844 C 200.816406 286.410156 201.378906 290.121094 201.757812 293.644531 L 202.449219 300.125 L 236.191406 300.125 L 236.378906 298.425781 C 236.503906 297.355469 237.007812 296.601562 237.699219 296.476562 C 238.515625 296.289062 238.765625 296.664062 238.765625 298.175781 C 238.765625 299.9375 238.957031 300.125 240.652344 300.125 L 242.535156 300.125 L 242.535156 294.273438 C 242.535156 291.128906 242.726562 286.976562 242.976562 285.152344 C 243.351562 281.941406 243.417969 281.816406 244.925781 282.195312 C 245.742188 282.382812 247.5625 283.453125 248.882812 284.523438 C 251.082031 286.285156 251.585938 286.410156 254.285156 286.03125 C 255.984375 285.84375 257.492188 285.214844 257.804688 284.648438 C 258.246094 283.894531 258.9375 283.765625 260.507812 284.082031 C 262.957031 284.523438 268.046875 282.570312 268.675781 281 C 269.429688 278.984375 273.386719 279.363281 274.707031 281.566406 C 274.957031 282.003906 276.71875 283.136719 278.664062 284.019531 C 281.179688 285.277344 282.625 285.65625 284.007812 285.339844 C 285.011719 285.089844 286.835938 285.214844 287.902344 285.527344 C 289.035156 285.84375 291.609375 286.535156 293.683594 286.976562 C 295.695312 287.417969 297.453125 288.171875 297.640625 288.613281 C 297.828125 289.050781 297.703125 291.316406 297.390625 293.644531 C 296.449219 300.125 296.449219 300.125 302.605469 300.125 C 305.871094 300.125 307.882812 299.875 307.882812 299.496094 C 307.882812 299.117188 306.691406 297.484375 305.179688 295.847656 C 302.164062 292.511719 300.027344 288.421875 301.035156 287.855469 C 301.601562 287.480469 309.140625 291.820312 313.285156 294.902344 C 314.355469 295.660156 316.113281 296.539062 317.183594 296.726562 C 318.941406 297.105469 319.191406 296.980469 319.191406 295.785156 C 319.191406 295.09375 319.003906 294.527344 318.753906 294.527344 C 316.742188 294.839844 316.554688 294.398438 316.996094 290.375 C 317.433594 286.472656 317.371094 286.285156 316.113281 286.285156 C 315.234375 286.285156 314.796875 285.90625 314.796875 285.089844 C 314.796875 283.390625 315.738281 282.949219 316.742188 284.144531 C 317.371094 284.898438 318.25 285.089844 320.574219 284.773438 C 323.527344 284.332031 323.96875 284.648438 323.65625 286.535156 C 323.589844 286.851562 324.972656 286.914062 326.796875 286.785156 C 329.5625 286.472656 330.0625 286.597656 330.316406 287.605469 C 330.628906 288.675781 331.320312 288.800781 336.472656 288.800781 C 341.8125 288.800781 342.316406 288.675781 342.628906 287.480469 C 342.945312 286.347656 343.257812 286.21875 345.960938 286.660156 C 348.097656 286.976562 348.789062 286.914062 348.472656 286.347656 C 348.222656 285.96875 348.472656 285.464844 349.101562 285.214844 C 350.863281 284.585938 354.503906 280.558594 354.128906 279.675781 C 353.6875 278.417969 350.796875 276.65625 349.980469 277.160156 C 349.605469 277.410156 349.417969 277.976562 349.605469 278.417969 C 349.730469 278.859375 349.542969 279.738281 349.101562 280.367188 C 348.472656 281.1875 347.78125 281.375 345.898438 281.0625 C 344.390625 280.808594 342.945312 281 341.875 281.566406 C 340.492188 282.257812 339.175781 282.320312 335.46875 281.816406 C 332.890625 281.5 329.8125 281.125 328.554688 281 C 327.300781 280.871094 325.289062 280.304688 324.15625 279.738281 C 322.964844 279.238281 319.882812 278.042969 317.308594 277.222656 C 311.085938 275.148438 308.636719 274.203125 306 272.757812 C 303.800781 271.558594 299.714844 269.925781 295.003906 268.414062 L 292.550781 267.597656 L 292.613281 257.59375 C 292.804688 240.730469 291.042969 231.859375 287.210938 230.601562 C 284.570312 229.78125 281.429688 230.097656 279.734375 231.355469 C 278.414062 232.296875 277.660156 232.488281 276.90625 232.046875 C 276.152344 231.667969 274.644531 231.796875 272.195312 232.488281 C 270.246094 233.054688 267.921875 233.683594 267.042969 233.871094 C 266.160156 234.058594 264.96875 234.625 264.402344 235.191406 C 263.773438 235.695312 262.832031 235.949219 262.203125 235.632812 C 261.199219 235.257812 261.261719 235.128906 262.832031 234.3125 C 263.773438 233.808594 264.527344 233.179688 264.527344 232.863281 C 264.527344 232.550781 265.15625 232.109375 265.972656 231.859375 C 267.042969 231.542969 267.105469 231.355469 266.414062 231.101562 C 265.910156 230.914062 265.21875 230.347656 264.96875 229.90625 C 264.402344 228.902344 261.386719 228.710938 261.386719 229.65625 C 261.386719 230.789062 258.746094 230.285156 256.738281 228.839844 C 253.785156 226.636719 252.714844 226.382812 251.960938 227.769531 C 251.207031 229.152344 249.761719 229.40625 249.261719 228.273438 C 249.132812 227.832031 249.511719 225.753906 250.203125 223.679688 C 251.585938 219.335938 252.96875 205.683594 252.339844 202.347656 C 251.585938 198.257812 250.078125 200.273438 250.078125 205.496094 C 250.078125 206.878906 249.699219 209.269531 249.195312 210.84375 C 247.6875 215.625 246.308594 222.484375 246.308594 225.125 C 246.308594 226.574219 246.054688 227.894531 245.679688 228.082031 C 245.363281 228.273438 245.050781 229.152344 245.050781 229.96875 C 245.050781 231.542969 242.976562 233.429688 241.21875 233.429688 C 240.589844 233.429688 239.332031 234.25 238.328125 235.191406 C 236.253906 237.332031 234.808594 237.207031 235.375 234.941406 C 235.625 234.125 235.4375 232.992188 234.996094 232.488281 C 233.992188 231.292969 233.675781 225.816406 234.558594 224.683594 C 235.058594 224.054688 235.058594 223.679688 234.304688 223.113281 C 232.859375 222.042969 231.539062 219.589844 230.347656 216.003906 C 229.78125 214.242188 228.902344 212.605469 228.523438 212.417969 C 227.960938 212.101562 227.960938 211.976562 228.585938 211.660156 C 229.84375 211.09375 229.53125 208.261719 228.148438 208.261719 C 226.703125 208.261719 225.445312 206.816406 225.699219 205.367188 C 225.824219 204.675781 225.070312 203.859375 223.433594 203.042969 C 220.859375 201.71875 217.402344 197.378906 216.648438 194.546875 C 216.019531 192.28125 216.335938 192.21875 218.535156 194.105469 C 219.539062 194.988281 220.859375 195.679688 221.363281 195.679688 C 222.617188 195.679688 223.8125 197.253906 223.5625 198.636719 C 223.433594 199.453125 223.8125 199.832031 225.070312 199.957031 C 226.074219 200.082031 226.953125 200.648438 227.140625 201.40625 C 227.457031 202.410156 227.898438 202.539062 230.03125 202.222656 C 231.917969 201.910156 232.796875 202.097656 233.738281 202.914062 C 234.683594 203.796875 235.183594 203.921875 235.75 203.355469 C 236.253906 202.851562 236.191406 202.539062 235.375 202.222656 C 233.550781 201.53125 232.421875 198.511719 232.859375 195.617188 C 233.363281 192.660156 232.292969 191.273438 229.53125 191.273438 C 228.652344 191.273438 228.085938 190.898438 228.085938 190.269531 C 228.085938 188.445312 224.691406 183.09375 223.5625 183.09375 C 222.933594 183.09375 222.429688 182.78125 222.429688 182.464844 C 222.429688 182.089844 222.933594 181.835938 223.5625 181.964844 C 224.253906 182.089844 224.691406 181.710938 224.816406 180.703125 C 225.070312 179.132812 223.8125 178.878906 221.863281 180.074219 C 220.921875 180.640625 220.480469 180.578125 219.664062 179.824219 C 219.101562 179.257812 218.347656 178.691406 217.90625 178.503906 C 217.214844 178.25 217.214844 178.0625 217.90625 177.371094 C 218.535156 176.679688 218.910156 176.679688 219.980469 177.308594 C 221.488281 178.25 222.117188 177.9375 221.613281 176.488281 C 221.363281 175.859375 220.355469 175.546875 218.597656 175.546875 C 216.835938 175.546875 216.148438 175.292969 216.273438 174.789062 C 216.585938 173.910156 223.6875 173.34375 224.253906 174.097656 C 224.441406 174.414062 225.570312 175.292969 226.765625 176.113281 C 228.460938 177.308594 229.089844 177.433594 230.347656 176.867188 C 232.984375 175.671875 231.917969 173.65625 228.652344 173.65625 C 227.960938 173.65625 226.074219 173.089844 224.503906 172.335938 C 221.988281 171.203125 220.921875 171.078125 217.214844 171.457031 C 212.878906 171.832031 212.816406 171.832031 210.996094 169.820312 C 209.296875 167.996094 209.109375 167.429688 209.359375 164.722656 C 209.675781 161.890625 209.550781 161.578125 207.914062 160.382812 C 205.777344 158.871094 205.527344 157.296875 207.351562 156.859375 C 208.042969 156.667969 208.605469 156.292969 208.605469 155.976562 C 208.605469 154.84375 207.097656 152.265625 206.40625 152.265625 C 205.589844 152.265625 204.019531 148.238281 203.957031 146.035156 C 203.894531 143.519531 202.636719 143.898438 201.632812 146.726562 C 200.375 150.125 199.183594 150.566406 199.183594 147.671875 C 199.183594 146.414062 199.496094 145.34375 199.871094 145.21875 C 200.25 145.09375 200.4375 144.023438 200.3125 142.828125 L 200.125 140.625 L 198.679688 143.394531 C 197.925781 144.964844 197.296875 146.726562 197.296875 147.355469 C 197.296875 149.246094 194.910156 153.398438 193.210938 154.53125 C 192.332031 155.097656 191.640625 156.101562 191.640625 156.730469 C 191.640625 157.425781 191.390625 157.929688 191.011719 157.929688 C 190.195312 157.929688 190.195312 155.601562 191.011719 155.285156 C 191.390625 155.160156 191.390625 154.339844 191.011719 152.894531 C 190.699219 151.699219 190.320312 147.421875 190.132812 143.457031 C 189.882812 137.351562 189.695312 136.09375 188.6875 135.464844 C 187.621094 134.710938 187.558594 135.089844 187.558594 142.765625 C 187.496094 148.175781 187.242188 151.195312 186.742188 151.824219 C 186.300781 152.328125 186.050781 153.273438 186.050781 153.902344 C 186.363281 157.109375 185.105469 158.683594 184.351562 156.167969 C 184.164062 155.601562 183.472656 154.089844 182.78125 152.769531 C 182.027344 151.382812 181.398438 148.425781 181.085938 144.964844 C 180.835938 141.507812 180.332031 139.367188 179.890625 139.179688 C 179.328125 139.050781 179.074219 139.679688 179.074219 141.066406 C 179.074219 142.261719 178.636719 143.769531 178.132812 144.464844 C 177.316406 145.46875 177.128906 145.53125 176.5625 144.714844 C 176.246094 144.210938 175.933594 142.324219 175.933594 140.625 C 175.933594 137.351562 173.355469 128.671875 172.414062 128.671875 C 171.347656 128.671875 170.78125 139.742188 171.535156 145.34375 C 172.539062 152.578125 172.601562 153.648438 171.785156 153.964844 C 171.347656 154.089844 170.46875 152.328125 169.648438 149.8125 C 168.394531 146.035156 168.269531 145.03125 168.894531 143.078125 C 169.585938 140.6875 169.085938 138.925781 167.136719 137.417969 C 166.003906 136.535156 164.6875 130.933594 164.625 126.972656 C 164.625 123.699219 164.246094 123.195312 162.171875 123.761719 C 161.230469 124.015625 160.917969 124.453125 161.167969 125.210938 C 161.542969 126.46875 160.601562 127.410156 159.597656 126.78125 C 159.21875 126.53125 159.15625 125.964844 159.472656 125.398438 C 160.164062 124.265625 158.652344 120.804688 157.523438 120.804688 C 157.082031 120.804688 156.078125 119.359375 155.199219 117.535156 C 152.558594 112.058594 149.667969 111.871094 150.546875 117.15625 C 150.738281 118.476562 150.675781 119.546875 150.359375 119.546875 C 150.046875 119.546875 147.660156 117.46875 145.082031 114.953125 C 142.507812 112.5 139.175781 109.667969 137.792969 108.660156 C 136.035156 107.53125 135.027344 106.332031 134.777344 105.011719 C 134.527344 103.816406 133.773438 102.875 132.890625 102.558594 C 132.074219 102.242188 131.257812 101.425781 131.007812 100.671875 C 130.757812 99.917969 129.5 98.910156 128.117188 98.40625 C 125.164062 97.210938 124.851562 95.636719 127.550781 95.636719 C 129.121094 95.636719 129.4375 95.386719 129.4375 94.191406 C 129.4375 93.433594 128.683594 92.050781 127.675781 91.105469 C 126.734375 90.226562 124.976562 88.402344 123.78125 87.144531 C 122.585938 85.886719 120.828125 84.5 119.949219 83.996094 C 119.007812 83.492188 118.125 82.675781 117.9375 82.109375 C 117.6875 81.605469 117.183594 81.167969 116.679688 81.167969 C 115.488281 81.167969 113.351562 78.648438 112.910156 76.761719 C 112.660156 75.882812 110.839844 73.425781 108.765625 71.289062 C 106.1875 68.644531 105.058594 67.007812 105.371094 66.378906 C 105.621094 65.6875 105.308594 65.246094 104.492188 65.058594 C 103.863281 64.871094 102.984375 64.179688 102.605469 63.546875 C 101.851562 62.351562 101.851562 62.164062 103.988281 55.558594 L 105.058594 52.285156 L 101.851562 49.015625 C 99.402344 46.558594 98.398438 45.929688 97.894531 46.433594 C 97.390625 46.9375 97.390625 47.757812 97.894531 49.582031 C 98.335938 50.964844 98.648438 54.738281 98.648438 57.949219 L 98.648438 63.863281 L 96.449219 65.375 C 94.375 66.757812 93.871094 66.820312 86.710938 66.570312 C 82.5625 66.441406 78.980469 66.066406 78.730469 65.8125 C 78.480469 65.5625 78.730469 64.996094 79.296875 64.554688 C 80.363281 63.800781 80.363281 63.675781 79.105469 62.542969 C 78.414062 61.914062 77.347656 60.589844 76.78125 59.648438 C 75.589844 57.632812 75.085938 57.507812 72.382812 58.894531 C 70.375 59.898438 67.859375 59.585938 67.859375 58.390625 C 67.859375 58.074219 68.238281 57.886719 68.738281 58.074219 C 69.242188 58.261719 70.375 57.886719 71.191406 57.195312 C 72.070312 56.566406 73.074219 56 73.390625 56 C 73.765625 56 74.207031 55.433594 74.457031 54.804688 C 74.644531 54.109375 75.460938 53.417969 76.21875 53.292969 C 77.347656 53.042969 77.285156 52.976562 75.902344 52.914062 C 73.765625 52.851562 73.578125 51.46875 75.527344 50.210938 C 76.78125 49.390625 76.84375 49.078125 76.21875 47.628906 C 75.273438 45.679688 76.027344 44.925781 78.667969 45.238281 C 80.804688 45.429688 80.867188 44.609375 79.171875 42.09375 C 77.976562 40.457031 77.597656 40.332031 75.148438 40.644531 C 73.453125 40.898438 72.257812 40.773438 72.007812 40.332031 C 71.753906 39.953125 71.066406 39.640625 70.4375 39.640625 C 69.621094 39.640625 68.800781 38.507812 67.671875 35.863281 C 65.03125 29.761719 59.441406 27.242188 55.355469 30.265625 C 52.589844 32.277344 48.320312 32.59375 45.929688 30.894531 C 43.480469 29.132812 43.480469 28.503906 46.058594 26.363281 C 47.125 25.417969 47.941406 24.539062 47.753906 24.414062 C 47.566406 24.285156 45.742188 23.089844 43.667969 21.707031 C 41.59375 20.324219 38.640625 18.058594 37.007812 16.671875 C 33.992188 14.03125 32.671875 13.214844 25.449219 9.375 C 23.058594 8.117188 20.988281 6.605469 20.859375 6.039062 C 20.546875 4.65625 14.453125 4.59375 14.453125 5.976562 C 14.453125 6.480469 14.765625 6.921875 15.078125 6.921875 C 15.457031 6.921875 15.707031 7.488281 15.707031 8.179688 C 15.707031 8.996094 15.269531 9.4375 14.453125 9.4375 C 12.566406 9.4375 10.054688 7.613281 10.054688 6.230469 C 10.054688 4.78125 7.855469 4.59375 7.289062 6.039062 Z M 286.835938 241.671875 C 286.582031 242.679688 286.144531 243.371094 285.890625 243.183594 C 285.578125 242.996094 285.703125 243.625 286.207031 244.566406 C 286.707031 245.511719 287.148438 247.023438 287.148438 247.839844 C 287.148438 249.351562 287.148438 249.351562 286.015625 248.15625 C 284.445312 246.394531 282.75 243.625 282.75 242.804688 C 282.75 242.367188 283.253906 241.671875 283.882812 241.234375 C 284.699219 240.605469 284.761719 240.289062 284.195312 239.722656 C 283.253906 238.714844 279.105469 241.800781 278.855469 243.6875 C 278.601562 245.636719 275.902344 245.953125 275.398438 244.191406 C 275.023438 242.679688 273.324219 242.367188 273.324219 243.8125 C 273.324219 244.316406 272.886719 244.757812 272.320312 244.757812 C 270.75 244.757812 271.566406 242.679688 273.449219 241.738281 C 274.457031 241.296875 275.460938 240.039062 275.902344 238.78125 C 276.402344 237.394531 277.15625 236.578125 277.847656 236.578125 C 279.230469 236.578125 279.292969 237.394531 278.039062 238.714844 C 277.535156 239.21875 277.09375 239.910156 277.09375 240.289062 C 277.09375 241.484375 278.476562 241.042969 279.734375 239.410156 C 280.425781 238.527344 281.242188 237.835938 281.554688 237.835938 C 281.871094 237.835938 282.8125 237.269531 283.566406 236.578125 L 284.886719 235.257812 L 286.082031 237.582031 C 286.835938 239.09375 287.085938 240.414062 286.835938 241.671875 Z M 278.980469 246.769531 C 278.980469 247.148438 278.289062 248.089844 277.410156 248.910156 C 275.460938 250.734375 275.273438 251.992188 277.15625 251.046875 C 277.847656 250.609375 278.980469 249.789062 279.671875 249.097656 C 281.054688 247.714844 282.75 248.15625 282.75 249.851562 C 282.75 250.546875 283.378906 251.992188 284.195312 253 L 285.578125 254.949219 L 284.257812 256.019531 C 283.566406 256.585938 282.75 257.84375 282.5625 258.726562 C 282.308594 259.667969 281.554688 260.738281 280.863281 261.117188 C 280.175781 261.492188 279.609375 262.183594 279.609375 262.6875 C 279.609375 263.820312 277.15625 263.945312 277.03125 262.816406 C 276.96875 262.4375 276.90625 261.242188 276.84375 260.171875 C 276.78125 257.71875 274.582031 257.027344 274.582031 259.480469 C 274.582031 261.492188 273.449219 261.554688 271.1875 259.792969 C 269.242188 258.222656 269.113281 257.277344 270.8125 256.207031 C 272.066406 255.453125 272.570312 253.566406 271.503906 253.566406 C 271.1875 253.566406 270.625 254.007812 270.183594 254.507812 C 269.742188 255.011719 268.738281 255.453125 267.921875 255.453125 C 265.660156 255.453125 265.972656 253.3125 268.488281 251.742188 C 269.617188 251.046875 271.3125 249.539062 272.257812 248.34375 C 273.703125 246.519531 274.394531 246.140625 276.464844 246.140625 C 277.847656 246.078125 278.980469 246.394531 278.980469 246.769531 Z M 278.980469 246.769531 "/>
<path style=" stroke:none;fill-rule:nonzero;fill:rgb(0%,0%,0%);fill-opacity:1;" d="M 233.738281 14.785156 C 233.738281 15.414062 233.050781 15.730469 231.539062 15.730469 C 229.71875 15.730469 229.339844 15.980469 229.339844 17.050781 C 229.339844 18.246094 229.089844 18.308594 227.207031 17.996094 C 225.445312 17.679688 225.070312 17.804688 224.753906 18.8125 C 224.566406 19.695312 224.0625 19.945312 223.183594 19.695312 C 222.242188 19.503906 221.046875 20.324219 218.472656 22.902344 C 216.460938 24.980469 214.449219 26.425781 213.695312 26.425781 C 212.441406 26.425781 212.125 26.929688 212.3125 28.941406 C 212.441406 30.011719 210.175781 32.71875 209.234375 32.71875 C 208.859375 32.71875 208.605469 33.160156 208.605469 33.660156 C 208.605469 34.226562 208.167969 34.792969 207.601562 35.046875 C 206.847656 35.296875 206.722656 35.925781 206.972656 37.25 C 207.289062 38.757812 207.097656 39.199219 206.09375 39.449219 C 204.898438 39.765625 204.835938 40.332031 204.835938 48.761719 C 204.835938 56.878906 204.960938 57.761719 205.96875 58.011719 C 206.910156 58.261719 207.035156 58.828125 206.847656 60.65625 C 206.660156 62.417969 206.785156 62.917969 207.601562 62.917969 C 208.355469 62.917969 208.605469 63.484375 208.605469 65.058594 C 208.605469 66.378906 208.984375 67.324219 209.613281 67.574219 C 210.113281 67.765625 210.367188 68.269531 210.175781 68.644531 C 209.925781 69.023438 210.617188 70.15625 211.683594 71.226562 C 212.753906 72.292969 213.632812 73.804688 213.632812 74.621094 C 213.632812 75.441406 213.949219 76.132812 214.261719 76.132812 C 215.457031 76.132812 217.402344 78.648438 217.402344 80.222656 C 217.402344 81.230469 217.78125 81.796875 218.347656 81.796875 C 219.101562 81.796875 219.289062 82.863281 219.289062 87.773438 C 219.289062 92.304688 219.476562 93.875 220.167969 94.128906 C 220.796875 94.378906 220.921875 95.261719 220.671875 97.210938 C 220.292969 100.546875 220.921875 103.1875 222.054688 103.1875 C 222.679688 103.1875 222.808594 104.007812 222.554688 106.332031 C 222.304688 108.851562 222.492188 109.542969 223.308594 109.855469 C 223.875 110.046875 224.316406 110.925781 224.316406 111.746094 C 224.316406 112.625 224.753906 113.445312 225.257812 113.632812 C 225.761719 113.882812 226.199219 114.578125 226.199219 115.269531 C 226.199219 115.898438 227.140625 117.34375 228.273438 118.414062 C 229.53125 119.609375 230.03125 120.429688 229.53125 120.617188 C 229.089844 120.804688 228.714844 121.308594 228.714844 121.75 C 228.714844 122.191406 228.148438 122.691406 227.457031 122.882812 C 226.453125 123.132812 226.199219 123.761719 226.199219 125.777344 C 226.199219 127.664062 225.949219 128.355469 225.257812 128.355469 C 224.753906 128.355469 224.316406 128.921875 224.316406 129.613281 C 224.316406 130.304688 224.0625 130.871094 223.75 130.871094 C 223.433594 130.871094 223.058594 131.5 222.933594 132.257812 C 222.746094 133.515625 222.429688 133.640625 219.164062 133.453125 C 216.210938 133.328125 215.519531 133.453125 215.519531 134.269531 C 215.519531 134.835938 215.140625 135.277344 214.636719 135.277344 C 213.695312 135.277344 213.003906 136.597656 213.003906 138.421875 C 213.003906 139.113281 212.441406 139.933594 211.75 140.308594 C 211.058594 140.6875 210.492188 141.378906 210.492188 141.945312 C 210.492188 142.953125 213.445312 149.117188 213.949219 149.117188 C 214.449219 149.117188 216.210938 144.527344 216.902344 141.316406 C 217.339844 139.179688 217.90625 138.171875 218.722656 137.980469 C 219.351562 137.792969 219.917969 137.417969 219.917969 137.164062 C 219.917969 136.851562 221.738281 136.472656 223.9375 136.21875 C 226.890625 135.90625 228.460938 136.03125 230.03125 136.722656 C 231.226562 137.226562 232.921875 137.855469 233.867188 138.046875 C 234.933594 138.296875 235.625 138.925781 235.75 139.808594 C 236.003906 141.570312 237.511719 142.070312 237.511719 140.375 C 237.511719 139.617188 237.257812 139.050781 237.007812 139.050781 C 236.691406 139.050781 236.378906 137.855469 236.378906 136.347656 C 236.316406 134.898438 236.253906 133.136719 236.191406 132.445312 C 236.128906 131.753906 236.253906 130.746094 236.503906 130.179688 C 236.820312 129.488281 236.566406 128.796875 235.9375 128.292969 C 232.734375 125.648438 229.96875 122.691406 229.96875 121.8125 C 229.96875 120.429688 231.667969 120.554688 233.550781 122 C 235.875 123.886719 241.46875 125.335938 243.289062 124.644531 C 244.109375 124.265625 246.371094 123.699219 248.316406 123.320312 C 250.265625 122.945312 252.214844 122.253906 252.589844 121.75 C 253.722656 120.363281 252.714844 118.414062 250.328125 117.535156 C 249.195312 117.15625 248.191406 116.527344 248.191406 116.210938 C 248.191406 115.960938 249.070312 114.953125 250.078125 114.074219 C 252.589844 111.933594 252.464844 111.367188 249.324219 111.367188 C 246.683594 111.367188 241.78125 109.605469 241.027344 108.347656 C 240.839844 108.03125 239.960938 107.90625 239.082031 108.09375 C 237.699219 108.347656 237.511719 108.160156 237.511719 106.460938 C 237.511719 105.390625 237.949219 104.257812 238.453125 104.007812 C 238.957031 103.691406 239.960938 102.371094 240.652344 100.984375 C 242.035156 98.34375 241.40625 96.582031 239.332031 97.210938 C 237.949219 97.652344 237.007812 96.328125 238.199219 95.574219 C 238.703125 95.261719 240.398438 95.007812 242.035156 95.007812 C 245.425781 95.007812 246.558594 94.066406 243.792969 93.5 C 242.097656 93.183594 241.027344 91.234375 242.535156 91.234375 C 243.351562 91.234375 244.546875 86.386719 244.109375 84.878906 C 243.605469 83.367188 242.410156 82.738281 237.132812 81.101562 C 234.621094 80.285156 233.113281 79.53125 233.300781 79.089844 C 233.425781 78.648438 234.054688 76.699219 234.621094 74.75 C 235.3125 72.421875 236.066406 71.035156 236.820312 70.785156 C 237.511719 70.59375 240.023438 71.351562 242.851562 72.671875 C 247.4375 74.75 247.816406 74.8125 248.882812 73.867188 C 249.511719 73.300781 249.886719 72.546875 249.699219 72.230469 C 248.882812 70.910156 250.078125 68.707031 251.898438 68.394531 C 252.902344 68.140625 253.785156 67.511719 253.972656 66.820312 C 254.285156 65.6875 254.601562 65.6875 261.449219 66.441406 C 265.40625 66.882812 268.988281 67.261719 269.367188 67.261719 C 269.804688 67.324219 270.371094 68.078125 270.558594 69.023438 C 271.125 71.414062 272.003906 72.355469 273.578125 72.355469 C 274.265625 72.355469 275.777344 72.921875 276.78125 73.617188 C 278.539062 74.75 280.863281 75.316406 280.863281 74.558594 C 280.863281 74.371094 280.488281 73.679688 280.109375 72.988281 C 279.546875 72.042969 279.484375 71.601562 280.046875 71.035156 C 280.992188 70.09375 282.121094 70.847656 282.121094 72.546875 C 282.183594 74.246094 283.691406 76.382812 284.507812 75.882812 C 284.886719 75.691406 285.011719 75 284.824219 74.371094 C 284.507812 73.113281 287.335938 70.722656 288.34375 71.351562 C 288.59375 71.539062 288.71875 71.035156 288.59375 70.21875 C 288.34375 69.148438 288.65625 68.644531 289.660156 68.394531 C 290.855469 68.078125 290.917969 67.890625 290.226562 66.570312 C 289.789062 65.8125 288.78125 64.617188 287.964844 63.988281 C 286.519531 62.855469 284.636719 60.023438 285.703125 60.527344 C 285.953125 60.65625 286.960938 61.15625 287.902344 61.597656 C 288.78125 62.101562 289.722656 62.980469 289.851562 63.613281 C 290.039062 64.304688 290.605469 64.808594 291.167969 64.808594 C 292.113281 64.808594 292.175781 63.738281 292.050781 55.558594 L 291.859375 46.308594 L 290.289062 45.929688 C 288.84375 45.554688 288.78125 45.492188 289.851562 44.925781 C 290.605469 44.484375 290.980469 43.730469 290.792969 42.722656 C 290.667969 41.527344 289.976562 41.023438 287.652344 40.332031 C 285.953125 39.828125 284.636719 39.074219 284.636719 38.695312 C 284.636719 38.316406 284.320312 37.6875 283.882812 37.25 C 283.316406 36.683594 282.875 36.746094 282.058594 37.5 C 281.117188 38.382812 280.992188 38.316406 280.613281 36.808594 C 280.300781 35.488281 279.859375 35.234375 278.039062 35.234375 C 276.464844 35.234375 275.839844 35.488281 275.839844 36.242188 C 275.839844 36.808594 275.460938 37.121094 275.085938 36.933594 C 274.332031 36.683594 273.324219 36.367188 267.417969 34.542969 C 266.160156 34.164062 265.28125 34.226562 264.71875 34.730469 C 264.089844 35.234375 263.273438 35.234375 261.511719 34.730469 C 256.800781 33.285156 254.347656 32.78125 253.46875 33.160156 C 251.585938 33.851562 253.28125 35.863281 255.792969 35.863281 C 256.738281 35.863281 257.804688 36.304688 258.246094 36.808594 C 258.683594 37.3125 259.566406 37.75 260.253906 37.75 C 260.945312 37.75 262.769531 38.570312 264.339844 39.640625 C 265.847656 40.644531 267.230469 41.527344 267.417969 41.527344 C 268.550781 41.527344 275.648438 48.953125 276.65625 51.089844 C 277.03125 52.097656 277.597656 52.851562 277.785156 52.851562 C 278.039062 52.851562 278.414062 54.488281 278.664062 56.4375 C 278.917969 58.515625 279.921875 61.660156 280.992188 63.738281 C 282.4375 66.507812 282.75 67.574219 282.183594 68.140625 C 281.117188 69.210938 279.484375 67.953125 278.855469 65.5625 C 278.289062 63.484375 277.785156 63.109375 276.71875 64.179688 C 276.277344 64.617188 275.398438 64.242188 274.015625 63.046875 C 268.488281 58.515625 266.351562 56.941406 264.527344 56.25 C 264.027344 56.0625 262.644531 55.496094 261.511719 54.992188 C 260.382812 54.488281 259.0625 54.109375 258.496094 54.109375 C 257.992188 54.109375 256.863281 53.605469 255.984375 53.042969 C 254.601562 52.160156 252.589844 51.972656 243.417969 52.035156 C 235.9375 52.035156 232.167969 52.285156 231.730469 52.726562 C 230.851562 53.605469 227.457031 53.734375 227.457031 52.914062 C 227.457031 52.601562 228.085938 52.160156 228.902344 51.910156 C 230.222656 51.46875 230.222656 51.46875 229.027344 51.152344 C 228.398438 50.964844 227.707031 51.152344 227.582031 51.53125 C 227.332031 52.285156 224.816406 52.476562 224.125 51.84375 C 221.613281 49.328125 235.121094 45.300781 246.242188 45.300781 C 254.160156 45.300781 259.375 46.6875 268.171875 51.027344 C 276.089844 54.929688 277.410156 54.613281 273.324219 49.707031 C 269.367188 44.988281 264.589844 42.03125 255.792969 38.695312 C 252.085938 37.3125 237.824219 37.25 234.871094 38.632812 C 233.738281 39.136719 231.792969 39.828125 230.597656 40.144531 C 229.40625 40.519531 227.898438 40.960938 227.332031 41.210938 C 226.640625 41.464844 226.199219 41.402344 226.199219 40.960938 C 226.199219 40.582031 226.640625 40.269531 227.140625 40.269531 C 227.707031 40.269531 228.273438 39.828125 228.460938 39.324219 C 228.714844 38.820312 229.152344 38.382812 229.59375 38.382812 C 229.96875 38.382812 231.039062 38.003906 231.917969 37.5 C 232.796875 37.058594 234.558594 36.492188 235.8125 36.242188 C 237.511719 35.925781 238.136719 35.488281 238.136719 34.667969 C 238.136719 33.597656 238.640625 33.535156 243.730469 33.851562 C 247.5 34.039062 249.386719 33.914062 249.699219 33.410156 C 250.015625 32.96875 249.574219 32.71875 248.570312 32.71875 C 247.6875 32.71875 246.871094 32.464844 246.683594 32.152344 C 246.496094 31.898438 245.050781 31.710938 243.542969 31.835938 C 241.21875 32.027344 240.527344 31.773438 239.773438 30.769531 C 239.269531 30.011719 238.578125 29.636719 238.136719 29.886719 C 236.882812 30.640625 235.625 28.941406 236.066406 26.992188 C 236.253906 25.921875 236.066406 24.414062 235.625 23.53125 C 234.871094 22.210938 234.933594 21.832031 236.128906 20.574219 C 236.882812 19.757812 237.511719 18.625 237.511719 18.058594 C 237.511719 17.492188 238.074219 16.738281 238.765625 16.359375 C 241.21875 15.039062 240.273438 13.84375 236.882812 13.84375 C 234.492188 13.84375 233.738281 14.09375 233.738281 14.785156 Z M 233.738281 14.785156 "/>
<path style=" stroke:none;fill-rule:nonzero;fill:rgb(0%,0%,0%);fill-opacity:1;" d="M 247.125 135.78125 C 245.992188 138.109375 245.050781 140.308594 245.050781 140.6875 C 245.050781 141.316406 252.277344 152.578125 253.972656 154.59375 C 255.480469 156.417969 255.605469 154.46875 254.160156 151.195312 C 253.28125 149.308594 252.589844 146.539062 252.589844 145.15625 C 252.589844 143.078125 252.214844 142.324219 250.578125 140.941406 C 248.316406 139.050781 248.378906 136.722656 250.703125 137.480469 C 251.394531 137.730469 251.960938 137.605469 251.960938 137.226562 C 251.960938 136.851562 251.710938 136.535156 251.394531 136.535156 C 251.082031 136.535156 250.640625 135.402344 250.390625 134.019531 C 250.140625 132.632812 249.761719 131.5 249.574219 131.5 C 249.324219 131.5 248.191406 133.390625 247.125 135.78125 Z M 247.125 135.78125 "/>
<path style=" stroke:none;fill-rule:nonzero;fill:rgb(0%,0%,0%);fill-opacity:1;" d="M 224.941406 149.875 C 224.0625 150.25 221.550781 150.566406 219.289062 150.628906 C 217.027344 150.628906 215.265625 150.945312 215.265625 151.195312 C 215.457031 152.265625 221.550781 160.695312 223.6875 162.898438 C 224.878906 164.15625 227.207031 166.234375 228.839844 167.554688 C 230.472656 168.875 232.421875 170.953125 233.113281 172.085938 C 233.867188 173.28125 236.503906 176.363281 239.082031 178.941406 C 241.59375 181.460938 245.300781 186.117188 247.3125 189.136719 C 251.585938 195.617188 252.589844 196.9375 253.53125 196.9375 C 253.910156 196.9375 255.355469 198.007812 256.738281 199.390625 C 258.121094 200.714844 260.320312 202.285156 261.636719 202.914062 L 263.960938 204.046875 L 266.160156 201.910156 C 267.355469 200.777344 268.296875 199.390625 268.296875 198.824219 C 268.296875 198.257812 266.097656 195.617188 263.460938 192.910156 L 258.558594 188.003906 L 261.261719 188.382812 C 264.402344 188.820312 264.78125 187.878906 262.265625 185.675781 L 260.695312 184.292969 L 263.335938 180.011719 L 262.015625 179.320312 C 260.882812 178.753906 260.757812 178.25 261.136719 176.613281 C 261.324219 175.546875 262.265625 173.53125 263.082031 172.210938 C 265.785156 167.933594 265.597656 163.589844 262.832031 164.472656 C 261.828125 164.785156 261.511719 165.605469 261.199219 168.183594 C 260.882812 171.140625 259.3125 174.980469 257.492188 177.242188 C 257.050781 177.808594 255.667969 177.179688 252.339844 174.851562 C 249.824219 173.15625 247.5625 171.769531 247.375 171.769531 C 247.125 171.769531 244.796875 170.195312 242.160156 168.246094 C 239.582031 166.296875 236.253906 164.21875 234.808594 163.527344 C 233.363281 162.835938 231.730469 162.019531 231.226562 161.703125 C 229.40625 160.632812 226.011719 159.1875 225.195312 159.1875 C 224.753906 159.1875 224.0625 158.621094 223.625 157.863281 C 223.058594 156.730469 223.246094 156.230469 225.195312 154.214844 C 228.398438 150.945312 228.210938 148.554688 224.941406 149.875 Z M 224.941406 149.875 "/>
<path style=" stroke:none;fill-rule:nonzero;fill:rgb(0%,0%,0%);fill-opacity:1;" d="M 278.351562 172.839844 C 275.273438 173.847656 274.394531 174.222656 270.183594 176.175781 C 263.207031 179.507812 262.957031 179.824219 265.472656 181.460938 C 266.664062 182.277344 267.042969 183.03125 267.042969 184.855469 C 267.042969 187.183594 267.105469 187.25 268.925781 186.996094 C 272.195312 186.492188 272.507812 185.234375 269.933594 182.84375 C 267.230469 180.265625 267.105469 179.320312 269.304688 179.320312 C 270.183594 179.320312 273.386719 178.0625 276.339844 176.550781 C 279.355469 175.042969 282.4375 173.59375 283.253906 173.34375 C 284.007812 173.15625 284.507812 172.652344 284.320312 172.335938 C 283.816406 171.582031 281.746094 171.707031 278.351562 172.839844 Z M 278.351562 172.839844 "/>
<path style=" stroke:none;fill-rule:nonzero;fill:rgb(0%,0%,0%);fill-opacity:1;" d="M 291.296875 180.453125 C 291.042969 181.082031 291.167969 182.96875 291.546875 184.730469 C 291.921875 186.429688 292.363281 188.757812 292.613281 189.953125 L 292.992188 192.09375 L 297.328125 191.652344 C 300.847656 191.339844 301.726562 191.464844 301.976562 192.21875 C 302.226562 192.722656 302.730469 193.164062 303.171875 193.164062 C 303.671875 193.164062 304.425781 193.539062 304.867188 193.980469 C 307.253906 196.246094 309.390625 197.0625 312.09375 196.75 C 317.621094 196.121094 321.203125 198.511719 320.136719 201.972656 C 319.949219 202.601562 319.507812 208.328125 319.128906 214.679688 C 318.816406 220.972656 318.375 227.515625 318.1875 229.089844 L 317.8125 232.046875 L 321.519531 232.800781 C 323.527344 233.179688 327.738281 233.746094 330.816406 233.996094 C 333.960938 234.25 337.101562 234.753906 337.855469 235.191406 C 338.609375 235.632812 339.800781 235.949219 340.558594 235.949219 C 341.3125 235.949219 342.753906 236.765625 343.699219 237.835938 C 344.640625 238.84375 345.710938 239.722656 346.085938 239.722656 C 346.398438 239.722656 347.53125 240.164062 348.472656 240.667969 C 349.542969 241.234375 350.988281 241.484375 352.054688 241.234375 C 354.441406 240.730469 356.390625 242.175781 357.773438 245.449219 C 358.402344 246.957031 359.28125 249.035156 359.785156 249.980469 C 360.285156 250.984375 360.664062 252.054688 360.664062 252.371094 C 360.664062 253.691406 365.3125 258.597656 365.941406 257.96875 C 366.757812 257.152344 366.945312 251.488281 366.191406 250.984375 C 365.816406 250.734375 365.5 249.851562 365.5 249.035156 C 365.4375 248.089844 365 247.460938 364.433594 247.523438 C 363.804688 247.589844 363.554688 247.085938 363.617188 246.140625 C 363.742188 245.132812 363.429688 244.757812 362.609375 244.757812 C 361.984375 244.757812 360.410156 243.5 359.03125 241.925781 C 357.710938 240.351562 356.140625 239.09375 355.449219 239.09375 C 354.820312 239.09375 354.503906 238.78125 354.695312 238.464844 C 355.257812 237.519531 356.832031 237.710938 357.898438 238.78125 C 358.464844 239.28125 359.40625 239.722656 360.097656 239.722656 C 360.726562 239.722656 361.292969 239.976562 361.292969 240.351562 C 361.292969 240.667969 361.855469 240.980469 362.546875 240.980469 C 363.238281 240.980469 363.804688 240.667969 363.804688 240.351562 C 363.804688 239.976562 363.238281 239.722656 362.546875 239.722656 C 361.921875 239.722656 361.101562 239.34375 360.851562 238.90625 C 360.347656 238.148438 359.21875 237.394531 355.949219 235.570312 C 351.300781 232.992188 344.453125 226.574219 342.628906 223.113281 C 340.558594 219.210938 342 212.039062 345.019531 211.09375 C 345.644531 210.84375 346.210938 210.339844 346.210938 209.960938 C 346.210938 209.082031 345.019531 208.261719 339.363281 205.304688 C 335.71875 203.417969 334.902344 203.230469 329.8125 203.230469 C 324.34375 203.230469 324.21875 203.167969 324.34375 201.78125 C 324.535156 199.769531 321.894531 195.742188 319.949219 194.988281 C 319.128906 194.671875 317.496094 194.546875 316.367188 194.796875 C 314.859375 195.050781 313.476562 194.734375 311.085938 193.476562 C 309.328125 192.597656 307.632812 191.96875 307.378906 192.15625 C 307.128906 192.28125 305.933594 191.90625 304.742188 191.210938 C 303.546875 190.582031 302.039062 189.890625 301.472656 189.640625 C 300.847656 189.449219 300.34375 189.011719 300.34375 188.695312 C 300.34375 188.382812 298.835938 186.996094 296.949219 185.613281 C 294.625 183.851562 293.496094 182.464844 293.179688 181.207031 C 292.804688 179.070312 291.796875 178.753906 291.296875 180.453125 Z M 291.296875 180.453125 "/>
<path style=" stroke:none;fill-rule:nonzero;fill:rgb(0%,0%,0%);fill-opacity:1;" d="M 268.359375 202.976562 C 265.972656 204.992188 265.910156 206.878906 268.171875 209.019531 C 271 211.785156 272.695312 211.851562 275.210938 209.207031 L 277.410156 206.941406 L 274.457031 204.109375 C 272.824219 202.601562 271.25 201.34375 270.875 201.34375 C 270.558594 201.34375 269.429688 202.097656 268.359375 202.976562 Z M 268.359375 202.976562 "/>
<path style=" stroke:none;fill-rule:nonzero;fill:rgb(0%,0%,0%);fill-opacity:1;" d="M 261.828125 208.136719 C 260.570312 209.523438 260.445312 210.78125 261.574219 210.78125 C 262.328125 210.78125 267.042969 213.925781 268.800781 215.625 C 269.242188 216.066406 270.183594 216.441406 270.875 216.441406 C 273.324219 216.441406 284.195312 224.8125 285.011719 227.265625 C 285.515625 228.964844 287.523438 229.152344 293.683594 228.082031 C 296.761719 227.578125 299.339844 227.140625 299.464844 227.140625 C 299.589844 227.140625 299.714844 226.761719 299.714844 226.320312 C 299.714844 225.816406 299.023438 225.125 298.144531 224.75 C 297.265625 224.371094 296.574219 223.742188 296.574219 223.425781 C 296.574219 223.113281 295.316406 222.230469 293.808594 221.476562 C 292.238281 220.785156 288.53125 217.765625 285.453125 214.871094 C 282.4375 211.914062 279.671875 209.523438 279.417969 209.523438 C 279.167969 209.523438 278.289062 210.152344 277.535156 210.96875 C 276.71875 211.722656 275.335938 212.855469 274.394531 213.484375 C 272.382812 214.808594 272.132812 214.679688 267.042969 209.960938 C 265.28125 208.328125 263.585938 207.003906 263.335938 207.003906 C 263.082031 207.003906 262.390625 207.507812 261.828125 208.136719 Z M 261.828125 208.136719 "/>
<path style=" stroke:none;fill-rule:nonzero;fill:rgb(0%,0%,0%);fill-opacity:1;" d="M 233.113281 211.09375 C 233.113281 211.597656 233.675781 212.289062 234.367188 212.667969 C 235.246094 213.109375 235.625 213.988281 235.625 215.375 C 235.625 217.703125 237.761719 222.734375 238.765625 222.734375 C 239.082031 222.734375 239.394531 223.175781 239.394531 223.679688 C 239.394531 224.183594 238.957031 224.621094 238.453125 224.621094 C 237.132812 224.621094 236.503906 226.511719 237.574219 227.203125 C 238.765625 227.957031 239.144531 227.894531 240.273438 226.761719 C 241.15625 225.945312 241.28125 225.945312 241.28125 226.699219 C 241.28125 227.644531 242.535156 228.398438 243.980469 228.398438 C 244.546875 228.398438 244.671875 226.824219 244.484375 222.988281 C 244.359375 218.582031 243.980469 217.136719 242.851562 215.4375 C 242.035156 214.242188 241.28125 212.980469 241.15625 212.667969 C 240.964844 212.039062 238.957031 211.347656 236.441406 211.15625 C 235.625 211.03125 234.808594 210.78125 234.558594 210.589844 C 233.867188 209.835938 233.113281 210.089844 233.113281 211.09375 Z M 233.113281 211.09375 "/>
<path style=" stroke:none;fill-rule:nonzero;fill:rgb(0%,0%,0%);fill-opacity:1;" d="M 258.433594 287.289062 C 258.246094 287.855469 258.496094 289.113281 259.125 290.058594 C 259.691406 291.066406 259.941406 292.261719 259.753906 292.828125 C 259.5 293.457031 259.816406 293.960938 260.507812 294.273438 C 262.015625 294.777344 265.15625 298.238281 265.15625 299.308594 C 265.15625 299.875 266.160156 300.125 268.613281 300.125 C 271.878906 300.125 272.066406 300.0625 272.066406 298.554688 C 272.066406 297.484375 271.566406 296.726562 270.496094 296.226562 C 269.617188 295.847656 268.925781 295.03125 268.925781 294.398438 C 268.925781 293.769531 268.171875 292.449219 267.292969 291.378906 C 265.972656 289.808594 265.21875 289.429688 263.207031 289.429688 C 261.449219 289.429688 260.757812 289.179688 260.757812 288.484375 C 260.757812 287.605469 261.449219 287.289062 263.144531 287.480469 C 263.523438 287.542969 263.898438 287.289062 263.898438 286.914062 C 263.898438 285.84375 258.875 286.15625 258.433594 287.289062 Z M 258.433594 287.289062 "/>
</g>
</svg>
