<?xml version="1.0" standalone="no"?>
<!DOCTYPE svg PUBLIC "-//W3C//DTD SVG 20010904//EN"
 "http://www.w3.org/TR/2001/REC-SVG-20010904/DTD/svg10.dtd">
<svg version="1.0" xmlns="http://www.w3.org/2000/svg"
 width="600.000000pt" height="477.000000pt" viewBox="0 0 600.000000 477.000000"
 preserveAspectRatio="xMidYMid meet">
<metadata>
Created by potrace 1.16, written by Peter Selinger 2001-2019
</metadata>
<g transform="translate(0.000000,477.000000) scale(0.100000,-0.100000)"
fill="#000000" stroke="none">
<path d="M116 4674 c-3 -9 -6 -38 -6 -65 0 -35 4 -49 14 -49 8 0 42 -28 77
-62 l63 -63 -47 -3 c-45 -3 -47 -4 -47 -34 0 -35 39 -78 71 -78 10 0 19 -7 19
-15 0 -8 7 -15 15 -15 8 0 15 -4 15 -8 0 -5 18 -16 40 -26 22 -10 40 -24 40
-32 0 -13 18 -19 48 -15 6 1 12 -5 12 -14 0 -8 7 -15 15 -15 9 0 18 -7 21 -15
4 -8 17 -15 30 -15 13 0 24 -4 24 -9 0 -17 73 -82 86 -77 7 3 21 -2 30 -12 10
-9 28 -15 41 -14 14 2 25 -3 29 -12 4 -10 18 -16 35 -16 17 0 32 -6 35 -15 5
-11 21 -15 59 -15 59 0 88 -8 79 -21 -3 -5 18 -9 45 -9 36 0 51 -4 51 -14 0
-9 8 -12 26 -8 25 5 26 3 20 -24 -4 -16 -14 -33 -22 -37 -25 -14 -15 -42 31
-82 25 -22 45 -48 45 -58 0 -10 11 -28 25 -41 14 -13 25 -32 25 -43 0 -10 13
-29 30 -41 19 -15 30 -31 30 -47 0 -14 5 -25 10 -25 17 0 50 -39 50 -59 0 -10
11 -27 25 -37 14 -10 25 -27 25 -37 0 -10 20 -38 45 -63 25 -24 45 -50 45 -59
0 -8 18 -32 40 -54 22 -21 40 -46 40 -56 0 -10 20 -35 45 -57 25 -22 45 -46
45 -54 0 -8 7 -14 15 -14 8 0 15 -4 15 -10 0 -5 7 -10 15 -10 9 0 15 -9 15
-25 0 -14 6 -28 14 -31 8 -3 11 -15 8 -30 -2 -13 0 -24 4 -24 22 0 84 -70 84
-94 0 -15 4 -26 10 -26 16 0 76 -66 72 -78 -2 -7 17 -32 42 -57 25 -24 46 -51
46 -60 0 -8 19 -34 43 -56 23 -23 41 -49 39 -58 -1 -9 11 -27 28 -39 21 -16
30 -31 30 -51 0 -16 6 -31 15 -35 9 -3 15 -18 15 -35 0 -16 6 -31 15 -35 8 -3
15 -12 15 -20 0 -7 14 -28 30 -46 17 -18 30 -38 29 -44 -3 -27 2 -36 24 -36
12 -1 33 -14 47 -30 13 -17 30 -30 37 -30 8 0 16 -6 19 -14 3 -8 13 -12 24 -9
13 4 23 -4 34 -25 9 -17 25 -33 36 -37 11 -3 20 -11 20 -16 0 -5 7 -9 15 -9 8
0 53 -38 99 -85 46 -47 91 -85 100 -85 9 0 34 -20 57 -45 23 -25 47 -44 54
-41 6 2 32 -18 58 -44 38 -39 47 -55 47 -83 0 -22 6 -37 15 -41 11 -4 15 -22
15 -76 0 -51 3 -69 13 -67 9 1 13 -26 15 -105 2 -87 6 -108 17 -108 12 0 15
-15 15 -71 0 -66 2 -72 29 -95 37 -31 36 -61 -1 -94 -15 -13 -28 -32 -28 -40
0 -9 -13 -27 -30 -40 -22 -19 -29 -34 -30 -61 0 -23 -6 -39 -15 -43 -36 -13
-3 -75 37 -68 27 5 27 -74 -1 -83 -32 -10 -46 -32 -31 -50 10 -12 8 -23 -10
-57 -26 -51 -60 -89 -71 -82 -15 9 -10 44 6 50 8 4 15 17 15 31 0 23 16 63 30
73 3 3 15 24 27 47 l20 43 -24 0 c-35 0 -63 -18 -63 -40 0 -21 -33 -60 -50
-60 -5 0 -10 -11 -10 -25 0 -14 -7 -28 -15 -31 -8 -4 -15 -16 -15 -29 0 -13
-7 -25 -15 -29 -8 -3 -15 -15 -15 -27 0 -12 -11 -32 -25 -45 -14 -13 -25 -32
-25 -42 0 -11 -7 -22 -15 -26 -10 -3 -15 -19 -15 -46 0 -29 -4 -40 -15 -40
-11 0 -15 -13 -15 -54 0 -39 -4 -55 -15 -60 -10 -4 -15 -20 -15 -51 l0 -45
288 0 289 0 16 93 c21 114 21 131 2 147 -21 17 -19 41 4 47 12 3 17 11 14 22
-2 10 3 23 11 30 9 8 16 25 16 38 0 20 -4 24 -17 20 -10 -4 -38 -11 -63 -17
-25 -7 -59 -16 -76 -21 -17 -5 -48 -9 -68 -9 -33 0 -37 2 -26 15 7 8 19 15 27
15 10 0 11 5 5 16 -14 24 -2 62 21 68 17 4 18 7 8 20 -9 10 -11 25 -5 43 4 16
6 33 5 40 -1 6 8 14 19 18 11 4 32 17 45 29 20 19 24 30 19 53 -7 35 7 49 34
34 14 -7 18 -18 14 -41 -5 -37 12 -60 47 -60 14 0 40 -9 57 -19 24 -15 33 -28
36 -58 4 -24 0 -44 -8 -54 -8 -8 -14 -24 -14 -35 0 -11 -7 -29 -15 -40 -8 -10
-15 -30 -15 -44 0 -14 -9 -39 -19 -57 -15 -24 -18 -38 -11 -60 6 -15 15 -74
21 -130 l11 -103 268 0 269 0 3 27 c2 17 10 29 21 31 13 3 17 -3 17 -27 0 -28
3 -31 30 -31 l30 0 0 93 c0 50 3 116 7 145 6 51 7 53 31 47 13 -3 42 -20 63
-37 35 -28 43 -30 86 -24 27 3 51 13 56 22 7 12 18 14 43 9 39 -7 120 24 130
49 12 32 75 26 96 -9 4 -7 32 -25 63 -39 40 -20 63 -26 85 -21 16 4 45 2 62
-3 18 -5 59 -16 92 -23 32 -7 60 -19 63 -26 3 -7 1 -43 -4 -80 -15 -103 -15
-103 83 -103 52 0 84 4 84 10 0 6 -19 32 -43 58 -48 53 -82 118 -66 127 9 6
129 -63 195 -112 17 -12 45 -26 62 -29 28 -6 32 -4 32 15 0 11 -3 20 -7 20
-32 -5 -35 2 -28 66 7 62 6 65 -14 65 -14 0 -21 6 -21 19 0 27 15 34 31 15 10
-12 24 -15 61 -10 47 7 54 2 49 -28 -1 -5 21 -6 50 -4 44 5 52 3 56 -13 5 -17
16 -19 98 -19 85 0 93 2 98 21 5 18 10 20 53 13 34 -5 45 -4 40 5 -4 6 0 14
10 18 28 10 86 74 80 88 -7 20 -53 48 -66 40 -6 -4 -9 -13 -6 -20 2 -7 -1 -21
-8 -31 -10 -13 -21 -16 -51 -11 -24 4 -47 1 -64 -8 -22 -11 -43 -12 -102 -4
-41 5 -90 11 -110 13 -20 2 -52 11 -70 20 -19 8 -68 27 -109 40 -99 33 -138
48 -180 71 -35 19 -100 45 -175 69 l-39 13 1 159 c3 268 -25 409 -86 429 -42
13 -92 8 -119 -12 -21 -15 -33 -18 -45 -11 -12 6 -36 4 -75 -7 -31 -9 -68 -19
-82 -22 -14 -3 -33 -12 -42 -21 -10 -8 -25 -12 -35 -7 -16 6 -15 8 10 21 15 8
27 18 27 23 0 5 10 12 23 16 17 5 18 8 7 12 -8 3 -19 12 -23 19 -9 16 -57 19
-57 4 0 -18 -42 -10 -74 13 -47 35 -64 39 -76 17 -12 -22 -35 -26 -43 -8 -2 7
4 40 15 73 22 69 44 286 34 339 -12 65 -36 33 -36 -50 0 -22 -6 -60 -14 -85
-24 -76 -46 -185 -46 -227 0 -23 -4 -44 -10 -47 -5 -3 -10 -17 -10 -30 0 -25
-33 -55 -61 -55 -10 0 -30 -13 -46 -28 -33 -34 -56 -32 -47 4 4 13 1 31 -6 39
-16 19 -21 106 -7 124 8 10 8 16 -4 25 -23 17 -44 56 -63 113 -9 28 -23 54
-29 57 -9 5 -9 7 1 12 20 9 15 54 -7 54 -23 0 -43 23 -39 46 2 11 -10 24 -36
37 -41 21 -96 90 -108 135 -10 36 -5 37 30 7 16 -14 37 -25 45 -25 20 0 39
-25 35 -47 -2 -13 4 -19 24 -21 16 -2 30 -11 33 -23 5 -16 12 -18 46 -13 30 5
44 2 59 -11 15 -14 23 -16 32 -7 8 8 7 13 -6 18 -29 11 -47 59 -40 105 8 47
-9 69 -53 69 -14 0 -23 6 -23 16 0 29 -54 114 -72 114 -10 0 -18 5 -18 10 0 6
8 10 18 8 11 -2 18 4 20 20 4 25 -16 29 -47 10 -15 -9 -22 -8 -35 4 -9 9 -21
18 -28 21 -11 4 -11 7 0 18 10 11 16 11 33 1 24 -15 34 -10 26 13 -4 10 -20
15 -48 15 -28 0 -39 4 -37 12 5 14 118 23 127 11 3 -5 21 -19 40 -32 27 -19
37 -21 57 -12 42 19 25 51 -27 51 -11 0 -41 9 -66 21 -40 18 -57 20 -116 14
-69 -6 -70 -6 -99 26 -27 29 -30 38 -26 81 5 45 3 50 -23 69 -34 24 -38 49 -9
56 11 3 20 9 20 14 0 18 -24 59 -35 59 -13 0 -38 64 -39 99 -1 40 -21 34 -37
-11 -20 -54 -39 -61 -39 -15 0 20 5 37 11 39 6 2 9 19 7 38 l-3 35 -23 -44
c-12 -25 -22 -53 -22 -63 0 -30 -38 -96 -65 -114 -14 -9 -25 -25 -25 -35 0
-11 -4 -19 -10 -19 -13 0 -13 37 0 42 6 2 6 15 0 38 -5 19 -11 87 -14 150 -4
97 -7 117 -23 127 -17 12 -18 6 -18 -116 -1 -86 -5 -134 -13 -144 -7 -8 -11
-23 -11 -33 5 -51 -15 -76 -27 -36 -3 9 -14 33 -25 54 -12 22 -22 69 -27 124
-4 55 -12 89 -19 92 -9 2 -13 -8 -13 -30 0 -19 -7 -43 -15 -54 -13 -16 -16
-17 -25 -4 -5 8 -10 38 -10 65 0 52 -41 190 -56 190 -17 0 -26 -176 -14 -265
16 -115 17 -132 4 -137 -7 -2 -21 26 -34 66 -20 60 -22 76 -12 107 11 38 3 66
-28 90 -18 14 -39 103 -40 166 0 52 -6 60 -39 51 -15 -4 -20 -11 -16 -23 6
-20 -9 -35 -25 -25 -6 4 -7 13 -2 22 11 18 -13 73 -31 73 -7 0 -23 23 -37 52
-42 87 -88 90 -74 6 3 -21 2 -38 -3 -38 -5 0 -43 33 -84 73 -41 39 -94 84
-116 100 -28 18 -44 37 -48 58 -4 19 -16 34 -30 39 -13 5 -26 18 -30 30 -4 12
-24 28 -46 36 -47 19 -52 44 -9 44 25 0 30 4 30 23 0 12 -12 34 -28 49 -15 14
-43 43 -62 63 -19 20 -47 42 -61 50 -15 8 -29 21 -32 30 -4 8 -12 15 -20 15
-19 0 -53 40 -60 70 -4 14 -33 53 -66 87 -41 42 -59 68 -54 78 4 11 -1 18 -14
21 -10 3 -24 14 -30 24 -12 19 -12 22 22 127 l17 52 -51 52 c-39 39 -55 49
-63 41 -8 -8 -8 -21 0 -50 7 -22 12 -82 12 -133 l0 -94 -35 -24 c-33 -22 -41
-23 -155 -19 -66 2 -123 8 -127 12 -4 4 0 13 9 20 17 12 17 14 -3 32 -11 10
-28 31 -37 46 -19 32 -27 34 -70 12 -32 -16 -72 -11 -72 8 0 5 6 8 14 5 8 -3
26 3 39 14 14 10 30 19 35 19 6 0 13 9 17 19 3 11 16 22 28 24 18 4 17 5 -5 6
-34 1 -37 23 -6 43 20 13 21 18 11 41 -15 31 -3 43 39 38 34 -3 35 10 8 50
-19 26 -25 28 -64 23 -27 -4 -46 -2 -50 5 -4 6 -15 11 -25 11 -13 0 -26 18
-44 60 -42 97 -131 137 -196 89 -44 -32 -112 -37 -150 -10 -39 28 -39 38 2 72
17 15 30 29 27 31 -3 2 -32 21 -65 43 -33 22 -80 58 -106 80 -48 42 -69 55
-184 116 -38 20 -71 44 -73 53 -5 22 -102 23 -102 1 0 -8 5 -15 10 -15 6 0 10
-9 10 -20 0 -13 -7 -20 -20 -20 -30 0 -70 29 -70 51 0 23 -35 26 -44 3z m4449
-3745 c-4 -16 -11 -27 -15 -24 -5 3 -3 -7 5 -22 8 -15 15 -39 15 -52 0 -24 0
-24 -18 -5 -25 28 -52 72 -52 85 0 7 8 18 18 25 13 10 14 15 5 24 -15 16 -81
-33 -85 -63 -4 -31 -47 -36 -55 -8 -6 24 -33 29 -33 6 0 -8 -7 -15 -16 -15
-25 0 -12 33 18 48 16 7 32 27 39 47 8 22 20 35 31 35 22 0 23 -13 3 -34 -8
-8 -15 -19 -15 -25 0 -19 22 -12 42 14 11 14 24 25 29 25 5 0 20 9 32 20 l21
21 19 -37 c12 -24 16 -45 12 -65z m-125 -81 c0 -6 -11 -21 -25 -34 -31 -29
-34 -49 -4 -34 11 7 29 20 40 31 22 22 49 15 49 -12 0 -11 10 -34 23 -50 l22
-31 -21 -17 c-11 -9 -24 -29 -27 -43 -4 -15 -16 -32 -27 -38 -11 -6 -20 -17
-20 -25 0 -18 -39 -20 -41 -2 -1 6 -2 25 -3 42 -1 39 -36 50 -36 11 0 -32 -18
-33 -54 -5 -31 25 -33 40 -6 57 20 12 28 42 11 42 -5 0 -14 -7 -21 -15 -7 -8
-23 -15 -36 -15 -36 0 -31 34 9 59 18 11 45 35 60 54 23 29 34 35 67 35 22 1
40 -4 40 -10z"/>
<path d="M3720 4535 c0 -10 -11 -15 -35 -15 -29 0 -35 -4 -35 -21 0 -19 -4
-20 -34 -15 -28 5 -34 3 -39 -13 -3 -14 -11 -18 -25 -14 -15 3 -34 -10 -75
-51 -32 -33 -64 -56 -76 -56 -20 0 -25 -8 -22 -40 2 -17 -34 -60 -49 -60 -6 0
-10 -7 -10 -15 0 -9 -7 -18 -16 -22 -12 -4 -14 -14 -10 -35 5 -24 2 -31 -14
-35 -19 -5 -20 -14 -20 -148 0 -129 2 -143 18 -147 15 -4 17 -13 14 -42 -3
-28 -1 -36 12 -36 12 0 16 -9 16 -34 0 -21 6 -36 16 -40 8 -3 12 -11 9 -17 -4
-6 7 -24 24 -41 17 -17 31 -41 31 -54 0 -13 5 -24 10 -24 19 0 50 -40 50 -65
0 -16 6 -25 15 -25 12 0 15 -17 15 -95 0 -72 3 -97 14 -101 10 -4 12 -18 8
-49 -6 -53 4 -95 22 -95 10 0 12 -13 8 -50 -4 -40 -1 -51 12 -56 9 -3 16 -17
16 -30 0 -14 7 -27 15 -30 8 -4 15 -15 15 -26 0 -10 15 -33 33 -50 20 -19 28
-32 20 -35 -7 -3 -13 -11 -13 -18 0 -7 -9 -15 -20 -18 -16 -4 -20 -14 -20 -46
0 -30 -4 -41 -15 -41 -8 0 -15 -9 -15 -20 0 -11 -4 -20 -9 -20 -5 0 -11 -10
-13 -22 -3 -20 -8 -22 -60 -19 -47 2 -58 0 -58 -13 0 -9 -6 -16 -14 -16 -15 0
-26 -21 -26 -50 0 -11 -9 -24 -20 -30 -11 -6 -20 -17 -20 -26 0 -16 47 -114
55 -114 8 0 36 73 47 124 7 34 16 50 29 53 10 3 19 9 19 13 0 5 29 11 64 15
47 5 72 3 97 -8 19 -8 46 -18 61 -21 17 -4 28 -14 30 -28 4 -28 28 -36 28 -9
0 12 -4 21 -8 21 -5 0 -10 19 -10 43 -1 23 -2 51 -3 62 -1 11 1 27 5 36 5 11
1 22 -9 30 -51 42 -95 89 -95 103 0 22 27 20 57 -3 37 -30 126 -53 155 -42 13
6 49 15 80 21 31 6 62 17 68 25 18 22 2 53 -36 67 -18 6 -34 16 -34 21 0 4 14
20 30 34 40 34 38 43 -12 43 -42 0 -120 28 -132 48 -3 5 -17 7 -31 4 -22 -4
-25 -1 -25 26 0 17 7 35 15 39 8 5 24 26 35 48 22 42 12 70 -21 60 -22 -7 -37
14 -18 26 8 5 35 9 61 9 54 0 72 15 28 24 -27 5 -44 36 -20 36 13 0 32 77 25
101 -8 24 -27 34 -111 60 -40 13 -64 25 -61 32 2 7 12 38 21 69 11 37 23 59
35 63 11 3 51 -9 96 -30 73 -33 79 -34 96 -19 10 9 16 21 13 26 -13 21 6 56
35 61 16 4 30 14 33 25 5 18 10 18 119 6 63 -7 120 -13 126 -13 7 -1 16 -13
19 -28 9 -38 23 -53 48 -53 11 0 35 -9 51 -20 28 -18 65 -27 65 -15 0 3 -6 14
-12 25 -9 15 -10 22 -1 31 15 15 33 3 33 -24 1 -27 25 -61 38 -53 6 3 8 14 5
24 -5 20 40 58 56 48 4 -3 6 5 4 18 -4 17 1 25 17 29 19 5 20 8 9 29 -7 12
-23 31 -36 41 -23 18 -53 63 -36 55 4 -2 20 -10 35 -17 14 -8 29 -22 31 -32 3
-11 12 -19 21 -19 15 0 16 17 14 147 l-3 147 -25 6 c-23 6 -24 7 -7 16 12 7
18 19 15 35 -2 19 -13 27 -50 38 -27 8 -48 20 -48 26 0 6 -5 16 -12 23 -9 9
-16 8 -29 -4 -15 -14 -17 -13 -23 11 -5 21 -12 25 -41 25 -25 0 -35 -4 -35
-16 0 -9 -6 -14 -12 -11 -12 4 -28 9 -122 38 -20 6 -34 5 -43 -3 -10 -8 -23
-8 -51 0 -75 23 -114 31 -128 25 -30 -11 -3 -43 37 -43 15 0 32 -7 39 -15 7
-8 21 -15 32 -15 11 0 40 -13 65 -30 24 -16 46 -30 49 -30 18 0 131 -118 147
-152 6 -16 15 -28 18 -28 4 0 10 -26 14 -57 4 -33 20 -83 37 -116 23 -44 28
-61 19 -70 -17 -17 -43 3 -53 41 -9 33 -17 39 -34 22 -7 -7 -21 -1 -43 18 -88
72 -122 97 -151 108 -8 3 -30 12 -48 20 -18 8 -39 14 -48 14 -8 0 -26 8 -40
17 -22 14 -54 17 -200 16 -119 0 -179 -4 -186 -11 -14 -14 -68 -16 -68 -3 0 5
10 12 23 16 21 7 21 7 2 12 -10 3 -21 0 -23 -6 -4 -12 -44 -15 -55 -5 -40 40
175 104 352 104 126 0 209 -22 349 -91 126 -62 147 -57 82 21 -63 75 -139 122
-279 175 -59 22 -286 23 -333 1 -18 -8 -49 -19 -68 -24 -19 -6 -43 -13 -52
-17 -11 -4 -18 -3 -18 4 0 6 7 11 15 11 9 0 18 7 21 15 4 8 11 15 18 15 6 0
23 6 37 14 14 7 42 16 62 20 27 5 37 12 37 25 0 17 8 18 89 13 60 -3 90 -1 95
7 5 7 -2 11 -18 11 -14 0 -27 4 -30 9 -3 4 -26 7 -50 5 -37 -3 -48 1 -60 17
-8 12 -19 18 -26 14 -20 -12 -40 15 -33 46 3 17 0 41 -7 55 -12 21 -11 27 8
47 12 13 22 31 22 40 0 9 9 21 20 27 39 21 24 40 -30 40 -38 0 -50 -4 -50 -15z"/>
<path d="M3933 2612 c-18 -37 -33 -72 -33 -78 0 -10 115 -189 142 -221 24 -29
26 2 3 54 -14 30 -25 74 -25 96 0 33 -6 45 -32 67 -36 30 -35 67 2 55 11 -4
20 -2 20 4 0 6 -4 11 -9 11 -5 0 -12 18 -16 40 -4 22 -10 40 -13 40 -4 0 -22
-30 -39 -68z"/>
<path d="M3580 2388 c-14 -6 -54 -11 -90 -12 -36 0 -64 -5 -64 -9 3 -17 100
-151 134 -186 19 -20 56 -53 82 -74 26 -21 57 -54 68 -72 12 -19 54 -68 95
-109 40 -40 99 -114 131 -162 68 -103 84 -124 99 -124 6 0 29 -17 51 -39 22
-21 57 -46 78 -56 l37 -18 35 34 c19 18 34 40 34 49 0 9 -35 51 -77 94 l-78
78 43 -6 c50 -7 56 8 16 43 l-25 22 21 34 21 34 -21 11 c-18 9 -20 17 -14 43
3 17 18 49 31 70 43 68 40 137 -4 123 -16 -5 -21 -18 -26 -59 -5 -47 -30 -108
-59 -144 -7 -9 -29 1 -82 38 -40 27 -76 49 -79 49 -4 0 -41 25 -83 56 -41 31
-94 64 -117 75 -23 11 -49 24 -57 29 -29 17 -83 40 -96 40 -7 0 -18 9 -25 21
-9 18 -6 26 25 58 51 52 48 90 -4 69z"/>
<path d="M4430 2023 c-49 -16 -63 -22 -130 -53 -111 -53 -115 -58 -75 -84 19
-13 25 -25 25 -54 0 -37 1 -38 30 -34 52 8 57 28 16 66 -43 41 -45 56 -10 56
14 0 65 20 112 44 48 24 97 47 110 51 12 3 20 11 17 16 -8 12 -41 10 -95 -8z"/>
<path d="M4636 1902 c-4 -10 -2 -40 4 -68 6 -27 13 -64 17 -83 l6 -34 69 7
c56 5 70 3 74 -9 4 -8 12 -15 19 -15 8 0 20 -6 27 -13 38 -36 72 -49 115 -44
88 10 145 -28 128 -83 -3 -10 -10 -101 -16 -202 -5 -100 -12 -204 -15 -229
l-6 -47 59 -12 c32 -6 99 -15 148 -19 50 -4 100 -12 112 -19 12 -7 31 -12 43
-12 12 0 35 -13 50 -30 15 -16 32 -30 38 -30 5 0 23 -7 38 -15 17 -9 40 -13
57 -9 38 8 69 -15 91 -67 10 -24 24 -57 32 -72 8 -16 14 -33 14 -38 0 -21 74
-99 84 -89 13 13 16 103 4 111 -6 4 -11 18 -11 31 -1 15 -8 25 -17 24 -10 -1
-14 7 -13 22 2 16 -3 22 -16 22 -10 0 -35 20 -57 45 -21 25 -46 45 -57 45 -10
0 -15 5 -12 10 9 15 34 12 51 -5 9 -8 24 -15 35 -15 10 0 19 -4 19 -10 0 -5 9
-10 20 -10 11 0 20 5 20 10 0 6 -9 10 -20 10 -10 0 -23 6 -27 13 -8 12 -26 24
-78 53 -74 41 -183 143 -212 198 -33 62 -10 176 38 191 10 4 19 12 19 18 0 14
-19 27 -109 74 -58 30 -71 33 -152 33 -87 0 -89 1 -87 23 3 32 -39 96 -70 108
-13 5 -39 7 -57 3 -24 -4 -46 1 -84 21 -28 14 -55 24 -59 21 -4 -2 -23 4 -42
15 -19 10 -43 21 -52 25 -10 3 -18 10 -18 15 0 5 -24 27 -54 49 -37 28 -55 50
-60 70 -6 34 -22 39 -30 12z"/>
<path d="M4271 1544 c-38 -32 -39 -62 -3 -96 45 -44 72 -45 112 -3 l35 36 -47
45 c-26 24 -51 44 -57 44 -5 0 -23 -12 -40 -26z"/>
<path d="M4167 1462 c-20 -22 -22 -42 -4 -42 12 0 87 -50 115 -77 7 -7 22 -13
33 -13 39 0 212 -133 225 -172 8 -27 40 -30 138 -13 49 8 90 15 92 15 2 0 4 6
4 13 0 8 -11 19 -25 25 -14 6 -25 16 -25 21 0 5 -20 19 -44 31 -25 11 -84 59
-133 105 -48 47 -92 85 -96 85 -4 0 -18 -10 -30 -23 -13 -12 -35 -30 -50 -40
-32 -21 -36 -19 -117 56 -28 26 -55 47 -59 47 -4 0 -15 -8 -24 -18z"/>
<path d="M3710 1415 c0 -8 9 -19 20 -25 14 -7 20 -21 20 -43 0 -37 34 -117 50
-117 5 0 10 -7 10 -15 0 -8 -7 -15 -15 -15 -21 0 -31 -30 -14 -41 19 -12 25
-11 43 7 14 13 16 13 16 1 0 -15 20 -27 43 -27 9 0 11 25 8 86 -2 70 -8 93
-26 120 -13 19 -25 39 -27 44 -3 10 -35 21 -75 24 -13 2 -26 6 -30 9 -11 12
-23 8 -23 -8z"/>
<path d="M4113 204 c-3 -9 1 -29 11 -44 9 -16 13 -35 10 -44 -4 -10 1 -18 12
-23 24 -8 74 -63 74 -80 0 -9 16 -13 55 -13 52 0 55 1 55 25 0 17 -8 29 -25
37 -14 6 -25 19 -25 29 0 10 -12 31 -26 48 -21 25 -33 31 -65 31 -28 0 -39 4
-39 15 0 14 11 19 38 16 6 -1 12 3 12 9 0 17 -80 12 -87 -6z"/>
</g>
</svg>
