<?xml version="1.0" encoding="UTF-8"?>
<svg xmlns="http://www.w3.org/2000/svg" xmlns:xlink="http://www.w3.org/1999/xlink" width="300px" height="300px" viewBox="0 0 300 300" version="1.1">
<g id="surface1">
<path style=" stroke:none;fill-rule:nonzero;fill:rgb(0%,0%,0%);fill-opacity:1;" d="M 5.800781 6.039062 C 5.648438 6.605469 5.5 8.429688 5.5 10.128906 C 5.5 12.332031 5.699219 13.214844 6.199219 13.214844 C 6.601562 13.214844 8.300781 14.976562 10.050781 17.113281 L 13.199219 21.078125 L 10.851562 21.265625 C 8.601562 21.457031 8.5 21.519531 8.5 23.40625 C 8.5 25.609375 10.449219 28.3125 12.050781 28.3125 C 12.550781 28.3125 13 28.753906 13 29.257812 C 13 29.761719 13.351562 30.203125 13.75 30.203125 C 14.148438 30.203125 14.5 30.453125 14.5 30.703125 C 14.5 31.019531 15.398438 31.710938 16.5 32.339844 C 17.601562 32.96875 18.5 33.851562 18.5 34.355469 C 18.5 35.171875 19.398438 35.550781 20.898438 35.296875 C 21.199219 35.234375 21.5 35.613281 21.5 36.179688 C 21.5 36.683594 21.851562 37.121094 22.25 37.121094 C 22.699219 37.121094 23.148438 37.5625 23.300781 38.066406 C 23.5 38.570312 24.148438 39.011719 24.800781 39.011719 C 25.449219 39.011719 26 39.261719 26 39.578125 C 26 40.644531 29.648438 44.734375 30.300781 44.421875 C 30.648438 44.230469 31.351562 44.546875 31.800781 45.175781 C 32.300781 45.742188 33.199219 46.121094 33.851562 46.058594 C 34.550781 45.929688 35.101562 46.246094 35.300781 46.8125 C 35.5 47.441406 36.199219 47.820312 37.050781 47.820312 C 37.898438 47.820312 38.648438 48.195312 38.800781 48.761719 C 39.050781 49.453125 39.851562 49.707031 41.75 49.707031 C 44.699219 49.707031 46.148438 50.210938 45.699219 51.027344 C 45.550781 51.34375 46.601562 51.59375 47.949219 51.59375 C 49.75 51.59375 50.5 51.84375 50.5 52.476562 C 50.5 53.042969 50.898438 53.230469 51.800781 52.976562 C 53.050781 52.664062 53.101562 52.789062 52.800781 54.488281 C 52.601562 55.496094 52.101562 56.566406 51.699219 56.816406 C 50.449219 57.695312 50.949219 59.457031 53.25 61.976562 C 54.5 63.359375 55.5 64.996094 55.5 65.625 C 55.5 66.253906 56.050781 67.386719 56.75 68.203125 C 57.449219 69.023438 58 70.21875 58 70.910156 C 58 71.539062 58.648438 72.734375 59.5 73.488281 C 60.449219 74.433594 61 75.441406 61 76.445312 C 61 77.328125 61.25 78.019531 61.5 78.019531 C 62.351562 78.019531 64 80.472656 64 81.730469 C 64 82.363281 64.550781 83.429688 65.25 84.058594 C 65.949219 84.691406 66.5 85.757812 66.5 86.386719 C 66.5 87.019531 67.5 88.78125 68.75 90.351562 C 70 91.863281 71 93.5 71 94.066406 C 71 94.566406 71.898438 96.078125 73 97.460938 C 74.101562 98.785156 75 100.355469 75 100.984375 C 75 101.613281 76 103.1875 77.25 104.570312 C 78.5 105.957031 79.5 107.464844 79.5 107.96875 C 79.5 108.472656 79.851562 108.851562 80.25 108.851562 C 80.648438 108.851562 81 109.101562 81 109.480469 C 81 109.792969 81.351562 110.109375 81.75 110.109375 C 82.199219 110.109375 82.5 110.675781 82.5 111.683594 C 82.5 112.5625 82.800781 113.445312 83.199219 113.632812 C 83.601562 113.820312 83.75 114.578125 83.601562 115.519531 C 83.5 116.339844 83.601562 117.03125 83.800781 117.03125 C 84.898438 117.03125 88 121.433594 88 122.945312 C 88 123.886719 88.199219 124.582031 88.5 124.582031 C 89.300781 124.582031 92.300781 128.734375 92.101562 129.488281 C 92 129.929688 92.949219 131.5 94.199219 133.074219 C 95.449219 134.585938 96.5 136.285156 96.5 136.851562 C 96.5 137.351562 97.449219 138.988281 98.648438 140.375 C 99.800781 141.820312 100.699219 143.457031 100.601562 144.023438 C 100.550781 144.589844 101.148438 145.722656 102 146.476562 C 103.050781 147.484375 103.5 148.425781 103.5 149.683594 C 103.5 150.691406 103.800781 151.636719 104.25 151.886719 C 104.699219 152.078125 105 153.019531 105 154.089844 C 105 155.097656 105.300781 156.039062 105.75 156.292969 C 106.148438 156.480469 106.5 157.046875 106.5 157.550781 C 106.5 157.992188 107.199219 159.3125 108 160.445312 C 108.851562 161.578125 109.5 162.835938 109.449219 163.214844 C 109.300781 164.910156 109.550781 165.476562 110.648438 165.476562 C 111.25 165.542969 112.300781 166.359375 113 167.367188 C 113.648438 168.433594 114.5 169.253906 114.851562 169.253906 C 115.25 169.253906 115.648438 169.632812 115.800781 170.132812 C 115.949219 170.636719 116.449219 170.890625 117 170.699219 C 117.648438 170.449219 118.148438 170.953125 118.699219 172.273438 C 119.148438 173.34375 119.949219 174.351562 120.5 174.601562 C 121.050781 174.789062 121.5 175.292969 121.5 175.609375 C 121.5 175.921875 121.851562 176.175781 122.25 176.175781 C 122.648438 176.175781 124.898438 178.566406 127.199219 181.523438 C 129.5 184.480469 131.75 186.871094 132.199219 186.871094 C 132.648438 186.871094 133.898438 188.128906 135.050781 189.703125 C 136.199219 191.273438 137.398438 192.46875 137.75 192.28125 C 138.050781 192.15625 139.351562 193.414062 140.648438 195.050781 C 142.550781 197.503906 143 198.511719 143 200.273438 C 143 201.65625 143.300781 202.601562 143.75 202.851562 C 144.300781 203.105469 144.5 204.238281 144.5 207.632812 C 144.5 210.84375 144.648438 211.976562 145.148438 211.851562 C 145.601562 211.785156 145.800781 213.484375 145.898438 218.457031 C 146 223.929688 146.199219 225.25 146.75 225.25 C 147.351562 225.25 147.5 226.195312 147.5 229.71875 C 147.5 233.871094 147.601562 234.25 148.949219 235.695312 C 150.800781 237.648438 150.75 239.535156 148.898438 241.609375 C 148.148438 242.429688 147.5 243.625 147.5 244.128906 C 147.5 244.695312 146.851562 245.828125 146 246.644531 C 144.898438 247.839844 144.550781 248.785156 144.5 250.480469 C 144.5 251.929688 144.199219 252.9375 143.75 253.1875 C 141.949219 254.007812 143.601562 257.90625 145.601562 257.464844 C 146.949219 257.152344 146.949219 262.121094 145.550781 262.6875 C 143.949219 263.316406 143.25 264.703125 144 265.835938 C 144.5 266.589844 144.398438 267.28125 143.5 269.421875 C 142.199219 272.628906 140.5 275.019531 139.949219 274.582031 C 139.199219 274.015625 139.449219 271.8125 140.25 271.433594 C 140.648438 271.183594 141 270.363281 141 269.484375 C 141 268.035156 141.800781 265.519531 142.5 264.890625 C 142.648438 264.703125 143.25 263.382812 143.851562 261.933594 L 144.851562 259.226562 L 143.648438 259.226562 C 141.898438 259.226562 140.5 260.359375 140.5 261.746094 C 140.5 263.066406 138.851562 265.519531 138 265.519531 C 137.75 265.519531 137.5 266.210938 137.5 267.09375 C 137.5 267.972656 137.148438 268.855469 136.75 269.042969 C 136.351562 269.296875 136 270.050781 136 270.867188 C 136 271.6875 135.648438 272.441406 135.25 272.691406 C 134.851562 272.882812 134.5 273.636719 134.5 274.390625 C 134.5 275.148438 133.949219 276.40625 133.25 277.222656 C 132.550781 278.042969 132 279.238281 132 279.867188 C 132 280.558594 131.648438 281.25 131.25 281.5 C 130.75 281.691406 130.5 282.695312 130.5 284.394531 C 130.5 286.21875 130.300781 286.914062 129.75 286.914062 C 129.199219 286.914062 129 287.730469 129 290.308594 C 129 292.765625 128.800781 293.769531 128.25 294.085938 C 127.75 294.335938 127.5 295.34375 127.5 297.292969 L 127.5 300.125 L 156.351562 300.125 L 157.148438 294.273438 C 158.199219 287.101562 158.199219 286.03125 157.25 285.023438 C 156.199219 283.957031 156.300781 282.445312 157.449219 282.066406 C 158.050781 281.878906 158.300781 281.375 158.148438 280.683594 C 158.050781 280.054688 158.300781 279.238281 158.699219 278.796875 C 159.148438 278.292969 159.5 277.222656 159.5 276.40625 C 159.5 275.148438 159.300781 274.894531 158.648438 275.148438 C 158.148438 275.398438 156.75 275.839844 155.5 276.214844 C 154.25 276.65625 152.550781 277.222656 151.699219 277.539062 C 150.851562 277.851562 149.300781 278.105469 148.300781 278.105469 C 146.648438 278.105469 146.449219 277.976562 147 277.160156 C 147.351562 276.65625 147.949219 276.214844 148.351562 276.214844 C 148.851562 276.214844 148.898438 275.902344 148.601562 275.210938 C 147.898438 273.699219 148.5 271.308594 149.648438 270.929688 C 150.5 270.679688 150.550781 270.492188 150.050781 269.671875 C 149.601562 269.042969 149.5 268.101562 149.800781 266.96875 C 150 265.960938 150.101562 264.890625 150.050781 264.449219 C 150 264.074219 150.449219 263.570312 151 263.316406 C 151.550781 263.066406 152.601562 262.25 153.25 261.492188 C 154.25 260.296875 154.449219 259.605469 154.199219 258.160156 C 153.851562 255.957031 154.550781 255.074219 155.898438 256.019531 C 156.601562 256.460938 156.800781 257.152344 156.601562 258.597656 C 156.351562 260.925781 157.199219 262.375 158.949219 262.375 C 159.648438 262.375 160.949219 262.941406 161.800781 263.570312 C 163 264.511719 163.449219 265.332031 163.601562 267.21875 C 163.800781 268.730469 163.601562 269.988281 163.199219 270.617188 C 162.800781 271.121094 162.5 272.125 162.5 272.820312 C 162.5 273.511719 162.148438 274.644531 161.75 275.335938 C 161.351562 275.964844 161 277.222656 161 278.105469 C 161 278.984375 160.550781 280.558594 160.050781 281.691406 C 159.300781 283.199219 159.148438 284.082031 159.5 285.464844 C 159.800781 286.410156 160.25 290.121094 160.550781 293.644531 L 161.101562 300.125 L 187.949219 300.125 L 188.101562 298.425781 C 188.199219 297.355469 188.601562 296.601562 189.148438 296.476562 C 189.800781 296.289062 190 296.664062 190 298.175781 C 190 299.9375 190.148438 300.125 191.5 300.125 L 193 300.125 L 193 294.273438 C 193 291.128906 193.148438 286.976562 193.351562 285.152344 C 193.648438 281.941406 193.699219 281.816406 194.898438 282.195312 C 195.550781 282.382812 197 283.453125 198.050781 284.523438 C 199.800781 286.285156 200.199219 286.410156 202.351562 286.03125 C 203.699219 285.84375 204.898438 285.214844 205.148438 284.648438 C 205.5 283.894531 206.050781 283.765625 207.300781 284.082031 C 209.25 284.523438 213.300781 282.570312 213.800781 281 C 214.398438 278.984375 217.550781 279.363281 218.601562 281.566406 C 218.800781 282.003906 220.199219 283.136719 221.75 284.019531 C 223.75 285.277344 224.898438 285.65625 226 285.339844 C 226.800781 285.089844 228.25 285.214844 229.101562 285.527344 C 230 285.84375 232.050781 286.535156 233.699219 286.976562 C 235.300781 287.417969 236.699219 288.171875 236.851562 288.613281 C 237 289.050781 236.898438 291.316406 236.648438 293.644531 C 235.898438 300.125 235.898438 300.125 240.800781 300.125 C 243.398438 300.125 245 299.875 245 299.496094 C 245 299.117188 244.050781 297.484375 242.851562 295.847656 C 240.449219 292.511719 238.75 288.421875 239.550781 287.855469 C 240 287.480469 246 291.820312 249.300781 294.902344 C 250.148438 295.660156 251.550781 296.539062 252.398438 296.726562 C 253.800781 297.105469 254 296.980469 254 295.785156 C 254 295.09375 253.851562 294.527344 253.648438 294.527344 C 252.050781 294.839844 251.898438 294.398438 252.25 290.375 C 252.601562 286.472656 252.550781 286.285156 251.550781 286.285156 C 250.851562 286.285156 250.5 285.90625 250.5 285.089844 C 250.5 283.390625 251.25 282.949219 252.050781 284.144531 C 252.550781 284.898438 253.25 285.089844 255.101562 284.773438 C 257.449219 284.332031 257.800781 284.648438 257.550781 286.535156 C 257.5 286.851562 258.601562 286.914062 260.050781 286.785156 C 262.25 286.472656 262.648438 286.597656 262.851562 287.605469 C 263.101562 288.675781 263.648438 288.800781 267.75 288.800781 C 272 288.800781 272.398438 288.675781 272.648438 287.480469 C 272.898438 286.347656 273.148438 286.21875 275.300781 286.660156 C 277 286.976562 277.550781 286.914062 277.300781 286.347656 C 277.101562 285.96875 277.300781 285.464844 277.800781 285.214844 C 279.199219 284.585938 282.101562 280.558594 281.800781 279.675781 C 281.449219 278.417969 279.148438 276.65625 278.5 277.160156 C 278.199219 277.410156 278.050781 277.976562 278.199219 278.417969 C 278.300781 278.859375 278.148438 279.738281 277.800781 280.367188 C 277.300781 281.1875 276.75 281.375 275.25 281.0625 C 274.050781 280.808594 272.898438 281 272.050781 281.566406 C 270.949219 282.257812 269.898438 282.320312 266.949219 281.816406 C 264.898438 281.5 262.449219 281.125 261.449219 281 C 260.449219 280.871094 258.851562 280.304688 257.949219 279.738281 C 257 279.238281 254.550781 278.042969 252.5 277.222656 C 247.550781 275.148438 245.601562 274.203125 243.5 272.757812 C 241.75 271.558594 238.5 269.925781 234.75 268.414062 L 232.800781 267.597656 L 232.851562 257.59375 C 233 240.730469 231.601562 231.859375 228.550781 230.601562 C 226.449219 229.78125 223.949219 230.097656 222.601562 231.355469 C 221.550781 232.296875 220.949219 232.488281 220.351562 232.046875 C 219.75 231.667969 218.550781 231.796875 216.601562 232.488281 C 215.050781 233.054688 213.199219 233.683594 212.5 233.871094 C 211.800781 234.058594 210.851562 234.625 210.398438 235.191406 C 209.898438 235.695312 209.148438 235.949219 208.648438 235.632812 C 207.851562 235.257812 207.898438 235.128906 209.148438 234.3125 C 209.898438 233.808594 210.5 233.179688 210.5 232.863281 C 210.5 232.550781 211 232.109375 211.648438 231.859375 C 212.5 231.542969 212.550781 231.355469 212 231.101562 C 211.601562 230.914062 211.050781 230.347656 210.851562 229.90625 C 210.398438 228.902344 208 228.710938 208 229.65625 C 208 230.789062 205.898438 230.285156 204.300781 228.839844 C 201.949219 226.636719 201.101562 226.382812 200.5 227.769531 C 199.898438 229.152344 198.75 229.40625 198.351562 228.273438 C 198.25 227.832031 198.550781 225.753906 199.101562 223.679688 C 200.199219 219.335938 201.300781 205.683594 200.800781 202.347656 C 200.199219 198.257812 199 200.273438 199 205.496094 C 199 206.878906 198.699219 209.269531 198.300781 210.84375 C 197.101562 215.625 196 222.484375 196 225.125 C 196 226.574219 195.800781 227.894531 195.5 228.082031 C 195.25 228.273438 195 229.152344 195 229.96875 C 195 231.542969 193.351562 233.429688 191.949219 233.429688 C 191.449219 233.429688 190.449219 234.25 189.648438 235.191406 C 188 237.332031 186.851562 237.207031 187.300781 234.941406 C 187.5 234.125 187.351562 232.992188 187 232.488281 C 186.199219 231.292969 185.949219 225.816406 186.648438 224.683594 C 187.050781 224.054688 187.050781 223.679688 186.449219 223.113281 C 185.300781 222.042969 184.25 219.589844 183.300781 216.003906 C 182.851562 214.242188 182.148438 212.605469 181.851562 212.417969 C 181.398438 212.101562 181.398438 211.976562 181.898438 211.660156 C 182.898438 211.09375 182.648438 208.261719 181.550781 208.261719 C 180.398438 208.261719 179.398438 206.816406 179.601562 205.367188 C 179.699219 204.675781 179.101562 203.859375 177.800781 203.042969 C 175.75 201.71875 173 197.378906 172.398438 194.546875 C 171.898438 192.28125 172.148438 192.21875 173.898438 194.105469 C 174.699219 194.988281 175.75 195.679688 176.148438 195.679688 C 177.148438 195.679688 178.101562 197.253906 177.898438 198.636719 C 177.800781 199.453125 178.101562 199.832031 179.101562 199.957031 C 179.898438 200.082031 180.601562 200.648438 180.75 201.40625 C 181 202.410156 181.351562 202.539062 183.050781 202.222656 C 184.550781 201.910156 185.25 202.097656 186 202.914062 C 186.75 203.796875 187.148438 203.921875 187.601562 203.355469 C 188 202.851562 187.949219 202.539062 187.300781 202.222656 C 185.851562 201.53125 184.949219 198.511719 185.300781 195.617188 C 185.699219 192.660156 184.851562 191.273438 182.648438 191.273438 C 181.949219 191.273438 181.5 190.898438 181.5 190.269531 C 181.5 188.445312 178.800781 183.09375 177.898438 183.09375 C 177.398438 183.09375 177 182.78125 177 182.464844 C 177 182.089844 177.398438 181.835938 177.898438 181.964844 C 178.449219 182.089844 178.800781 181.710938 178.898438 180.703125 C 179.101562 179.132812 178.101562 178.878906 176.550781 180.074219 C 175.800781 180.640625 175.449219 180.578125 174.800781 179.824219 C 174.351562 179.257812 173.75 178.691406 173.398438 178.503906 C 172.851562 178.25 172.851562 178.0625 173.398438 177.371094 C 173.898438 176.679688 174.199219 176.679688 175.050781 177.308594 C 176.25 178.25 176.75 177.9375 176.351562 176.488281 C 176.148438 175.859375 175.351562 175.546875 173.949219 175.546875 C 172.550781 175.546875 172 175.292969 172.101562 174.789062 C 172.351562 173.910156 178 173.34375 178.449219 174.097656 C 178.601562 174.414062 179.5 175.292969 180.449219 176.113281 C 181.800781 177.308594 182.300781 177.433594 183.300781 176.867188 C 185.398438 175.671875 184.550781 173.65625 181.949219 173.65625 C 181.398438 173.65625 179.898438 173.089844 178.648438 172.335938 C 176.648438 171.203125 175.800781 171.078125 172.851562 171.457031 C 169.398438 171.832031 169.351562 171.832031 167.898438 169.820312 C 166.550781 167.996094 166.398438 167.429688 166.601562 164.722656 C 166.851562 161.890625 166.75 161.578125 165.449219 160.382812 C 163.75 158.871094 163.550781 157.296875 165 156.859375 C 165.550781 156.667969 166 156.292969 166 155.976562 C 166 154.84375 164.800781 152.265625 164.25 152.265625 C 163.601562 152.265625 162.351562 148.238281 162.300781 146.035156 C 162.25 143.519531 161.25 143.898438 160.449219 146.726562 C 159.449219 150.125 158.5 150.566406 158.5 147.671875 C 158.5 146.414062 158.75 145.34375 159.050781 145.21875 C 159.351562 145.09375 159.5 144.023438 159.398438 142.828125 L 159.25 140.625 L 158.101562 143.394531 C 157.5 144.964844 157 146.726562 157 147.355469 C 157 149.246094 155.101562 153.398438 153.75 154.53125 C 153.050781 155.097656 152.5 156.101562 152.5 156.730469 C 152.5 157.425781 152.300781 157.929688 152 157.929688 C 151.351562 157.929688 151.351562 155.601562 152 155.285156 C 152.300781 155.160156 152.300781 154.339844 152 152.894531 C 151.75 151.699219 151.449219 147.421875 151.300781 143.457031 C 151.101562 137.351562 150.949219 136.09375 150.148438 135.464844 C 149.300781 134.710938 149.25 135.089844 149.25 142.765625 C 149.199219 148.175781 149 151.195312 148.601562 151.824219 C 148.25 152.328125 148.050781 153.273438 148.050781 153.902344 C 148.300781 157.109375 147.300781 158.683594 146.699219 156.167969 C 146.550781 155.601562 146 154.089844 145.449219 152.769531 C 144.851562 151.382812 144.351562 148.425781 144.101562 144.964844 C 143.898438 141.507812 143.5 139.367188 143.148438 139.179688 C 142.699219 139.050781 142.5 139.679688 142.5 141.066406 C 142.5 142.261719 142.148438 143.769531 141.75 144.464844 C 141.101562 145.46875 140.949219 145.53125 140.5 144.714844 C 140.25 144.210938 140 142.324219 140 140.625 C 140 137.351562 137.949219 128.671875 137.199219 128.671875 C 136.351562 128.671875 135.898438 139.742188 136.5 145.34375 C 137.300781 152.578125 137.351562 153.648438 136.699219 153.964844 C 136.351562 154.089844 135.648438 152.328125 135 149.8125 C 134 146.035156 133.898438 145.03125 134.398438 143.078125 C 134.949219 140.6875 134.550781 138.925781 133 137.417969 C 132.101562 136.535156 131.050781 130.933594 131 126.972656 C 131 123.699219 130.699219 123.195312 129.050781 123.761719 C 128.300781 124.015625 128.050781 124.453125 128.25 125.210938 C 128.550781 126.46875 127.800781 127.410156 127 126.78125 C 126.699219 126.53125 126.648438 125.964844 126.898438 125.398438 C 127.449219 124.265625 126.25 120.804688 125.351562 120.804688 C 125 120.804688 124.199219 119.359375 123.5 117.535156 C 121.398438 112.058594 119.101562 111.871094 119.800781 117.15625 C 119.949219 118.476562 119.898438 119.546875 119.648438 119.546875 C 119.398438 119.546875 117.5 117.46875 115.449219 114.953125 C 113.398438 112.5 110.75 109.667969 109.648438 108.660156 C 108.25 107.53125 107.449219 106.332031 107.25 105.011719 C 107.050781 103.816406 106.449219 102.875 105.75 102.558594 C 105.101562 102.242188 104.449219 101.425781 104.25 100.671875 C 104.050781 99.917969 103.050781 98.910156 101.949219 98.40625 C 99.601562 97.210938 99.351562 95.636719 101.5 95.636719 C 102.75 95.636719 103 95.386719 103 94.191406 C 103 93.433594 102.398438 92.050781 101.601562 91.105469 C 100.851562 90.226562 99.449219 88.402344 98.5 87.144531 C 97.550781 85.886719 96.148438 84.5 95.449219 83.996094 C 94.699219 83.492188 94 82.675781 93.851562 82.109375 C 93.648438 81.605469 93.25 81.167969 92.851562 81.167969 C 91.898438 81.167969 90.199219 78.648438 89.851562 76.761719 C 89.648438 75.882812 88.199219 73.425781 86.550781 71.289062 C 84.5 68.644531 83.601562 67.007812 83.851562 66.378906 C 84.050781 65.6875 83.800781 65.246094 83.148438 65.058594 C 82.648438 64.871094 81.949219 64.179688 81.648438 63.546875 C 81.050781 62.351562 81.050781 62.164062 82.75 55.558594 L 83.601562 52.285156 L 81.050781 49.015625 C 79.101562 46.558594 78.300781 45.929688 77.898438 46.433594 C 77.5 46.9375 77.5 47.757812 77.898438 49.582031 C 78.25 50.964844 78.5 54.738281 78.5 57.949219 L 78.5 63.863281 L 76.75 65.375 C 75.101562 66.757812 74.699219 66.820312 69 66.570312 C 65.699219 66.441406 62.851562 66.066406 62.648438 65.8125 C 62.449219 65.5625 62.648438 64.996094 63.101562 64.554688 C 63.949219 63.800781 63.949219 63.675781 62.949219 62.542969 C 62.398438 61.914062 61.550781 60.589844 61.101562 59.648438 C 60.148438 57.632812 59.75 57.507812 57.601562 58.894531 C 56 59.898438 54 59.585938 54 58.390625 C 54 58.074219 54.300781 57.886719 54.699219 58.074219 C 55.101562 58.261719 56 57.886719 56.648438 57.195312 C 57.351562 56.566406 58.148438 56 58.398438 56 C 58.699219 56 59.050781 55.433594 59.25 54.804688 C 59.398438 54.109375 60.050781 53.417969 60.648438 53.292969 C 61.550781 53.042969 61.5 52.976562 60.398438 52.914062 C 58.699219 52.851562 58.550781 51.46875 60.101562 50.210938 C 61.101562 49.390625 61.148438 49.078125 60.648438 47.628906 C 59.898438 45.679688 60.5 44.925781 62.601562 45.238281 C 64.300781 45.429688 64.351562 44.609375 63 42.09375 C 62.050781 40.457031 61.75 40.332031 59.800781 40.644531 C 58.449219 40.898438 57.5 40.773438 57.300781 40.332031 C 57.101562 39.953125 56.550781 39.640625 56.050781 39.640625 C 55.398438 39.640625 54.75 38.507812 53.851562 35.863281 C 51.75 29.761719 47.300781 27.242188 44.050781 30.265625 C 41.851562 32.277344 38.449219 32.59375 36.550781 30.894531 C 34.601562 29.132812 34.601562 28.503906 36.648438 26.363281 C 37.5 25.417969 38.148438 24.539062 38 24.414062 C 37.851562 24.285156 36.398438 23.089844 34.75 21.707031 C 33.101562 20.324219 30.75 18.058594 29.449219 16.671875 C 27.050781 14.03125 26 13.214844 20.25 9.375 C 18.351562 8.117188 16.699219 6.605469 16.601562 6.039062 C 16.351562 4.65625 11.5 4.59375 11.5 5.976562 C 11.5 6.480469 11.75 6.921875 12 6.921875 C 12.300781 6.921875 12.5 7.488281 12.5 8.179688 C 12.5 8.996094 12.148438 9.4375 11.5 9.4375 C 10 9.4375 8 7.613281 8 6.230469 C 8 4.78125 6.25 4.59375 5.800781 6.039062 Z M 228.25 241.671875 C 228.050781 242.679688 227.699219 243.371094 227.5 243.183594 C 227.25 242.996094 227.351562 243.625 227.75 244.566406 C 228.148438 245.511719 228.5 247.023438 228.5 247.839844 C 228.5 249.351562 228.5 249.351562 227.601562 248.15625 C 226.351562 246.394531 225 243.625 225 242.804688 C 225 242.367188 225.398438 241.671875 225.898438 241.234375 C 226.550781 240.605469 226.601562 240.289062 226.148438 239.722656 C 225.398438 238.714844 222.101562 241.800781 221.898438 243.6875 C 221.699219 245.636719 219.550781 245.953125 219.148438 244.191406 C 218.851562 242.679688 217.5 242.367188 217.5 243.8125 C 217.5 244.316406 217.148438 244.757812 216.699219 244.757812 C 215.449219 244.757812 216.101562 242.679688 217.601562 241.738281 C 218.398438 241.296875 219.199219 240.039062 219.550781 238.78125 C 219.949219 237.394531 220.550781 236.578125 221.101562 236.578125 C 222.199219 236.578125 222.25 237.394531 221.25 238.714844 C 220.851562 239.21875 220.5 239.910156 220.5 240.289062 C 220.5 241.484375 221.601562 241.042969 222.601562 239.410156 C 223.148438 238.527344 223.800781 237.835938 224.050781 237.835938 C 224.300781 237.835938 225.050781 237.269531 225.648438 236.578125 L 226.699219 235.257812 L 227.648438 237.582031 C 228.25 239.09375 228.449219 240.414062 228.25 241.671875 Z M 222 246.769531 C 222 247.148438 221.449219 248.089844 220.75 248.910156 C 219.199219 250.734375 219.050781 251.992188 220.550781 251.046875 C 221.101562 250.609375 222 249.789062 222.550781 249.097656 C 223.648438 247.714844 225 248.15625 225 249.851562 C 225 250.546875 225.5 251.992188 226.148438 253 L 227.25 254.949219 L 226.199219 256.019531 C 225.648438 256.585938 225 257.84375 224.851562 258.726562 C 224.648438 259.667969 224.050781 260.738281 223.5 261.117188 C 222.949219 261.492188 222.5 262.183594 222.5 262.6875 C 222.5 263.820312 220.550781 263.945312 220.449219 262.816406 C 220.398438 262.4375 220.351562 261.242188 220.300781 260.171875 C 220.25 257.71875 218.5 257.027344 218.5 259.480469 C 218.5 261.492188 217.601562 261.554688 215.800781 259.792969 C 214.25 258.222656 214.148438 257.277344 215.5 256.207031 C 216.5 255.453125 216.898438 253.566406 216.050781 253.566406 C 215.800781 253.566406 215.351562 254.007812 215 254.507812 C 214.648438 255.011719 213.851562 255.453125 213.199219 255.453125 C 211.398438 255.453125 211.648438 253.3125 213.648438 251.742188 C 214.550781 251.046875 215.898438 249.539062 216.648438 248.34375 C 217.800781 246.519531 218.351562 246.140625 220 246.140625 C 221.101562 246.078125 222 246.394531 222 246.769531 Z M 222 246.769531 "/>
<path style=" stroke:none;fill-rule:nonzero;fill:rgb(0%,0%,0%);fill-opacity:1;" d="M 186 14.785156 C 186 15.414062 185.449219 15.730469 184.25 15.730469 C 182.800781 15.730469 182.5 15.980469 182.5 17.050781 C 182.5 18.246094 182.300781 18.308594 180.800781 17.996094 C 179.398438 17.679688 179.101562 17.804688 178.851562 18.8125 C 178.699219 19.695312 178.300781 19.945312 177.601562 19.695312 C 176.851562 19.503906 175.898438 20.324219 173.851562 22.902344 C 172.25 24.980469 170.648438 26.425781 170.050781 26.425781 C 169.050781 26.425781 168.800781 26.929688 168.949219 28.941406 C 169.050781 30.011719 167.25 32.71875 166.5 32.71875 C 166.199219 32.71875 166 33.160156 166 33.660156 C 166 34.226562 165.648438 34.792969 165.199219 35.046875 C 164.601562 35.296875 164.5 35.925781 164.699219 37.25 C 164.949219 38.757812 164.800781 39.199219 164 39.449219 C 163.050781 39.765625 163 40.332031 163 48.761719 C 163 56.878906 163.101562 57.761719 163.898438 58.011719 C 164.648438 58.261719 164.75 58.828125 164.601562 60.65625 C 164.449219 62.417969 164.550781 62.917969 165.199219 62.917969 C 165.800781 62.917969 166 63.484375 166 65.058594 C 166 66.378906 166.300781 67.324219 166.800781 67.574219 C 167.199219 67.765625 167.398438 68.269531 167.25 68.644531 C 167.050781 69.023438 167.601562 70.15625 168.449219 71.226562 C 169.300781 72.292969 170 73.804688 170 74.621094 C 170 75.441406 170.25 76.132812 170.5 76.132812 C 171.449219 76.132812 173 78.648438 173 80.222656 C 173 81.230469 173.300781 81.796875 173.75 81.796875 C 174.351562 81.796875 174.5 82.863281 174.5 87.773438 C 174.5 92.304688 174.648438 93.875 175.199219 94.128906 C 175.699219 94.378906 175.800781 95.261719 175.601562 97.210938 C 175.300781 100.546875 175.800781 103.1875 176.699219 103.1875 C 177.199219 103.1875 177.300781 104.007812 177.101562 106.332031 C 176.898438 108.851562 177.050781 109.542969 177.699219 109.855469 C 178.148438 110.046875 178.5 110.925781 178.5 111.746094 C 178.5 112.625 178.851562 113.445312 179.25 113.632812 C 179.648438 113.882812 180 114.578125 180 115.269531 C 180 115.898438 180.75 117.34375 181.648438 118.414062 C 182.648438 119.609375 183.050781 120.429688 182.648438 120.617188 C 182.300781 120.804688 182 121.308594 182 121.75 C 182 122.191406 181.550781 122.691406 181 122.882812 C 180.199219 123.132812 180 123.761719 180 125.777344 C 180 127.664062 179.800781 128.355469 179.25 128.355469 C 178.851562 128.355469 178.5 128.921875 178.5 129.613281 C 178.5 130.304688 178.300781 130.871094 178.050781 130.871094 C 177.800781 130.871094 177.5 131.5 177.398438 132.257812 C 177.25 133.515625 177 133.640625 174.398438 133.453125 C 172.050781 133.328125 171.5 133.453125 171.5 134.269531 C 171.5 134.835938 171.199219 135.277344 170.800781 135.277344 C 170.050781 135.277344 169.5 136.597656 169.5 138.421875 C 169.5 139.113281 169.050781 139.933594 168.5 140.308594 C 167.949219 140.6875 167.5 141.378906 167.5 141.945312 C 167.5 142.953125 169.851562 149.117188 170.25 149.117188 C 170.648438 149.117188 172.050781 144.527344 172.601562 141.316406 C 172.949219 139.179688 173.398438 138.171875 174.050781 137.980469 C 174.550781 137.792969 175 137.417969 175 137.164062 C 175 136.851562 176.449219 136.472656 178.199219 136.21875 C 180.550781 135.90625 181.800781 136.03125 183.050781 136.722656 C 184 137.226562 185.351562 137.855469 186.101562 138.046875 C 186.949219 138.296875 187.5 138.925781 187.601562 139.808594 C 187.800781 141.570312 189 142.070312 189 140.375 C 189 139.617188 188.800781 139.050781 188.601562 139.050781 C 188.351562 139.050781 188.101562 137.855469 188.101562 136.347656 C 188.050781 134.898438 188 133.136719 187.949219 132.445312 C 187.898438 131.753906 188 130.746094 188.199219 130.179688 C 188.449219 129.488281 188.25 128.796875 187.75 128.292969 C 185.199219 125.648438 183 122.691406 183 121.8125 C 183 120.429688 184.351562 120.554688 185.851562 122 C 187.699219 123.886719 192.148438 125.335938 193.601562 124.644531 C 194.25 124.265625 196.050781 123.699219 197.601562 123.320312 C 199.148438 122.945312 200.699219 122.253906 201 121.75 C 201.898438 120.363281 201.101562 118.414062 199.199219 117.535156 C 198.300781 117.15625 197.5 116.527344 197.5 116.210938 C 197.5 115.960938 198.199219 114.953125 199 114.074219 C 201 111.933594 200.898438 111.367188 198.398438 111.367188 C 196.300781 111.367188 192.398438 109.605469 191.800781 108.347656 C 191.648438 108.03125 190.949219 107.90625 190.25 108.09375 C 189.148438 108.347656 189 108.160156 189 106.460938 C 189 105.390625 189.351562 104.257812 189.75 104.007812 C 190.148438 103.691406 190.949219 102.371094 191.5 100.984375 C 192.601562 98.34375 192.101562 96.582031 190.449219 97.210938 C 189.351562 97.652344 188.601562 96.328125 189.550781 95.574219 C 189.949219 95.261719 191.300781 95.007812 192.601562 95.007812 C 195.300781 95.007812 196.199219 94.066406 194 93.5 C 192.648438 93.183594 191.800781 91.234375 193 91.234375 C 193.648438 91.234375 194.601562 86.386719 194.25 84.878906 C 193.851562 83.367188 192.898438 82.738281 188.699219 81.101562 C 186.699219 80.285156 185.5 79.53125 185.648438 79.089844 C 185.75 78.648438 186.25 76.699219 186.699219 74.75 C 187.25 72.421875 187.851562 71.035156 188.449219 70.785156 C 189 70.59375 191 71.351562 193.25 72.671875 C 196.898438 74.75 197.199219 74.8125 198.050781 73.867188 C 198.550781 73.300781 198.851562 72.546875 198.699219 72.230469 C 198.050781 70.910156 199 68.707031 200.449219 68.394531 C 201.25 68.140625 201.949219 67.511719 202.101562 66.820312 C 202.351562 65.6875 202.601562 65.6875 208.050781 66.441406 C 211.199219 66.882812 214.050781 67.261719 214.351562 67.261719 C 214.699219 67.324219 215.148438 68.078125 215.300781 69.023438 C 215.75 71.414062 216.449219 72.355469 217.699219 72.355469 C 218.25 72.355469 219.449219 72.921875 220.25 73.617188 C 221.648438 74.75 223.5 75.316406 223.5 74.558594 C 223.5 74.371094 223.199219 73.679688 222.898438 72.988281 C 222.449219 72.042969 222.398438 71.601562 222.851562 71.035156 C 223.601562 70.09375 224.5 70.847656 224.5 72.546875 C 224.550781 74.246094 225.75 76.382812 226.398438 75.882812 C 226.699219 75.691406 226.800781 75 226.648438 74.371094 C 226.398438 73.113281 228.648438 70.722656 229.449219 71.351562 C 229.648438 71.539062 229.75 71.035156 229.648438 70.21875 C 229.449219 69.148438 229.699219 68.644531 230.5 68.394531 C 231.449219 68.078125 231.5 67.890625 230.949219 66.570312 C 230.601562 65.8125 229.800781 64.617188 229.148438 63.988281 C 228 62.855469 226.5 60.023438 227.351562 60.527344 C 227.550781 60.65625 228.351562 61.15625 229.101562 61.597656 C 229.800781 62.101562 230.550781 62.980469 230.648438 63.613281 C 230.800781 64.304688 231.25 64.808594 231.699219 64.808594 C 232.449219 64.808594 232.5 63.738281 232.398438 55.558594 L 232.25 46.308594 L 231 45.929688 C 229.851562 45.554688 229.800781 45.492188 230.648438 44.925781 C 231.25 44.484375 231.550781 43.730469 231.398438 42.722656 C 231.300781 41.527344 230.75 41.023438 228.898438 40.332031 C 227.550781 39.828125 226.5 39.074219 226.5 38.695312 C 226.5 38.316406 226.25 37.6875 225.898438 37.25 C 225.449219 36.683594 225.101562 36.746094 224.449219 37.5 C 223.699219 38.382812 223.601562 38.316406 223.300781 36.808594 C 223.050781 35.488281 222.699219 35.234375 221.25 35.234375 C 220 35.234375 219.5 35.488281 219.5 36.242188 C 219.5 36.808594 219.199219 37.121094 218.898438 36.933594 C 218.300781 36.683594 217.5 36.367188 212.800781 34.542969 C 211.800781 34.164062 211.101562 34.226562 210.648438 34.730469 C 210.148438 35.234375 209.5 35.234375 208.101562 34.730469 C 204.351562 33.285156 202.398438 32.78125 201.699219 33.160156 C 200.199219 33.851562 201.550781 35.863281 203.550781 35.863281 C 204.300781 35.863281 205.148438 36.304688 205.5 36.808594 C 205.851562 37.3125 206.550781 37.75 207.101562 37.75 C 207.648438 37.75 209.101562 38.570312 210.351562 39.640625 C 211.550781 40.644531 212.648438 41.527344 212.800781 41.527344 C 213.699219 41.527344 219.351562 48.953125 220.148438 51.089844 C 220.449219 52.097656 220.898438 52.851562 221.050781 52.851562 C 221.25 52.851562 221.550781 54.488281 221.75 56.4375 C 221.949219 58.515625 222.75 61.660156 223.601562 63.738281 C 224.75 66.507812 225 67.574219 224.550781 68.140625 C 223.699219 69.210938 222.398438 67.953125 221.898438 65.5625 C 221.449219 63.484375 221.050781 63.109375 220.199219 64.179688 C 219.851562 64.617188 219.148438 64.242188 218.050781 63.046875 C 213.648438 58.515625 211.949219 56.941406 210.5 56.25 C 210.101562 56.0625 209 55.496094 208.101562 54.992188 C 207.199219 54.488281 206.148438 54.109375 205.699219 54.109375 C 205.300781 54.109375 204.398438 53.605469 203.699219 53.042969 C 202.601562 52.160156 201 51.972656 193.699219 52.035156 C 187.75 52.035156 184.75 52.285156 184.398438 52.726562 C 183.699219 53.605469 181 53.734375 181 52.914062 C 181 52.601562 181.5 52.160156 182.148438 51.910156 C 183.199219 51.46875 183.199219 51.46875 182.25 51.152344 C 181.75 50.964844 181.199219 51.152344 181.101562 51.53125 C 180.898438 52.285156 178.898438 52.476562 178.351562 51.84375 C 176.351562 49.328125 187.101562 45.300781 195.949219 45.300781 C 202.25 45.300781 206.398438 46.6875 213.398438 51.027344 C 219.699219 54.929688 220.75 54.613281 217.5 49.707031 C 214.351562 44.988281 210.550781 42.03125 203.550781 38.695312 C 200.601562 37.3125 189.25 37.25 186.898438 38.632812 C 186 39.136719 184.449219 39.828125 183.5 40.144531 C 182.550781 40.519531 181.351562 40.960938 180.898438 41.210938 C 180.351562 41.464844 180 41.402344 180 40.960938 C 180 40.582031 180.351562 40.269531 180.75 40.269531 C 181.199219 40.269531 181.648438 39.828125 181.800781 39.324219 C 182 38.820312 182.351562 38.382812 182.699219 38.382812 C 183 38.382812 183.851562 38.003906 184.550781 37.5 C 185.25 37.058594 186.648438 36.492188 187.648438 36.242188 C 189 35.925781 189.5 35.488281 189.5 34.667969 C 189.5 33.597656 189.898438 33.535156 193.949219 33.851562 C 196.949219 34.039062 198.449219 33.914062 198.699219 33.410156 C 198.949219 32.96875 198.601562 32.71875 197.800781 32.71875 C 197.101562 32.71875 196.449219 32.464844 196.300781 32.152344 C 196.148438 31.898438 195 31.710938 193.800781 31.835938 C 191.949219 32.027344 191.398438 31.773438 190.800781 30.769531 C 190.398438 30.011719 189.851562 29.636719 189.5 29.886719 C 188.5 30.640625 187.5 28.941406 187.851562 26.992188 C 188 25.921875 187.851562 24.414062 187.5 23.53125 C 186.898438 22.210938 186.949219 21.832031 187.898438 20.574219 C 188.5 19.757812 189 18.625 189 18.058594 C 189 17.492188 189.449219 16.738281 190 16.359375 C 191.949219 15.039062 191.199219 13.84375 188.5 13.84375 C 186.601562 13.84375 186 14.09375 186 14.785156 Z M 186 14.785156 "/>
<path style=" stroke:none;fill-rule:nonzero;fill:rgb(0%,0%,0%);fill-opacity:1;" d="M 196.648438 135.78125 C 195.75 138.109375 195 140.308594 195 140.6875 C 195 141.316406 200.75 152.578125 202.101562 154.59375 C 203.300781 156.417969 203.398438 154.46875 202.25 151.195312 C 201.550781 149.308594 201 146.539062 201 145.15625 C 201 143.078125 200.699219 142.324219 199.398438 140.941406 C 197.601562 139.050781 197.648438 136.722656 199.5 137.480469 C 200.050781 137.730469 200.5 137.605469 200.5 137.226562 C 200.5 136.851562 200.300781 136.535156 200.050781 136.535156 C 199.800781 136.535156 199.449219 135.402344 199.25 134.019531 C 199.050781 132.632812 198.75 131.5 198.601562 131.5 C 198.398438 131.5 197.5 133.390625 196.648438 135.78125 Z M 196.648438 135.78125 "/>
<path style=" stroke:none;fill-rule:nonzero;fill:rgb(0%,0%,0%);fill-opacity:1;" d="M 179 149.875 C 178.300781 150.25 176.300781 150.566406 174.5 150.628906 C 172.699219 150.628906 171.300781 150.945312 171.300781 151.195312 C 171.449219 152.265625 176.300781 160.695312 178 162.898438 C 178.949219 164.15625 180.800781 166.234375 182.101562 167.554688 C 183.398438 168.875 184.949219 170.953125 185.5 172.085938 C 186.101562 173.28125 188.199219 176.363281 190.25 178.941406 C 192.25 181.460938 195.199219 186.117188 196.800781 189.136719 C 200.199219 195.617188 201 196.9375 201.75 196.9375 C 202.050781 196.9375 203.199219 198.007812 204.300781 199.390625 C 205.398438 200.714844 207.148438 202.285156 208.199219 202.914062 L 210.050781 204.046875 L 211.800781 201.910156 C 212.75 200.777344 213.5 199.390625 213.5 198.824219 C 213.5 198.257812 211.75 195.617188 209.648438 192.910156 L 205.75 188.003906 L 207.898438 188.382812 C 210.398438 188.820312 210.699219 187.878906 208.699219 185.675781 L 207.449219 184.292969 L 209.550781 180.011719 L 208.5 179.320312 C 207.601562 178.753906 207.5 178.25 207.800781 176.613281 C 207.949219 175.546875 208.699219 173.53125 209.351562 172.210938 C 211.5 167.933594 211.351562 163.589844 209.148438 164.472656 C 208.351562 164.785156 208.101562 165.605469 207.851562 168.183594 C 207.601562 171.140625 206.351562 174.980469 204.898438 177.242188 C 204.550781 177.808594 203.449219 177.179688 200.800781 174.851562 C 198.800781 173.15625 197 171.769531 196.851562 171.769531 C 196.648438 171.769531 194.800781 170.195312 192.699219 168.246094 C 190.648438 166.296875 188 164.21875 186.851562 163.527344 C 185.699219 162.835938 184.398438 162.019531 184 161.703125 C 182.550781 160.632812 179.851562 159.1875 179.199219 159.1875 C 178.851562 159.1875 178.300781 158.621094 177.949219 157.863281 C 177.5 156.730469 177.648438 156.230469 179.199219 154.214844 C 181.75 150.945312 181.601562 148.554688 179 149.875 Z M 179 149.875 "/>
<path style=" stroke:none;fill-rule:nonzero;fill:rgb(0%,0%,0%);fill-opacity:1;" d="M 221.5 172.839844 C 219.050781 173.847656 218.351562 174.222656 215 176.175781 C 209.449219 179.507812 209.25 179.824219 211.25 181.460938 C 212.199219 182.277344 212.5 183.03125 212.5 184.855469 C 212.5 187.183594 212.550781 187.25 214 186.996094 C 216.601562 186.492188 216.851562 185.234375 214.800781 182.84375 C 212.648438 180.265625 212.550781 179.320312 214.300781 179.320312 C 215 179.320312 217.550781 178.0625 219.898438 176.550781 C 222.300781 175.042969 224.75 173.59375 225.398438 173.34375 C 226 173.15625 226.398438 172.652344 226.25 172.335938 C 225.851562 171.582031 224.199219 171.707031 221.5 172.839844 Z M 221.5 172.839844 "/>
<path style=" stroke:none;fill-rule:nonzero;fill:rgb(0%,0%,0%);fill-opacity:1;" d="M 231.800781 180.453125 C 231.601562 181.082031 231.699219 182.96875 232 184.730469 C 232.300781 186.429688 232.648438 188.757812 232.851562 189.953125 L 233.148438 192.09375 L 236.601562 191.652344 C 239.398438 191.339844 240.101562 191.464844 240.300781 192.21875 C 240.5 192.722656 240.898438 193.164062 241.25 193.164062 C 241.648438 193.164062 242.25 193.539062 242.601562 193.980469 C 244.5 196.246094 246.199219 197.0625 248.351562 196.75 C 252.75 196.121094 255.601562 198.511719 254.75 201.972656 C 254.601562 202.601562 254.25 208.328125 253.949219 214.679688 C 253.699219 220.972656 253.351562 227.515625 253.199219 229.089844 L 252.898438 232.046875 L 255.851562 232.800781 C 257.449219 233.179688 260.800781 233.746094 263.25 233.996094 C 265.75 234.25 268.25 234.753906 268.851562 235.191406 C 269.449219 235.632812 270.398438 235.949219 271 235.949219 C 271.601562 235.949219 272.75 236.765625 273.5 237.835938 C 274.25 238.84375 275.101562 239.722656 275.398438 239.722656 C 275.648438 239.722656 276.550781 240.164062 277.300781 240.667969 C 278.148438 241.234375 279.300781 241.484375 280.148438 241.234375 C 282.050781 240.730469 283.601562 242.175781 284.699219 245.449219 C 285.199219 246.957031 285.898438 249.035156 286.300781 249.980469 C 286.699219 250.984375 287 252.054688 287 252.371094 C 287 253.691406 290.699219 258.597656 291.199219 257.96875 C 291.851562 257.152344 292 251.488281 291.398438 250.984375 C 291.101562 250.734375 290.851562 249.851562 290.851562 249.035156 C 290.800781 248.089844 290.449219 247.460938 290 247.523438 C 289.5 247.589844 289.300781 247.085938 289.351562 246.140625 C 289.449219 245.132812 289.199219 244.757812 288.550781 244.757812 C 288.050781 244.757812 286.800781 243.5 285.699219 241.925781 C 284.648438 240.351562 283.398438 239.09375 282.851562 239.09375 C 282.351562 239.09375 282.101562 238.78125 282.25 238.464844 C 282.699219 237.519531 283.949219 237.710938 284.800781 238.78125 C 285.25 239.28125 286 239.722656 286.550781 239.722656 C 287.050781 239.722656 287.5 239.976562 287.5 240.351562 C 287.5 240.667969 287.949219 240.980469 288.5 240.980469 C 289.050781 240.980469 289.5 240.667969 289.5 240.351562 C 289.5 239.976562 289.050781 239.722656 288.5 239.722656 C 288 239.722656 287.351562 239.34375 287.148438 238.90625 C 286.75 238.148438 285.851562 237.394531 283.25 235.570312 C 279.550781 232.992188 274.101562 226.574219 272.648438 223.113281 C 271 219.210938 272.148438 212.039062 274.550781 211.09375 C 275.050781 210.84375 275.5 210.339844 275.5 209.960938 C 275.5 209.082031 274.550781 208.261719 270.050781 205.304688 C 267.148438 203.417969 266.5 203.230469 262.449219 203.230469 C 258.101562 203.230469 258 203.167969 258.101562 201.78125 C 258.25 199.769531 256.148438 195.742188 254.601562 194.988281 C 253.949219 194.671875 252.648438 194.546875 251.75 194.796875 C 250.550781 195.050781 249.449219 194.734375 247.550781 193.476562 C 246.148438 192.597656 244.800781 191.96875 244.601562 192.15625 C 244.398438 192.28125 243.449219 191.90625 242.5 191.210938 C 241.550781 190.582031 240.351562 189.890625 239.898438 189.640625 C 239.398438 189.449219 239 189.011719 239 188.695312 C 239 188.382812 237.800781 186.996094 236.300781 185.613281 C 234.449219 183.851562 233.550781 182.464844 233.300781 181.207031 C 233 179.070312 232.199219 178.753906 231.800781 180.453125 Z M 231.800781 180.453125 "/>
<path style=" stroke:none;fill-rule:nonzero;fill:rgb(0%,0%,0%);fill-opacity:1;" d="M 213.550781 202.976562 C 211.648438 204.992188 211.601562 206.878906 213.398438 209.019531 C 215.648438 211.785156 217 211.851562 219 209.207031 L 220.75 206.941406 L 218.398438 204.109375 C 217.101562 202.601562 215.851562 201.34375 215.550781 201.34375 C 215.300781 201.34375 214.398438 202.097656 213.550781 202.976562 Z M 213.550781 202.976562 "/>
<path style=" stroke:none;fill-rule:nonzero;fill:rgb(0%,0%,0%);fill-opacity:1;" d="M 208.351562 208.136719 C 207.351562 209.523438 207.25 210.78125 208.148438 210.78125 C 208.75 210.78125 212.5 213.925781 213.898438 215.625 C 214.25 216.066406 215 216.441406 215.550781 216.441406 C 217.5 216.441406 226.148438 224.8125 226.800781 227.265625 C 227.199219 228.964844 228.800781 229.152344 233.699219 228.082031 C 236.148438 227.578125 238.199219 227.140625 238.300781 227.140625 C 238.398438 227.140625 238.5 226.761719 238.5 226.320312 C 238.5 225.816406 237.949219 225.125 237.25 224.75 C 236.550781 224.371094 236 223.742188 236 223.425781 C 236 223.113281 235 222.230469 233.800781 221.476562 C 232.550781 220.785156 229.601562 217.765625 227.148438 214.871094 C 224.75 211.914062 222.550781 209.523438 222.351562 209.523438 C 222.148438 209.523438 221.449219 210.152344 220.851562 210.96875 C 220.199219 211.722656 219.101562 212.855469 218.351562 213.484375 C 216.75 214.808594 216.550781 214.679688 212.5 209.960938 C 211.101562 208.328125 209.75 207.003906 209.550781 207.003906 C 209.351562 207.003906 208.800781 207.507812 208.351562 208.136719 Z M 208.351562 208.136719 "/>
<path style=" stroke:none;fill-rule:nonzero;fill:rgb(0%,0%,0%);fill-opacity:1;" d="M 185.5 211.09375 C 185.5 211.597656 185.949219 212.289062 186.5 212.667969 C 187.199219 213.109375 187.5 213.988281 187.5 215.375 C 187.5 217.703125 189.199219 222.734375 190 222.734375 C 190.25 222.734375 190.5 223.175781 190.5 223.679688 C 190.5 224.183594 190.148438 224.621094 189.75 224.621094 C 188.699219 224.621094 188.199219 226.511719 189.050781 227.203125 C 190 227.957031 190.300781 227.894531 191.199219 226.761719 C 191.898438 225.945312 192 225.945312 192 226.699219 C 192 227.644531 193 228.398438 194.148438 228.398438 C 194.601562 228.398438 194.699219 226.824219 194.550781 222.988281 C 194.449219 218.582031 194.148438 217.136719 193.25 215.4375 C 192.601562 214.242188 192 212.980469 191.898438 212.667969 C 191.75 212.039062 190.148438 211.347656 188.148438 211.15625 C 187.5 211.03125 186.851562 210.78125 186.648438 210.589844 C 186.101562 209.835938 185.5 210.089844 185.5 211.09375 Z M 185.5 211.09375 "/>
<path style=" stroke:none;fill-rule:nonzero;fill:rgb(0%,0%,0%);fill-opacity:1;" d="M 205.648438 287.289062 C 205.5 287.855469 205.699219 289.113281 206.199219 290.058594 C 206.648438 291.066406 206.851562 292.261719 206.699219 292.828125 C 206.5 293.457031 206.75 293.960938 207.300781 294.273438 C 208.5 294.777344 211 298.238281 211 299.308594 C 211 299.875 211.800781 300.125 213.75 300.125 C 216.351562 300.125 216.5 300.0625 216.5 298.554688 C 216.5 297.484375 216.101562 296.726562 215.25 296.226562 C 214.550781 295.847656 214 295.03125 214 294.398438 C 214 293.769531 213.398438 292.449219 212.699219 291.378906 C 211.648438 289.808594 211.050781 289.429688 209.449219 289.429688 C 208.050781 289.429688 207.5 289.179688 207.5 288.484375 C 207.5 287.605469 208.050781 287.289062 209.398438 287.480469 C 209.699219 287.542969 210 287.289062 210 286.914062 C 210 285.84375 206 286.15625 205.648438 287.289062 Z M 205.648438 287.289062 "/>
</g>
</svg>
